<ttFont>
    <TTGlyph name=".001" xMin="28" yMin="-160" xMax="482" yMax="487">
      <contour>
        <pt x="88" y="-59" on="1"/>
        <pt x="144" y="-59" on="0"/>
        <pt x="233" y="-30" on="0"/>
        <pt x="297" y="16" on="0"/>
        <pt x="336" y="73" on="0"/>
        <pt x="343" y="102" on="1"/>
        <pt x="340" y="104" on="1"/>
        <pt x="322" y="84" on="0"/>
        <pt x="264" y="61" on="0"/>
        <pt x="229" y="61" on="1"/>
        <pt x="181" y="61" on="0"/>
        <pt x="107" y="92" on="0"/>
        <pt x="55" y="146" on="0"/>
        <pt x="28" y="221" on="0"/>
        <pt x="28" y="265" on="1"/>
        <pt x="28" y="317" on="0"/>
        <pt x="64" y="400" on="0"/>
        <pt x="126" y="457" on="0"/>
        <pt x="208" y="487" on="0"/>
        <pt x="255" y="487" on="1"/>
        <pt x="304" y="487" on="0"/>
        <pt x="387" y="453" on="0"/>
        <pt x="448" y="386" on="0"/>
        <pt x="482" y="284" on="0"/>
        <pt x="482" y="215" on="1"/>
        <pt x="482" y="138" on="0"/>
        <pt x="432" y="1" on="0"/>
        <pt x="337" y="-101" on="0"/>
        <pt x="197" y="-160" on="0"/>
        <pt x="107" y="-160" on="1"/>
        <pt x="96" y="-160" on="0"/>
        <pt x="72" y="-158" on="0"/>
        <pt x="61" y="-156" on="1"/>
        <pt x="50" y="-56" on="1"/>
        <pt x="59" y="-58" on="0"/>
        <pt x="75" y="-59" on="0"/>
      </contour>
      <contour>
        <pt x="355" y="256" on="1"/>
        <pt x="355" y="282" on="0"/>
        <pt x="343" y="331" on="0"/>
        <pt x="318" y="368" on="0"/>
        <pt x="279" y="390" on="0"/>
        <pt x="253" y="390" on="1"/>
        <pt x="211" y="390" on="0"/>
        <pt x="157" y="321" on="0"/>
        <pt x="157" y="269" on="1"/>
        <pt x="157" y="217" on="0"/>
        <pt x="214" y="157" on="0"/>
        <pt x="257" y="157" on="1"/>
        <pt x="289" y="157" on="0"/>
        <pt x="329" y="181" on="0"/>
        <pt x="339" y="195" on="1"/>
        <pt x="348" y="208" on="0"/>
        <pt x="355" y="240" on="0"/>
      </contour>
    </TTGlyph>
    <TTGlyph name=".004" xMin="60" yMin="-162" xMax="501" yMax="477">
      <contour>
        <pt x="368" y="477" on="1"/>
        <pt x="501" y="477" on="1"/>
        <pt x="501" y="0" on="1"/>
        <pt x="402" y="0" on="1"/>
        <pt x="388" y="54" on="1"/>
        <pt x="384" y="54" on="1"/>
        <pt x="374" y="43" on="0"/>
        <pt x="348" y="20" on="0"/>
        <pt x="313" y="1" on="0"/>
        <pt x="268" y="-11" on="0"/>
        <pt x="239" y="-11" on="1"/>
        <pt x="207" y="-11" on="0"/>
        <pt x="179" y="2" on="1"/>
        <pt x="193" y="-73" on="1"/>
        <pt x="193" y="-162" on="1"/>
        <pt x="60" y="-162" on="1"/>
        <pt x="60" y="477" on="1"/>
        <pt x="193" y="477" on="1"/>
        <pt x="193" y="170" on="1"/>
        <pt x="193" y="127" on="0"/>
        <pt x="234" y="89" on="0"/>
        <pt x="266" y="89" on="1"/>
        <pt x="302" y="89" on="0"/>
        <pt x="353" y="119" on="0"/>
        <pt x="368" y="139" on="1"/>
      </contour>
    </TTGlyph>
    <TTGlyph name=".notdef" xMin="0" yMin="0" xMax="518" yMax="698">
      <contour>
        <pt x="0" y="698" on="1"/>
        <pt x="518" y="698" on="1"/>
        <pt x="518" y="0" on="1"/>
        <pt x="0" y="0" on="1"/>
      </contour>
      <contour>
        <pt x="406" y="635" on="1"/>
        <pt x="113" y="635" on="1"/>
        <pt x="259" y="417" on="1"/>
      </contour>
      <contour>
        <pt x="440" y="145" on="1"/>
        <pt x="440" y="553" on="1"/>
        <pt x="304" y="349" on="1"/>
      </contour>
      <contour>
        <pt x="406" y="63" on="1"/>
        <pt x="259" y="282" on="1"/>
        <pt x="113" y="63" on="1"/>
      </contour>
      <contour>
        <pt x="78" y="145" on="1"/>
        <pt x="215" y="349" on="1"/>
        <pt x="78" y="553" on="1"/>
      </contour>
    </TTGlyph>
    <TTGlyph name=".notdef#1" xMin="-207" yMin="633" xMax="54" yMax="903">
      <contour>
        <pt x="-180" y="633" on="1"/>
        <pt x="-180" y="643" on="1"/>
        <pt x="-191" y="658" on="0"/>
        <pt x="-207" y="711" on="0"/>
        <pt x="-207" y="756" on="1"/>
        <pt x="-207" y="789" on="0"/>
        <pt x="-184" y="844" on="0"/>
        <pt x="-143" y="882" on="0"/>
        <pt x="-87" y="903" on="0"/>
        <pt x="-55" y="903" on="1"/>
        <pt x="16" y="903" on="0"/>
        <pt x="54" y="879" on="1"/>
        <pt x="27" y="794" on="1"/>
        <pt x="2" y="805" on="0"/>
        <pt x="-33" y="805" on="1"/>
        <pt x="-67" y="805" on="0"/>
        <pt x="-104" y="761" on="0"/>
        <pt x="-104" y="729" on="1"/>
        <pt x="-104" y="698" on="0"/>
        <pt x="-87" y="651" on="0"/>
        <pt x="-76" y="636" on="1"/>
      </contour>
      <contour>
        <pt x="-60" y="718" on="1"/>
        <pt x="-60" y="734" on="0"/>
        <pt x="-38" y="755" on="0"/>
        <pt x="-21" y="755" on="1"/>
        <pt x="-4" y="755" on="0"/>
        <pt x="16" y="734" on="0"/>
        <pt x="16" y="718" on="1"/>
        <pt x="16" y="701" on="0"/>
        <pt x="-4" y="679" on="0"/>
        <pt x="-21" y="679" on="1"/>
        <pt x="-38" y="679" on="0"/>
        <pt x="-60" y="701" on="0"/>
      </contour>
    </TTGlyph>
    <TTGlyph name=".notdef#2" xMin="-207" yMin="633" xMax="64" yMax="903">
      <contour>
        <pt x="-180" y="633" on="1"/>
        <pt x="-180" y="643" on="1"/>
        <pt x="-191" y="658" on="0"/>
        <pt x="-207" y="711" on="0"/>
        <pt x="-207" y="756" on="1"/>
        <pt x="-207" y="789" on="0"/>
        <pt x="-184" y="844" on="0"/>
        <pt x="-143" y="882" on="0"/>
        <pt x="-87" y="903" on="0"/>
        <pt x="-55" y="903" on="1"/>
        <pt x="50" y="903" on="1"/>
        <pt x="50" y="809" on="1"/>
        <pt x="-33" y="809" on="1"/>
        <pt x="-67" y="809" on="0"/>
        <pt x="-104" y="765" on="0"/>
        <pt x="-104" y="733" on="1"/>
        <pt x="-104" y="702" on="0"/>
        <pt x="-87" y="651" on="0"/>
        <pt x="-76" y="636" on="1"/>
      </contour>
      <contour>
        <pt x="64" y="744" on="1"/>
        <pt x="64" y="706" on="0"/>
        <pt x="26" y="675" on="0"/>
        <pt x="0" y="675" on="1"/>
        <pt x="-29" y="675" on="0"/>
        <pt x="-67" y="708" on="0"/>
        <pt x="-67" y="744" on="1"/>
        <pt x="-36" y="744" on="1"/>
        <pt x="-34" y="723" on="0"/>
        <pt x="-17" y="707" on="0"/>
        <pt x="0" y="707" on="1"/>
        <pt x="31" y="707" on="0"/>
        <pt x="32" y="744" on="1"/>
      </contour>
      <contour>
        <pt x="-19" y="746" on="1"/>
        <pt x="-19" y="765" on="0"/>
        <pt x="-1" y="765" on="1"/>
        <pt x="16" y="765" on="0"/>
        <pt x="16" y="746" on="1"/>
        <pt x="16" y="726" on="0"/>
        <pt x="-1" y="726" on="1"/>
        <pt x="-19" y="726" on="0"/>
      </contour>
    </TTGlyph>
    <TTGlyph name="A" xMin="12" yMin="0" xMax="622" yMax="630">
      <contour>
        <pt x="235" y="246" on="1"/>
        <pt x="395" y="246" on="1"/>
        <pt x="366" y="330" on="1"/>
        <pt x="352" y="369" on="0"/>
        <pt x="328" y="448" on="0"/>
        <pt x="317" y="488" on="1"/>
        <pt x="315" y="488" on="1"/>
        <pt x="304" y="450" on="0"/>
        <pt x="278" y="371" on="0"/>
        <pt x="264" y="330" on="1"/>
      </contour>
      <contour>
        <pt x="247" y="630" on="1"/>
        <pt x="389" y="630" on="1"/>
        <pt x="622" y="0" on="1"/>
        <pt x="477" y="0" on="1"/>
        <pt x="428" y="145" on="1"/>
        <pt x="204" y="145" on="1"/>
        <pt x="155" y="0" on="1"/>
        <pt x="12" y="0" on="1"/>
      </contour>
    </TTGlyph>
    <TTGlyph name="AE" xMin="12" yMin="0" xMax="796" yMax="630">
      <contour>
        <pt x="329" y="630" on="1"/>
        <pt x="793" y="630" on="1"/>
        <pt x="793" y="524" on="1"/>
        <pt x="547" y="524" on="1"/>
        <pt x="547" y="380" on="1"/>
        <pt x="767" y="380" on="1"/>
        <pt x="767" y="275" on="1"/>
        <pt x="547" y="275" on="1"/>
        <pt x="547" y="106" on="1"/>
        <pt x="796" y="106" on="1"/>
        <pt x="796" y="0" on="1"/>
        <pt x="411" y="0" on="1"/>
        <pt x="411" y="149" on="1"/>
        <pt x="239" y="149" on="1"/>
        <pt x="166" y="0" on="1"/>
        <pt x="12" y="0" on="1"/>
      </contour>
      <contour>
        <pt x="411" y="532" on="1"/>
        <pt x="282" y="252" on="1"/>
        <pt x="411" y="252" on="1"/>
      </contour>
    </TTGlyph>
    <TTGlyph name="AEacute" xMin="12" yMin="0" xMax="796" yMax="819">
      <contour>
        <pt x="329" y="630" on="1"/>
        <pt x="793" y="630" on="1"/>
        <pt x="793" y="524" on="1"/>
        <pt x="547" y="524" on="1"/>
        <pt x="547" y="380" on="1"/>
        <pt x="767" y="380" on="1"/>
        <pt x="767" y="275" on="1"/>
        <pt x="547" y="275" on="1"/>
        <pt x="547" y="106" on="1"/>
        <pt x="796" y="106" on="1"/>
        <pt x="796" y="0" on="1"/>
        <pt x="411" y="0" on="1"/>
        <pt x="411" y="149" on="1"/>
        <pt x="239" y="149" on="1"/>
        <pt x="166" y="0" on="1"/>
        <pt x="12" y="0" on="1"/>
      </contour>
      <contour>
        <pt x="411" y="532" on="1"/>
        <pt x="282" y="252" on="1"/>
        <pt x="411" y="252" on="1"/>
      </contour>
      <contour>
        <pt x="462" y="695" on="1"/>
        <pt x="353" y="695" on="1"/>
        <pt x="433" y="819" on="1"/>
        <pt x="577" y="819" on="1"/>
      </contour>
    </TTGlyph>
    <TTGlyph name="Aacute" xMin="12" yMin="0" xMax="622" yMax="819">
      <contour>
        <pt x="371" y="695" on="1"/>
        <pt x="262" y="695" on="1"/>
        <pt x="342" y="819" on="1"/>
        <pt x="486" y="819" on="1"/>
      </contour>
      <contour>
        <pt x="235" y="246" on="1"/>
        <pt x="395" y="246" on="1"/>
        <pt x="366" y="330" on="1"/>
        <pt x="352" y="369" on="0"/>
        <pt x="328" y="448" on="0"/>
        <pt x="317" y="488" on="1"/>
        <pt x="315" y="488" on="1"/>
        <pt x="304" y="450" on="0"/>
        <pt x="278" y="371" on="0"/>
        <pt x="264" y="330" on="1"/>
      </contour>
      <contour>
        <pt x="247" y="630" on="1"/>
        <pt x="389" y="630" on="1"/>
        <pt x="622" y="0" on="1"/>
        <pt x="477" y="0" on="1"/>
        <pt x="428" y="145" on="1"/>
        <pt x="204" y="145" on="1"/>
        <pt x="155" y="0" on="1"/>
        <pt x="12" y="0" on="1"/>
      </contour>
    </TTGlyph>
    <TTGlyph name="Abreve" xMin="12" yMin="0" xMax="622" yMax="819">
      <contour>
        <pt x="258" y="819" on="1"/>
        <pt x="260" y="794" on="0"/>
        <pt x="285" y="764" on="0"/>
        <pt x="316" y="764" on="1"/>
        <pt x="369" y="764" on="0"/>
        <pt x="372" y="819" on="1"/>
        <pt x="449" y="819" on="1"/>
        <pt x="449" y="759" on="0"/>
        <pt x="380" y="691" on="0"/>
        <pt x="315" y="691" on="1"/>
        <pt x="279" y="691" on="0"/>
        <pt x="228" y="712" on="0"/>
        <pt x="195" y="747" on="0"/>
        <pt x="180" y="793" on="0"/>
        <pt x="180" y="819" on="1"/>
      </contour>
      <contour>
        <pt x="235" y="246" on="1"/>
        <pt x="395" y="246" on="1"/>
        <pt x="366" y="330" on="1"/>
        <pt x="352" y="369" on="0"/>
        <pt x="328" y="448" on="0"/>
        <pt x="317" y="488" on="1"/>
        <pt x="315" y="488" on="1"/>
        <pt x="304" y="450" on="0"/>
        <pt x="278" y="371" on="0"/>
        <pt x="264" y="330" on="1"/>
      </contour>
      <contour>
        <pt x="247" y="630" on="1"/>
        <pt x="389" y="630" on="1"/>
        <pt x="622" y="0" on="1"/>
        <pt x="477" y="0" on="1"/>
        <pt x="428" y="145" on="1"/>
        <pt x="204" y="145" on="1"/>
        <pt x="155" y="0" on="1"/>
        <pt x="12" y="0" on="1"/>
      </contour>
    </TTGlyph>
    <TTGlyph name="Acircumflex" xMin="12" yMin="0" xMax="622" yMax="821">
      <contour>
        <pt x="266" y="821" on="1"/>
        <pt x="365" y="821" on="1"/>
        <pt x="483" y="695" on="1"/>
        <pt x="380" y="695" on="1"/>
        <pt x="315" y="764" on="1"/>
        <pt x="250" y="695" on="1"/>
        <pt x="152" y="695" on="1"/>
      </contour>
      <contour>
        <pt x="235" y="246" on="1"/>
        <pt x="395" y="246" on="1"/>
        <pt x="366" y="330" on="1"/>
        <pt x="352" y="369" on="0"/>
        <pt x="328" y="448" on="0"/>
        <pt x="317" y="488" on="1"/>
        <pt x="315" y="488" on="1"/>
        <pt x="304" y="450" on="0"/>
        <pt x="278" y="371" on="0"/>
        <pt x="264" y="330" on="1"/>
      </contour>
      <contour>
        <pt x="247" y="630" on="1"/>
        <pt x="389" y="630" on="1"/>
        <pt x="622" y="0" on="1"/>
        <pt x="477" y="0" on="1"/>
        <pt x="428" y="145" on="1"/>
        <pt x="204" y="145" on="1"/>
        <pt x="155" y="0" on="1"/>
        <pt x="12" y="0" on="1"/>
      </contour>
    </TTGlyph>
    <TTGlyph name="Acute" xMin="23" yMin="695" xMax="247" yMax="819">
      <contour>
        <pt x="132" y="695" on="1"/>
        <pt x="23" y="695" on="1"/>
        <pt x="103" y="819" on="1"/>
        <pt x="247" y="819" on="1"/>
      </contour>
    </TTGlyph>
    <TTGlyph name="Adieresis" xMin="12" yMin="0" xMax="622" yMax="813">
      <contour>
        <pt x="155" y="751" on="1"/>
        <pt x="155" y="777" on="0"/>
        <pt x="192" y="813" on="0"/>
        <pt x="219" y="813" on="1"/>
        <pt x="245" y="813" on="0"/>
        <pt x="281" y="777" on="0"/>
        <pt x="281" y="751" on="1"/>
        <pt x="281" y="724" on="0"/>
        <pt x="245" y="687" on="0"/>
        <pt x="219" y="687" on="1"/>
        <pt x="192" y="687" on="0"/>
        <pt x="155" y="724" on="0"/>
      </contour>
      <contour>
        <pt x="350" y="751" on="1"/>
        <pt x="350" y="777" on="0"/>
        <pt x="388" y="813" on="0"/>
        <pt x="414" y="813" on="1"/>
        <pt x="440" y="813" on="0"/>
        <pt x="477" y="777" on="0"/>
        <pt x="477" y="751" on="1"/>
        <pt x="477" y="724" on="0"/>
        <pt x="440" y="687" on="0"/>
        <pt x="414" y="687" on="1"/>
        <pt x="388" y="687" on="0"/>
        <pt x="350" y="724" on="0"/>
      </contour>
      <contour>
        <pt x="235" y="246" on="1"/>
        <pt x="395" y="246" on="1"/>
        <pt x="366" y="330" on="1"/>
        <pt x="352" y="369" on="0"/>
        <pt x="328" y="448" on="0"/>
        <pt x="317" y="488" on="1"/>
        <pt x="315" y="488" on="1"/>
        <pt x="304" y="450" on="0"/>
        <pt x="278" y="371" on="0"/>
        <pt x="264" y="330" on="1"/>
      </contour>
      <contour>
        <pt x="247" y="630" on="1"/>
        <pt x="389" y="630" on="1"/>
        <pt x="622" y="0" on="1"/>
        <pt x="477" y="0" on="1"/>
        <pt x="428" y="145" on="1"/>
        <pt x="204" y="145" on="1"/>
        <pt x="155" y="0" on="1"/>
        <pt x="12" y="0" on="1"/>
      </contour>
    </TTGlyph>
    <TTGlyph name="Agrave" xMin="12" yMin="0" xMax="622" yMax="819">
      <contour>
        <pt x="150" y="819" on="1"/>
        <pt x="294" y="819" on="1"/>
        <pt x="374" y="695" on="1"/>
        <pt x="265" y="695" on="1"/>
      </contour>
      <contour>
        <pt x="235" y="246" on="1"/>
        <pt x="395" y="246" on="1"/>
        <pt x="366" y="330" on="1"/>
        <pt x="352" y="369" on="0"/>
        <pt x="328" y="448" on="0"/>
        <pt x="317" y="488" on="1"/>
        <pt x="315" y="488" on="1"/>
        <pt x="304" y="450" on="0"/>
        <pt x="278" y="371" on="0"/>
        <pt x="264" y="330" on="1"/>
      </contour>
      <contour>
        <pt x="247" y="630" on="1"/>
        <pt x="389" y="630" on="1"/>
        <pt x="622" y="0" on="1"/>
        <pt x="477" y="0" on="1"/>
        <pt x="428" y="145" on="1"/>
        <pt x="204" y="145" on="1"/>
        <pt x="155" y="0" on="1"/>
        <pt x="12" y="0" on="1"/>
      </contour>
    </TTGlyph>
    <TTGlyph name="Amacron" xMin="12" yMin="0" xMax="622" yMax="772">
      <contour>
        <pt x="444" y="772" on="1"/>
        <pt x="444" y="695" on="1"/>
        <pt x="187" y="695" on="1"/>
        <pt x="187" y="772" on="1"/>
      </contour>
      <contour>
        <pt x="235" y="246" on="1"/>
        <pt x="395" y="246" on="1"/>
        <pt x="366" y="330" on="1"/>
        <pt x="352" y="369" on="0"/>
        <pt x="328" y="448" on="0"/>
        <pt x="317" y="488" on="1"/>
        <pt x="315" y="488" on="1"/>
        <pt x="304" y="450" on="0"/>
        <pt x="278" y="371" on="0"/>
        <pt x="264" y="330" on="1"/>
      </contour>
      <contour>
        <pt x="247" y="630" on="1"/>
        <pt x="389" y="630" on="1"/>
        <pt x="622" y="0" on="1"/>
        <pt x="477" y="0" on="1"/>
        <pt x="428" y="145" on="1"/>
        <pt x="204" y="145" on="1"/>
        <pt x="155" y="0" on="1"/>
        <pt x="12" y="0" on="1"/>
      </contour>
    </TTGlyph>
    <TTGlyph name="Aogonek" xMin="12" yMin="-206" xMax="622" yMax="630">
      <contour>
        <pt x="247" y="630" on="1"/>
        <pt x="389" y="630" on="1"/>
        <pt x="622" y="0" on="1"/>
        <pt x="571" y="0" on="1"/>
        <pt x="545" y="-18" on="0"/>
        <pt x="516" y="-58" on="0"/>
        <pt x="516" y="-80" on="1"/>
        <pt x="516" y="-100" on="0"/>
        <pt x="540" y="-124" on="0"/>
        <pt x="561" y="-124" on="1"/>
        <pt x="574" y="-124" on="0"/>
        <pt x="594" y="-119" on="0"/>
        <pt x="603" y="-116" on="1"/>
        <pt x="621" y="-184" on="1"/>
        <pt x="586" y="-206" on="0"/>
        <pt x="536" y="-206" on="1"/>
        <pt x="490" y="-206" on="0"/>
        <pt x="429" y="-152" on="0"/>
        <pt x="429" y="-105" on="1"/>
        <pt x="429" y="-67" on="0"/>
        <pt x="460" y="-17" on="0"/>
        <pt x="477" y="0" on="1"/>
        <pt x="428" y="145" on="1"/>
        <pt x="204" y="145" on="1"/>
        <pt x="155" y="0" on="1"/>
        <pt x="12" y="0" on="1"/>
      </contour>
      <contour>
        <pt x="235" y="246" on="1"/>
        <pt x="395" y="246" on="1"/>
        <pt x="366" y="330" on="1"/>
        <pt x="352" y="369" on="0"/>
        <pt x="328" y="448" on="0"/>
        <pt x="317" y="488" on="1"/>
        <pt x="315" y="488" on="1"/>
        <pt x="304" y="450" on="0"/>
        <pt x="278" y="371" on="0"/>
        <pt x="264" y="330" on="1"/>
      </contour>
    </TTGlyph>
    <TTGlyph name="Aring" xMin="12" yMin="0" xMax="622" yMax="853">
      <contour>
        <pt x="211" y="762" on="1"/>
        <pt x="211" y="807" on="0"/>
        <pt x="270" y="853" on="0"/>
        <pt x="315" y="853" on="1"/>
        <pt x="361" y="853" on="0"/>
        <pt x="420" y="808" on="0"/>
        <pt x="420" y="762" on="1"/>
        <pt x="420" y="716" on="0"/>
        <pt x="358" y="672" on="0"/>
        <pt x="315" y="672" on="1"/>
        <pt x="272" y="672" on="0"/>
        <pt x="211" y="718" on="0"/>
      </contour>
      <contour>
        <pt x="275" y="762" on="1"/>
        <pt x="275" y="741" on="0"/>
        <pt x="296" y="717" on="0"/>
        <pt x="315" y="717" on="1"/>
        <pt x="334" y="717" on="0"/>
        <pt x="356" y="741" on="0"/>
        <pt x="356" y="762" on="1"/>
        <pt x="356" y="784" on="0"/>
        <pt x="333" y="808" on="0"/>
        <pt x="315" y="808" on="1"/>
        <pt x="297" y="808" on="0"/>
        <pt x="275" y="784" on="0"/>
      </contour>
      <contour>
        <pt x="235" y="246" on="1"/>
        <pt x="395" y="246" on="1"/>
        <pt x="366" y="330" on="1"/>
        <pt x="352" y="369" on="0"/>
        <pt x="328" y="448" on="0"/>
        <pt x="317" y="488" on="1"/>
        <pt x="315" y="488" on="1"/>
        <pt x="304" y="450" on="0"/>
        <pt x="278" y="371" on="0"/>
        <pt x="264" y="330" on="1"/>
      </contour>
      <contour>
        <pt x="247" y="630" on="1"/>
        <pt x="389" y="630" on="1"/>
        <pt x="622" y="0" on="1"/>
        <pt x="477" y="0" on="1"/>
        <pt x="428" y="145" on="1"/>
        <pt x="204" y="145" on="1"/>
        <pt x="155" y="0" on="1"/>
        <pt x="12" y="0" on="1"/>
      </contour>
    </TTGlyph>
    <TTGlyph name="Asmall" xMin="12" yMin="0" xMax="503" yMax="477">
      <contour>
        <pt x="205" y="191" on="1"/>
        <pt x="308" y="191" on="1"/>
        <pt x="287" y="254" on="1"/>
        <pt x="279" y="277" on="0"/>
        <pt x="264" y="332" on="0"/>
        <pt x="259" y="353" on="1"/>
        <pt x="257" y="353" on="1"/>
        <pt x="252" y="332" on="0"/>
        <pt x="234" y="277" on="0"/>
        <pt x="226" y="254" on="1"/>
      </contour>
      <contour>
        <pt x="186" y="477" on="1"/>
        <pt x="329" y="477" on="1"/>
        <pt x="503" y="0" on="1"/>
        <pt x="369" y="0" on="1"/>
        <pt x="336" y="101" on="1"/>
        <pt x="177" y="101" on="1"/>
        <pt x="143" y="0" on="1"/>
        <pt x="12" y="0" on="1"/>
      </contour>
    </TTGlyph>
    <TTGlyph name="Atilde" xMin="12" yMin="0" xMax="622" yMax="816">
      <contour>
        <pt x="163" y="695" on="1"/>
        <pt x="163" y="744" on="0"/>
        <pt x="209" y="813" on="0"/>
        <pt x="253" y="813" on="1"/>
        <pt x="272" y="813" on="0"/>
        <pt x="302" y="802" on="0"/>
        <pt x="329" y="788" on="0"/>
        <pt x="354" y="777" on="0"/>
        <pt x="368" y="777" on="1"/>
        <pt x="384" y="777" on="0"/>
        <pt x="399" y="799" on="0"/>
        <pt x="401" y="816" on="1"/>
        <pt x="466" y="816" on="1"/>
        <pt x="466" y="765" on="0"/>
        <pt x="420" y="699" on="0"/>
        <pt x="379" y="699" on="1"/>
        <pt x="359" y="699" on="0"/>
        <pt x="325" y="710" on="0"/>
        <pt x="295" y="723" on="0"/>
        <pt x="270" y="734" on="0"/>
        <pt x="259" y="734" on="1"/>
        <pt x="242" y="734" on="0"/>
        <pt x="229" y="711" on="0"/>
        <pt x="228" y="695" on="1"/>
      </contour>
      <contour>
        <pt x="235" y="246" on="1"/>
        <pt x="395" y="246" on="1"/>
        <pt x="366" y="330" on="1"/>
        <pt x="352" y="369" on="0"/>
        <pt x="328" y="448" on="0"/>
        <pt x="317" y="488" on="1"/>
        <pt x="315" y="488" on="1"/>
        <pt x="304" y="450" on="0"/>
        <pt x="278" y="371" on="0"/>
        <pt x="264" y="330" on="1"/>
      </contour>
      <contour>
        <pt x="247" y="630" on="1"/>
        <pt x="389" y="630" on="1"/>
        <pt x="622" y="0" on="1"/>
        <pt x="477" y="0" on="1"/>
        <pt x="428" y="145" on="1"/>
        <pt x="204" y="145" on="1"/>
        <pt x="155" y="0" on="1"/>
        <pt x="12" y="0" on="1"/>
      </contour>
    </TTGlyph>
    <TTGlyph name="B" xMin="69" yMin="0" xMax="529" yMax="630">
      <contour>
        <pt x="294" y="630" on="1"/>
        <pt x="394" y="630" on="0"/>
        <pt x="510" y="544" on="0"/>
        <pt x="510" y="466" on="1"/>
        <pt x="510" y="437" on="0"/>
        <pt x="489" y="391" on="0"/>
        <pt x="456" y="358" on="0"/>
        <pt x="415" y="336" on="0"/>
        <pt x="394" y="331" on="1"/>
        <pt x="422" y="326" on="0"/>
        <pt x="471" y="303" on="0"/>
        <pt x="508" y="265" on="0"/>
        <pt x="529" y="212" on="0"/>
        <pt x="529" y="178" on="1"/>
        <pt x="529" y="139" on="0"/>
        <pt x="495" y="74" on="0"/>
        <pt x="432" y="26" on="0"/>
        <pt x="343" y="0" on="0"/>
        <pt x="289" y="0" on="1"/>
        <pt x="69" y="0" on="1"/>
        <pt x="69" y="630" on="1"/>
      </contour>
      <contour>
        <pt x="206" y="378" on="1"/>
        <pt x="271" y="378" on="1"/>
        <pt x="316" y="378" on="0"/>
        <pt x="369" y="417" on="0"/>
        <pt x="369" y="456" on="1"/>
        <pt x="369" y="491" on="0"/>
        <pt x="320" y="526" on="0"/>
        <pt x="274" y="526" on="1"/>
        <pt x="206" y="526" on="1"/>
      </contour>
      <contour>
        <pt x="206" y="104" on="1"/>
        <pt x="271" y="104" on="1"/>
        <pt x="322" y="104" on="0"/>
        <pt x="388" y="143" on="0"/>
        <pt x="388" y="191" on="1"/>
        <pt x="388" y="236" on="0"/>
        <pt x="318" y="275" on="0"/>
        <pt x="267" y="275" on="1"/>
        <pt x="206" y="275" on="1"/>
      </contour>
    </TTGlyph>
    <TTGlyph name="Breve" xMin="19" yMin="691" xMax="288" yMax="819">
      <contour>
        <pt x="97" y="819" on="1"/>
        <pt x="99" y="794" on="0"/>
        <pt x="124" y="764" on="0"/>
        <pt x="154" y="764" on="1"/>
        <pt x="208" y="764" on="0"/>
        <pt x="211" y="819" on="1"/>
        <pt x="288" y="819" on="1"/>
        <pt x="288" y="759" on="0"/>
        <pt x="219" y="691" on="0"/>
        <pt x="154" y="691" on="1"/>
        <pt x="118" y="691" on="0"/>
        <pt x="67" y="712" on="0"/>
        <pt x="34" y="747" on="0"/>
        <pt x="19" y="793" on="0"/>
        <pt x="19" y="819" on="1"/>
      </contour>
    </TTGlyph>
    <TTGlyph name="Bsmall" xMin="63" yMin="0" xMax="460" yMax="477">
      <contour>
        <pt x="269" y="477" on="1"/>
        <pt x="355" y="477" on="0"/>
        <pt x="439" y="409" on="0"/>
        <pt x="439" y="353" on="1"/>
        <pt x="439" y="315" on="0"/>
        <pt x="394" y="265" on="0"/>
        <pt x="357" y="253" on="1"/>
        <pt x="407" y="242" on="0"/>
        <pt x="460" y="183" on="0"/>
        <pt x="460" y="138" on="1"/>
        <pt x="460" y="79" on="0"/>
        <pt x="363" y="0" on="0"/>
        <pt x="268" y="0" on="1"/>
        <pt x="63" y="0" on="1"/>
        <pt x="63" y="477" on="1"/>
      </contour>
      <contour>
        <pt x="196" y="293" on="1"/>
        <pt x="242" y="293" on="1"/>
        <pt x="268" y="293" on="0"/>
        <pt x="304" y="313" on="0"/>
        <pt x="304" y="337" on="1"/>
        <pt x="304" y="357" on="0"/>
        <pt x="274" y="379" on="0"/>
        <pt x="240" y="379" on="1"/>
        <pt x="196" y="379" on="1"/>
      </contour>
      <contour>
        <pt x="196" y="98" on="1"/>
        <pt x="244" y="98" on="1"/>
        <pt x="284" y="98" on="0"/>
        <pt x="323" y="121" on="0"/>
        <pt x="323" y="149" on="1"/>
        <pt x="323" y="168" on="0"/>
        <pt x="292" y="197" on="0"/>
        <pt x="253" y="197" on="1"/>
        <pt x="196" y="197" on="1"/>
      </contour>
    </TTGlyph>
    <TTGlyph name="C" xMin="40" yMin="-11" xMax="542" yMax="641">
      <contour>
        <pt x="380" y="95" on="1"/>
        <pt x="426" y="95" on="0"/>
        <pt x="490" y="111" on="0"/>
        <pt x="513" y="125" on="1"/>
        <pt x="541" y="25" on="1"/>
        <pt x="517" y="11" on="0"/>
        <pt x="429" y="-11" on="0"/>
        <pt x="366" y="-11" on="1"/>
        <pt x="295" y="-11" on="0"/>
        <pt x="175" y="34" on="0"/>
        <pt x="88" y="119" on="0"/>
        <pt x="40" y="240" on="0"/>
        <pt x="40" y="316" on="1"/>
        <pt x="40" y="390" on="0"/>
        <pt x="87" y="510" on="0"/>
        <pt x="172" y="595" on="0"/>
        <pt x="294" y="641" on="0"/>
        <pt x="369" y="641" on="1"/>
        <pt x="433" y="641" on="0"/>
        <pt x="516" y="617" on="0"/>
        <pt x="542" y="603" on="1"/>
        <pt x="511" y="502" on="1"/>
        <pt x="485" y="516" on="0"/>
        <pt x="422" y="535" on="0"/>
        <pt x="383" y="535" on="1"/>
        <pt x="342" y="535" on="0"/>
        <pt x="270" y="511" on="0"/>
        <pt x="216" y="458" on="0"/>
        <pt x="185" y="375" on="0"/>
        <pt x="185" y="316" on="1"/>
        <pt x="185" y="259" on="0"/>
        <pt x="215" y="176" on="0"/>
        <pt x="268" y="122" on="0"/>
        <pt x="339" y="95" on="0"/>
      </contour>
    </TTGlyph>
    <TTGlyph name="Cacute" xMin="40" yMin="-11" xMax="542" yMax="819">
      <contour>
        <pt x="380" y="95" on="1"/>
        <pt x="426" y="95" on="0"/>
        <pt x="490" y="111" on="0"/>
        <pt x="513" y="125" on="1"/>
        <pt x="541" y="25" on="1"/>
        <pt x="517" y="11" on="0"/>
        <pt x="429" y="-11" on="0"/>
        <pt x="366" y="-11" on="1"/>
        <pt x="295" y="-11" on="0"/>
        <pt x="175" y="34" on="0"/>
        <pt x="88" y="119" on="0"/>
        <pt x="40" y="240" on="0"/>
        <pt x="40" y="316" on="1"/>
        <pt x="40" y="390" on="0"/>
        <pt x="87" y="510" on="0"/>
        <pt x="172" y="595" on="0"/>
        <pt x="294" y="641" on="0"/>
        <pt x="369" y="641" on="1"/>
        <pt x="433" y="641" on="0"/>
        <pt x="516" y="617" on="0"/>
        <pt x="542" y="603" on="1"/>
        <pt x="511" y="502" on="1"/>
        <pt x="485" y="516" on="0"/>
        <pt x="422" y="535" on="0"/>
        <pt x="383" y="535" on="1"/>
        <pt x="342" y="535" on="0"/>
        <pt x="270" y="511" on="0"/>
        <pt x="216" y="458" on="0"/>
        <pt x="185" y="375" on="0"/>
        <pt x="185" y="316" on="1"/>
        <pt x="185" y="259" on="0"/>
        <pt x="215" y="176" on="0"/>
        <pt x="268" y="122" on="0"/>
        <pt x="339" y="95" on="0"/>
      </contour>
      <contour>
        <pt x="354" y="695" on="1"/>
        <pt x="244" y="695" on="1"/>
        <pt x="324" y="819" on="1"/>
        <pt x="469" y="819" on="1"/>
      </contour>
    </TTGlyph>
    <TTGlyph name="Caron" xMin="14" yMin="695" xMax="345" yMax="821">
      <contour>
        <pt x="14" y="821" on="1"/>
        <pt x="115" y="821" on="1"/>
        <pt x="180" y="752" on="1"/>
        <pt x="245" y="821" on="1"/>
        <pt x="345" y="821" on="1"/>
        <pt x="230" y="695" on="1"/>
        <pt x="131" y="695" on="1"/>
      </contour>
    </TTGlyph>
    <TTGlyph name="Ccaron" xMin="40" yMin="-11" xMax="542" yMax="822">
      <contour>
        <pt x="380" y="95" on="1"/>
        <pt x="426" y="95" on="0"/>
        <pt x="490" y="111" on="0"/>
        <pt x="513" y="125" on="1"/>
        <pt x="541" y="25" on="1"/>
        <pt x="517" y="11" on="0"/>
        <pt x="429" y="-11" on="0"/>
        <pt x="366" y="-11" on="1"/>
        <pt x="295" y="-11" on="0"/>
        <pt x="175" y="34" on="0"/>
        <pt x="88" y="119" on="0"/>
        <pt x="40" y="240" on="0"/>
        <pt x="40" y="316" on="1"/>
        <pt x="40" y="390" on="0"/>
        <pt x="87" y="510" on="0"/>
        <pt x="172" y="595" on="0"/>
        <pt x="294" y="641" on="0"/>
        <pt x="369" y="641" on="1"/>
        <pt x="433" y="641" on="0"/>
        <pt x="516" y="617" on="0"/>
        <pt x="542" y="603" on="1"/>
        <pt x="511" y="502" on="1"/>
        <pt x="485" y="516" on="0"/>
        <pt x="422" y="535" on="0"/>
        <pt x="383" y="535" on="1"/>
        <pt x="342" y="535" on="0"/>
        <pt x="270" y="511" on="0"/>
        <pt x="216" y="458" on="0"/>
        <pt x="185" y="375" on="0"/>
        <pt x="185" y="316" on="1"/>
        <pt x="185" y="259" on="0"/>
        <pt x="215" y="176" on="0"/>
        <pt x="268" y="122" on="0"/>
        <pt x="339" y="95" on="0"/>
      </contour>
      <contour>
        <pt x="179" y="822" on="1"/>
        <pt x="282" y="822" on="1"/>
        <pt x="346" y="752" on="1"/>
        <pt x="411" y="822" on="1"/>
        <pt x="510" y="822" on="1"/>
        <pt x="395" y="695" on="1"/>
        <pt x="296" y="695" on="1"/>
      </contour>
    </TTGlyph>
    <TTGlyph name="Ccedilla" xMin="40" yMin="-215" xMax="542" yMax="641">
      <contour>
        <pt x="380" y="95" on="1"/>
        <pt x="426" y="95" on="0"/>
        <pt x="490" y="111" on="0"/>
        <pt x="513" y="125" on="1"/>
        <pt x="541" y="25" on="1"/>
        <pt x="518" y="12" on="0"/>
        <pt x="437" y="-9" on="0"/>
        <pt x="377" y="-11" on="1"/>
        <pt x="364" y="-47" on="1"/>
        <pt x="403" y="-50" on="0"/>
        <pt x="446" y="-94" on="0"/>
        <pt x="446" y="-123" on="1"/>
        <pt x="446" y="-169" on="0"/>
        <pt x="378" y="-215" on="0"/>
        <pt x="327" y="-215" on="1"/>
        <pt x="302" y="-215" on="0"/>
        <pt x="259" y="-206" on="0"/>
        <pt x="246" y="-201" on="1"/>
        <pt x="262" y="-146" on="1"/>
        <pt x="274" y="-151" on="0"/>
        <pt x="297" y="-155" on="0"/>
        <pt x="313" y="-155" on="1"/>
        <pt x="335" y="-155" on="0"/>
        <pt x="360" y="-137" on="0"/>
        <pt x="360" y="-118" on="1"/>
        <pt x="360" y="-101" on="0"/>
        <pt x="328" y="-78" on="0"/>
        <pt x="281" y="-78" on="1"/>
        <pt x="308" y="-6" on="1"/>
        <pt x="248" y="2" on="0"/>
        <pt x="149" y="54" on="0"/>
        <pt x="79" y="136" on="0"/>
        <pt x="40" y="248" on="0"/>
        <pt x="40" y="316" on="1"/>
        <pt x="40" y="390" on="0"/>
        <pt x="87" y="510" on="0"/>
        <pt x="172" y="595" on="0"/>
        <pt x="294" y="641" on="0"/>
        <pt x="369" y="641" on="1"/>
        <pt x="433" y="641" on="0"/>
        <pt x="516" y="617" on="0"/>
        <pt x="542" y="603" on="1"/>
        <pt x="511" y="502" on="1"/>
        <pt x="485" y="516" on="0"/>
        <pt x="422" y="535" on="0"/>
        <pt x="383" y="535" on="1"/>
        <pt x="342" y="535" on="0"/>
        <pt x="270" y="511" on="0"/>
        <pt x="216" y="458" on="0"/>
        <pt x="185" y="375" on="0"/>
        <pt x="185" y="316" on="1"/>
        <pt x="185" y="259" on="0"/>
        <pt x="215" y="176" on="0"/>
        <pt x="268" y="122" on="0"/>
        <pt x="339" y="95" on="0"/>
      </contour>
    </TTGlyph>
    <TTGlyph name="Ccircumflex" xMin="40" yMin="-11" xMax="542" yMax="821">
      <contour>
        <pt x="380" y="95" on="1"/>
        <pt x="426" y="95" on="0"/>
        <pt x="490" y="111" on="0"/>
        <pt x="513" y="125" on="1"/>
        <pt x="541" y="25" on="1"/>
        <pt x="517" y="11" on="0"/>
        <pt x="429" y="-11" on="0"/>
        <pt x="366" y="-11" on="1"/>
        <pt x="295" y="-11" on="0"/>
        <pt x="175" y="34" on="0"/>
        <pt x="88" y="119" on="0"/>
        <pt x="40" y="240" on="0"/>
        <pt x="40" y="316" on="1"/>
        <pt x="40" y="390" on="0"/>
        <pt x="87" y="510" on="0"/>
        <pt x="172" y="595" on="0"/>
        <pt x="294" y="641" on="0"/>
        <pt x="369" y="641" on="1"/>
        <pt x="433" y="641" on="0"/>
        <pt x="516" y="617" on="0"/>
        <pt x="542" y="603" on="1"/>
        <pt x="511" y="502" on="1"/>
        <pt x="485" y="516" on="0"/>
        <pt x="422" y="535" on="0"/>
        <pt x="383" y="535" on="1"/>
        <pt x="342" y="535" on="0"/>
        <pt x="270" y="511" on="0"/>
        <pt x="216" y="458" on="0"/>
        <pt x="185" y="375" on="0"/>
        <pt x="185" y="316" on="1"/>
        <pt x="185" y="259" on="0"/>
        <pt x="215" y="176" on="0"/>
        <pt x="268" y="122" on="0"/>
        <pt x="339" y="95" on="0"/>
      </contour>
      <contour>
        <pt x="294" y="821" on="1"/>
        <pt x="393" y="821" on="1"/>
        <pt x="511" y="695" on="1"/>
        <pt x="408" y="695" on="1"/>
        <pt x="343" y="764" on="1"/>
        <pt x="278" y="695" on="1"/>
        <pt x="180" y="695" on="1"/>
      </contour>
    </TTGlyph>
    <TTGlyph name="Cdotaccent" xMin="40" yMin="-11" xMax="542" yMax="816">
      <contour>
        <pt x="380" y="95" on="1"/>
        <pt x="426" y="95" on="0"/>
        <pt x="490" y="111" on="0"/>
        <pt x="513" y="125" on="1"/>
        <pt x="541" y="25" on="1"/>
        <pt x="517" y="11" on="0"/>
        <pt x="429" y="-11" on="0"/>
        <pt x="366" y="-11" on="1"/>
        <pt x="295" y="-11" on="0"/>
        <pt x="175" y="34" on="0"/>
        <pt x="88" y="119" on="0"/>
        <pt x="40" y="240" on="0"/>
        <pt x="40" y="316" on="1"/>
        <pt x="40" y="390" on="0"/>
        <pt x="87" y="510" on="0"/>
        <pt x="172" y="595" on="0"/>
        <pt x="294" y="641" on="0"/>
        <pt x="369" y="641" on="1"/>
        <pt x="433" y="641" on="0"/>
        <pt x="516" y="617" on="0"/>
        <pt x="542" y="603" on="1"/>
        <pt x="511" y="502" on="1"/>
        <pt x="485" y="516" on="0"/>
        <pt x="422" y="535" on="0"/>
        <pt x="383" y="535" on="1"/>
        <pt x="342" y="535" on="0"/>
        <pt x="270" y="511" on="0"/>
        <pt x="216" y="458" on="0"/>
        <pt x="185" y="375" on="0"/>
        <pt x="185" y="316" on="1"/>
        <pt x="185" y="259" on="0"/>
        <pt x="215" y="176" on="0"/>
        <pt x="268" y="122" on="0"/>
        <pt x="339" y="95" on="0"/>
      </contour>
      <contour>
        <pt x="302" y="753" on="1"/>
        <pt x="302" y="779" on="0"/>
        <pt x="341" y="816" on="0"/>
        <pt x="367" y="816" on="1"/>
        <pt x="395" y="816" on="0"/>
        <pt x="432" y="779" on="0"/>
        <pt x="432" y="753" on="1"/>
        <pt x="432" y="725" on="0"/>
        <pt x="395" y="687" on="0"/>
        <pt x="367" y="687" on="1"/>
        <pt x="341" y="687" on="0"/>
        <pt x="302" y="725" on="0"/>
      </contour>
    </TTGlyph>
    <TTGlyph name="Cedilla" xMin="32" yMin="-215" xMax="232" yMax="0">
      <contour>
        <pt x="96" y="0" on="1"/>
        <pt x="167" y="0" on="1"/>
        <pt x="151" y="-47" on="1"/>
        <pt x="189" y="-50" on="0"/>
        <pt x="232" y="-94" on="0"/>
        <pt x="232" y="-123" on="1"/>
        <pt x="232" y="-169" on="0"/>
        <pt x="164" y="-215" on="0"/>
        <pt x="113" y="-215" on="1"/>
        <pt x="88" y="-215" on="0"/>
        <pt x="45" y="-206" on="0"/>
        <pt x="32" y="-201" on="1"/>
        <pt x="48" y="-146" on="1"/>
        <pt x="61" y="-151" on="0"/>
        <pt x="84" y="-155" on="0"/>
        <pt x="99" y="-155" on="1"/>
        <pt x="121" y="-155" on="0"/>
        <pt x="146" y="-137" on="0"/>
        <pt x="146" y="-118" on="1"/>
        <pt x="146" y="-102" on="0"/>
        <pt x="114" y="-78" on="0"/>
        <pt x="67" y="-78" on="1"/>
      </contour>
    </TTGlyph>
    <TTGlyph name="Circumflex" xMin="21" yMin="695" xMax="352" yMax="821">
      <contour>
        <pt x="136" y="821" on="1"/>
        <pt x="235" y="821" on="1"/>
        <pt x="352" y="695" on="1"/>
        <pt x="250" y="695" on="1"/>
        <pt x="185" y="764" on="1"/>
        <pt x="120" y="695" on="1"/>
        <pt x="21" y="695" on="1"/>
      </contour>
    </TTGlyph>
    <TTGlyph name="Csmall" xMin="40" yMin="-11" xMax="439" yMax="487">
      <contour>
        <pt x="318" y="87" on="1"/>
        <pt x="350" y="87" on="0"/>
        <pt x="399" y="104" on="0"/>
        <pt x="414" y="112" on="1"/>
        <pt x="439" y="20" on="1"/>
        <pt x="419" y="9" on="0"/>
        <pt x="343" y="-11" on="0"/>
        <pt x="298" y="-11" on="1"/>
        <pt x="243" y="-11" on="0"/>
        <pt x="149" y="21" on="0"/>
        <pt x="80" y="84" on="0"/>
        <pt x="40" y="176" on="0"/>
        <pt x="40" y="237" on="1"/>
        <pt x="40" y="293" on="0"/>
        <pt x="78" y="385" on="0"/>
        <pt x="147" y="451" on="0"/>
        <pt x="242" y="487" on="0"/>
        <pt x="300" y="487" on="1"/>
        <pt x="331" y="487" on="0"/>
        <pt x="400" y="475" on="0"/>
        <pt x="438" y="455" on="1"/>
        <pt x="410" y="363" on="1"/>
        <pt x="389" y="375" on="0"/>
        <pt x="340" y="390" on="0"/>
        <pt x="315" y="390" on="1"/>
        <pt x="252" y="390" on="0"/>
        <pt x="175" y="314" on="0"/>
        <pt x="175" y="241" on="1"/>
        <pt x="175" y="198" on="0"/>
        <pt x="200" y="139" on="0"/>
        <pt x="240" y="103" on="0"/>
        <pt x="292" y="87" on="0"/>
      </contour>
    </TTGlyph>
    <TTGlyph name="D" xMin="69" yMin="0" xMax="615" yMax="630">
      <contour>
        <pt x="289" y="630" on="1"/>
        <pt x="362" y="630" on="0"/>
        <pt x="482" y="592" on="0"/>
        <pt x="568" y="516" on="0"/>
        <pt x="615" y="403" on="0"/>
        <pt x="615" y="328" on="1"/>
        <pt x="615" y="242" on="0"/>
        <pt x="559" y="119" on="0"/>
        <pt x="463" y="38" on="0"/>
        <pt x="334" y="0" on="0"/>
        <pt x="262" y="0" on="1"/>
        <pt x="69" y="0" on="1"/>
        <pt x="69" y="630" on="1"/>
      </contour>
      <contour>
        <pt x="206" y="106" on="1"/>
        <pt x="253" y="106" on="1"/>
        <pt x="295" y="106" on="0"/>
        <pt x="374" y="127" on="0"/>
        <pt x="434" y="178" on="0"/>
        <pt x="470" y="263" on="0"/>
        <pt x="470" y="328" on="1"/>
        <pt x="470" y="423" on="0"/>
        <pt x="362" y="524" on="0"/>
        <pt x="271" y="524" on="1"/>
        <pt x="206" y="524" on="1"/>
      </contour>
    </TTGlyph>
    <TTGlyph name="Dcaron" xMin="69" yMin="0" xMax="615" yMax="822">
      <contour>
        <pt x="289" y="630" on="1"/>
        <pt x="362" y="630" on="0"/>
        <pt x="482" y="592" on="0"/>
        <pt x="568" y="516" on="0"/>
        <pt x="615" y="403" on="0"/>
        <pt x="615" y="328" on="1"/>
        <pt x="615" y="242" on="0"/>
        <pt x="559" y="119" on="0"/>
        <pt x="463" y="38" on="0"/>
        <pt x="334" y="0" on="0"/>
        <pt x="262" y="0" on="1"/>
        <pt x="69" y="0" on="1"/>
        <pt x="69" y="630" on="1"/>
      </contour>
      <contour>
        <pt x="206" y="106" on="1"/>
        <pt x="253" y="106" on="1"/>
        <pt x="295" y="106" on="0"/>
        <pt x="374" y="127" on="0"/>
        <pt x="434" y="178" on="0"/>
        <pt x="470" y="263" on="0"/>
        <pt x="470" y="328" on="1"/>
        <pt x="470" y="423" on="0"/>
        <pt x="362" y="524" on="0"/>
        <pt x="271" y="524" on="1"/>
        <pt x="206" y="524" on="1"/>
      </contour>
      <contour>
        <pt x="128" y="822" on="1"/>
        <pt x="229" y="822" on="1"/>
        <pt x="294" y="753" on="1"/>
        <pt x="359" y="822" on="1"/>
        <pt x="459" y="822" on="1"/>
        <pt x="343" y="695" on="1"/>
        <pt x="244" y="695" on="1"/>
      </contour>
    </TTGlyph>
    <TTGlyph name="Dcroat" xMin="22" yMin="0" xMax="653" yMax="630">
      <contour>
        <pt x="327" y="630" on="1"/>
        <pt x="400" y="630" on="0"/>
        <pt x="520" y="592" on="0"/>
        <pt x="606" y="516" on="0"/>
        <pt x="653" y="403" on="0"/>
        <pt x="653" y="328" on="1"/>
        <pt x="653" y="242" on="0"/>
        <pt x="597" y="119" on="0"/>
        <pt x="501" y="38" on="0"/>
        <pt x="372" y="0" on="0"/>
        <pt x="299" y="0" on="1"/>
        <pt x="107" y="0" on="1"/>
        <pt x="107" y="275" on="1"/>
        <pt x="22" y="275" on="1"/>
        <pt x="22" y="367" on="1"/>
        <pt x="107" y="367" on="1"/>
        <pt x="107" y="630" on="1"/>
      </contour>
      <contour>
        <pt x="360" y="367" on="1"/>
        <pt x="360" y="275" on="1"/>
        <pt x="244" y="275" on="1"/>
        <pt x="244" y="106" on="1"/>
        <pt x="290" y="106" on="1"/>
        <pt x="332" y="106" on="0"/>
        <pt x="411" y="127" on="0"/>
        <pt x="472" y="178" on="0"/>
        <pt x="508" y="263" on="0"/>
        <pt x="508" y="328" on="1"/>
        <pt x="508" y="423" on="0"/>
        <pt x="400" y="524" on="0"/>
        <pt x="309" y="524" on="1"/>
        <pt x="244" y="524" on="1"/>
        <pt x="244" y="367" on="1"/>
      </contour>
    </TTGlyph>
    <TTGlyph name="Dieresis" xMin="31" yMin="687" xMax="352" yMax="813">
      <contour>
        <pt x="31" y="751" on="1"/>
        <pt x="31" y="777" on="0"/>
        <pt x="68" y="813" on="0"/>
        <pt x="94" y="813" on="1"/>
        <pt x="121" y="813" on="0"/>
        <pt x="157" y="777" on="0"/>
        <pt x="157" y="751" on="1"/>
        <pt x="157" y="724" on="0"/>
        <pt x="121" y="687" on="0"/>
        <pt x="94" y="687" on="1"/>
        <pt x="68" y="687" on="0"/>
        <pt x="31" y="724" on="0"/>
      </contour>
      <contour>
        <pt x="226" y="751" on="1"/>
        <pt x="226" y="777" on="0"/>
        <pt x="263" y="813" on="0"/>
        <pt x="290" y="813" on="1"/>
        <pt x="316" y="813" on="0"/>
        <pt x="352" y="777" on="0"/>
        <pt x="352" y="751" on="1"/>
        <pt x="352" y="724" on="0"/>
        <pt x="316" y="687" on="0"/>
        <pt x="290" y="687" on="1"/>
        <pt x="263" y="687" on="0"/>
        <pt x="226" y="724" on="0"/>
      </contour>
    </TTGlyph>
    <TTGlyph name="DieresisAcute" xMin="30" yMin="687" xMax="531" yMax="821">
      <contour>
        <pt x="30" y="755" on="1"/>
        <pt x="30" y="781" on="0"/>
        <pt x="67" y="817" on="0"/>
        <pt x="93" y="817" on="1"/>
        <pt x="120" y="817" on="0"/>
        <pt x="156" y="781" on="0"/>
        <pt x="156" y="755" on="1"/>
        <pt x="156" y="728" on="0"/>
        <pt x="120" y="691" on="0"/>
        <pt x="93" y="691" on="1"/>
        <pt x="67" y="691" on="0"/>
        <pt x="30" y="728" on="0"/>
      </contour>
      <contour>
        <pt x="405" y="755" on="1"/>
        <pt x="405" y="781" on="0"/>
        <pt x="442" y="817" on="0"/>
        <pt x="468" y="817" on="1"/>
        <pt x="494" y="817" on="0"/>
        <pt x="531" y="781" on="0"/>
        <pt x="531" y="755" on="1"/>
        <pt x="531" y="728" on="0"/>
        <pt x="494" y="691" on="0"/>
        <pt x="468" y="691" on="1"/>
        <pt x="442" y="691" on="0"/>
        <pt x="405" y="728" on="0"/>
      </contour>
      <contour>
        <pt x="287" y="687" on="1"/>
        <pt x="177" y="687" on="1"/>
        <pt x="247" y="821" on="1"/>
        <pt x="392" y="821" on="1"/>
      </contour>
    </TTGlyph>
    <TTGlyph name="DieresisGrave" xMin="30" yMin="687" xMax="531" yMax="821">
      <contour>
        <pt x="531" y="755" on="1"/>
        <pt x="531" y="781" on="0"/>
        <pt x="494" y="817" on="0"/>
        <pt x="468" y="817" on="1"/>
        <pt x="442" y="817" on="0"/>
        <pt x="405" y="781" on="0"/>
        <pt x="405" y="755" on="1"/>
        <pt x="405" y="728" on="0"/>
        <pt x="442" y="691" on="0"/>
        <pt x="468" y="691" on="1"/>
        <pt x="494" y="691" on="0"/>
        <pt x="531" y="728" on="0"/>
      </contour>
      <contour>
        <pt x="156" y="755" on="1"/>
        <pt x="156" y="781" on="0"/>
        <pt x="120" y="817" on="0"/>
        <pt x="93" y="817" on="1"/>
        <pt x="67" y="817" on="0"/>
        <pt x="30" y="781" on="0"/>
        <pt x="30" y="755" on="1"/>
        <pt x="30" y="728" on="0"/>
        <pt x="67" y="691" on="0"/>
        <pt x="93" y="691" on="1"/>
        <pt x="120" y="691" on="0"/>
        <pt x="156" y="728" on="0"/>
      </contour>
      <contour>
        <pt x="169" y="821" on="1"/>
        <pt x="313" y="821" on="1"/>
        <pt x="383" y="687" on="1"/>
        <pt x="274" y="687" on="1"/>
      </contour>
    </TTGlyph>
    <TTGlyph name="Dotaccent" xMin="30" yMin="687" xMax="159" yMax="816">
      <contour>
        <pt x="30" y="753" on="1"/>
        <pt x="30" y="779" on="0"/>
        <pt x="68" y="816" on="0"/>
        <pt x="95" y="816" on="1"/>
        <pt x="122" y="816" on="0"/>
        <pt x="159" y="779" on="0"/>
        <pt x="159" y="753" on="1"/>
        <pt x="159" y="725" on="0"/>
        <pt x="122" y="687" on="0"/>
        <pt x="95" y="687" on="1"/>
        <pt x="68" y="687" on="0"/>
        <pt x="30" y="725" on="0"/>
      </contour>
    </TTGlyph>
    <TTGlyph name="Dsmall" xMin="63" yMin="0" xMax="511" yMax="477">
      <contour>
        <pt x="256" y="477" on="1"/>
        <pt x="308" y="477" on="0"/>
        <pt x="401" y="452" on="0"/>
        <pt x="470" y="397" on="0"/>
        <pt x="511" y="310" on="0"/>
        <pt x="511" y="249" on="1"/>
        <pt x="511" y="183" on="0"/>
        <pt x="470" y="89" on="0"/>
        <pt x="398" y="28" on="0"/>
        <pt x="300" y="0" on="0"/>
        <pt x="243" y="0" on="1"/>
        <pt x="63" y="0" on="1"/>
        <pt x="63" y="477" on="1"/>
      </contour>
      <contour>
        <pt x="196" y="99" on="1"/>
        <pt x="230" y="99" on="1"/>
        <pt x="253" y="99" on="0"/>
        <pt x="304" y="110" on="0"/>
        <pt x="348" y="142" on="0"/>
        <pt x="376" y="200" on="0"/>
        <pt x="376" y="246" on="1"/>
        <pt x="376" y="310" on="0"/>
        <pt x="304" y="378" on="0"/>
        <pt x="230" y="378" on="1"/>
        <pt x="196" y="378" on="1"/>
      </contour>
    </TTGlyph>
    <TTGlyph name="E" xMin="69" yMin="0" xMax="482" yMax="630">
      <contour>
        <pt x="69" y="630" on="1"/>
        <pt x="479" y="630" on="1"/>
        <pt x="479" y="524" on="1"/>
        <pt x="206" y="524" on="1"/>
        <pt x="206" y="380" on="1"/>
        <pt x="453" y="380" on="1"/>
        <pt x="453" y="275" on="1"/>
        <pt x="206" y="275" on="1"/>
        <pt x="206" y="106" on="1"/>
        <pt x="482" y="106" on="1"/>
        <pt x="482" y="0" on="1"/>
        <pt x="69" y="0" on="1"/>
      </contour>
    </TTGlyph>
    <TTGlyph name="Eacute" xMin="69" yMin="0" xMax="482" yMax="819">
      <contour>
        <pt x="69" y="630" on="1"/>
        <pt x="479" y="630" on="1"/>
        <pt x="479" y="524" on="1"/>
        <pt x="206" y="524" on="1"/>
        <pt x="206" y="380" on="1"/>
        <pt x="453" y="380" on="1"/>
        <pt x="453" y="275" on="1"/>
        <pt x="206" y="275" on="1"/>
        <pt x="206" y="106" on="1"/>
        <pt x="482" y="106" on="1"/>
        <pt x="482" y="0" on="1"/>
        <pt x="69" y="0" on="1"/>
      </contour>
      <contour>
        <pt x="280" y="695" on="1"/>
        <pt x="170" y="695" on="1"/>
        <pt x="250" y="819" on="1"/>
        <pt x="395" y="819" on="1"/>
      </contour>
    </TTGlyph>
    <TTGlyph name="Ebreve" xMin="69" yMin="0" xMax="482" yMax="822">
      <contour>
        <pt x="69" y="630" on="1"/>
        <pt x="479" y="630" on="1"/>
        <pt x="479" y="524" on="1"/>
        <pt x="206" y="524" on="1"/>
        <pt x="206" y="380" on="1"/>
        <pt x="453" y="380" on="1"/>
        <pt x="453" y="275" on="1"/>
        <pt x="206" y="275" on="1"/>
        <pt x="206" y="106" on="1"/>
        <pt x="482" y="106" on="1"/>
        <pt x="482" y="0" on="1"/>
        <pt x="69" y="0" on="1"/>
      </contour>
      <contour>
        <pt x="223" y="822" on="1"/>
        <pt x="225" y="797" on="0"/>
        <pt x="250" y="767" on="0"/>
        <pt x="281" y="767" on="1"/>
        <pt x="334" y="767" on="0"/>
        <pt x="337" y="822" on="1"/>
        <pt x="414" y="822" on="1"/>
        <pt x="414" y="762" on="0"/>
        <pt x="345" y="694" on="0"/>
        <pt x="280" y="694" on="1"/>
        <pt x="244" y="694" on="0"/>
        <pt x="193" y="715" on="0"/>
        <pt x="160" y="750" on="0"/>
        <pt x="145" y="796" on="0"/>
        <pt x="145" y="822" on="1"/>
      </contour>
    </TTGlyph>
    <TTGlyph name="Ecaron" xMin="69" yMin="0" xMax="482" yMax="822">
      <contour>
        <pt x="69" y="630" on="1"/>
        <pt x="479" y="630" on="1"/>
        <pt x="479" y="524" on="1"/>
        <pt x="206" y="524" on="1"/>
        <pt x="206" y="380" on="1"/>
        <pt x="453" y="380" on="1"/>
        <pt x="453" y="275" on="1"/>
        <pt x="206" y="275" on="1"/>
        <pt x="206" y="106" on="1"/>
        <pt x="482" y="106" on="1"/>
        <pt x="482" y="0" on="1"/>
        <pt x="69" y="0" on="1"/>
      </contour>
      <contour>
        <pt x="329" y="695" on="1"/>
        <pt x="230" y="695" on="1"/>
        <pt x="113" y="822" on="1"/>
        <pt x="215" y="822" on="1"/>
        <pt x="280" y="752" on="1"/>
        <pt x="345" y="822" on="1"/>
        <pt x="444" y="822" on="1"/>
      </contour>
    </TTGlyph>
    <TTGlyph name="Ecircumflex" xMin="69" yMin="0" xMax="482" yMax="821">
      <contour>
        <pt x="69" y="630" on="1"/>
        <pt x="479" y="630" on="1"/>
        <pt x="479" y="524" on="1"/>
        <pt x="206" y="524" on="1"/>
        <pt x="206" y="380" on="1"/>
        <pt x="453" y="380" on="1"/>
        <pt x="453" y="275" on="1"/>
        <pt x="206" y="275" on="1"/>
        <pt x="206" y="106" on="1"/>
        <pt x="482" y="106" on="1"/>
        <pt x="482" y="0" on="1"/>
        <pt x="69" y="0" on="1"/>
      </contour>
      <contour>
        <pt x="218" y="821" on="1"/>
        <pt x="317" y="821" on="1"/>
        <pt x="435" y="695" on="1"/>
        <pt x="332" y="695" on="1"/>
        <pt x="267" y="764" on="1"/>
        <pt x="202" y="695" on="1"/>
        <pt x="104" y="695" on="1"/>
      </contour>
    </TTGlyph>
    <TTGlyph name="Edieresis" xMin="69" yMin="0" xMax="482" yMax="813">
      <contour>
        <pt x="69" y="630" on="1"/>
        <pt x="479" y="630" on="1"/>
        <pt x="479" y="524" on="1"/>
        <pt x="206" y="524" on="1"/>
        <pt x="206" y="380" on="1"/>
        <pt x="453" y="380" on="1"/>
        <pt x="453" y="275" on="1"/>
        <pt x="206" y="275" on="1"/>
        <pt x="206" y="106" on="1"/>
        <pt x="482" y="106" on="1"/>
        <pt x="482" y="0" on="1"/>
        <pt x="69" y="0" on="1"/>
      </contour>
      <contour>
        <pt x="113" y="751" on="1"/>
        <pt x="113" y="777" on="0"/>
        <pt x="150" y="813" on="0"/>
        <pt x="176" y="813" on="1"/>
        <pt x="202" y="813" on="0"/>
        <pt x="239" y="777" on="0"/>
        <pt x="239" y="751" on="1"/>
        <pt x="239" y="724" on="0"/>
        <pt x="202" y="687" on="0"/>
        <pt x="176" y="687" on="1"/>
        <pt x="150" y="687" on="0"/>
        <pt x="113" y="724" on="0"/>
      </contour>
      <contour>
        <pt x="308" y="751" on="1"/>
        <pt x="308" y="777" on="0"/>
        <pt x="345" y="813" on="0"/>
        <pt x="371" y="813" on="1"/>
        <pt x="398" y="813" on="0"/>
        <pt x="434" y="777" on="0"/>
        <pt x="434" y="751" on="1"/>
        <pt x="434" y="724" on="0"/>
        <pt x="398" y="687" on="0"/>
        <pt x="371" y="687" on="1"/>
        <pt x="345" y="687" on="0"/>
        <pt x="308" y="724" on="0"/>
      </contour>
    </TTGlyph>
    <TTGlyph name="Edotaccent" xMin="69" yMin="0" xMax="482" yMax="816">
      <contour>
        <pt x="69" y="630" on="1"/>
        <pt x="479" y="630" on="1"/>
        <pt x="479" y="524" on="1"/>
        <pt x="206" y="524" on="1"/>
        <pt x="206" y="380" on="1"/>
        <pt x="453" y="380" on="1"/>
        <pt x="453" y="275" on="1"/>
        <pt x="206" y="275" on="1"/>
        <pt x="206" y="106" on="1"/>
        <pt x="482" y="106" on="1"/>
        <pt x="482" y="0" on="1"/>
        <pt x="69" y="0" on="1"/>
      </contour>
      <contour>
        <pt x="218" y="753" on="1"/>
        <pt x="218" y="779" on="0"/>
        <pt x="256" y="816" on="0"/>
        <pt x="283" y="816" on="1"/>
        <pt x="310" y="816" on="0"/>
        <pt x="347" y="779" on="0"/>
        <pt x="347" y="753" on="1"/>
        <pt x="347" y="725" on="0"/>
        <pt x="310" y="687" on="0"/>
        <pt x="283" y="687" on="1"/>
        <pt x="256" y="687" on="0"/>
        <pt x="218" y="725" on="0"/>
      </contour>
    </TTGlyph>
    <TTGlyph name="Egrave" xMin="69" yMin="0" xMax="482" yMax="819">
      <contour>
        <pt x="69" y="630" on="1"/>
        <pt x="479" y="630" on="1"/>
        <pt x="479" y="524" on="1"/>
        <pt x="206" y="524" on="1"/>
        <pt x="206" y="380" on="1"/>
        <pt x="453" y="380" on="1"/>
        <pt x="453" y="275" on="1"/>
        <pt x="206" y="275" on="1"/>
        <pt x="206" y="106" on="1"/>
        <pt x="482" y="106" on="1"/>
        <pt x="482" y="0" on="1"/>
        <pt x="69" y="0" on="1"/>
      </contour>
      <contour>
        <pt x="162" y="819" on="1"/>
        <pt x="307" y="819" on="1"/>
        <pt x="387" y="695" on="1"/>
        <pt x="277" y="695" on="1"/>
      </contour>
    </TTGlyph>
    <TTGlyph name="Emacron" xMin="69" yMin="0" xMax="482" yMax="772">
      <contour>
        <pt x="69" y="630" on="1"/>
        <pt x="479" y="630" on="1"/>
        <pt x="479" y="524" on="1"/>
        <pt x="206" y="524" on="1"/>
        <pt x="206" y="380" on="1"/>
        <pt x="453" y="380" on="1"/>
        <pt x="453" y="275" on="1"/>
        <pt x="206" y="275" on="1"/>
        <pt x="206" y="106" on="1"/>
        <pt x="482" y="106" on="1"/>
        <pt x="482" y="0" on="1"/>
        <pt x="69" y="0" on="1"/>
      </contour>
      <contour>
        <pt x="398" y="772" on="1"/>
        <pt x="398" y="695" on="1"/>
        <pt x="142" y="695" on="1"/>
        <pt x="142" y="772" on="1"/>
      </contour>
    </TTGlyph>
    <TTGlyph name="Eng" xMin="69" yMin="-247" xMax="601" yMax="630">
      <contour>
        <pt x="69" y="630" on="1"/>
        <pt x="194" y="630" on="1"/>
        <pt x="411" y="288" on="1"/>
        <pt x="433" y="254" on="0"/>
        <pt x="470" y="189" on="0"/>
        <pt x="478" y="171" on="1"/>
        <pt x="480" y="171" on="1"/>
        <pt x="474" y="236" on="0"/>
        <pt x="474" y="365" on="0"/>
        <pt x="474" y="431" on="1"/>
        <pt x="474" y="630" on="1"/>
        <pt x="601" y="630" on="1"/>
        <pt x="601" y="89" on="1"/>
        <pt x="601" y="30" on="0"/>
        <pt x="584" y="-71" on="0"/>
        <pt x="541" y="-156" on="0"/>
        <pt x="469" y="-223" on="0"/>
        <pt x="414" y="-247" on="1"/>
        <pt x="358" y="-156" on="1"/>
        <pt x="402" y="-129" on="0"/>
        <pt x="460" y="-58" on="0"/>
        <pt x="471" y="-2" on="1"/>
        <pt x="274" y="306" on="1"/>
        <pt x="261" y="326" on="0"/>
        <pt x="236" y="369" on="0"/>
        <pt x="214" y="409" on="0"/>
        <pt x="197" y="442" on="0"/>
        <pt x="193" y="453" on="1"/>
        <pt x="191" y="453" on="1"/>
        <pt x="196" y="384" on="0"/>
        <pt x="197" y="257" on="0"/>
        <pt x="197" y="191" on="1"/>
        <pt x="197" y="0" on="1"/>
        <pt x="69" y="0" on="1"/>
      </contour>
    </TTGlyph>
    <TTGlyph name="Eogonek" xMin="69" yMin="-206" xMax="531" yMax="630">
      <contour>
        <pt x="69" y="630" on="1"/>
        <pt x="479" y="630" on="1"/>
        <pt x="479" y="524" on="1"/>
        <pt x="206" y="524" on="1"/>
        <pt x="206" y="380" on="1"/>
        <pt x="453" y="380" on="1"/>
        <pt x="453" y="275" on="1"/>
        <pt x="206" y="275" on="1"/>
        <pt x="206" y="106" on="1"/>
        <pt x="482" y="106" on="1"/>
        <pt x="482" y="0" on="1"/>
        <pt x="458" y="-18" on="0"/>
        <pt x="427" y="-57" on="0"/>
        <pt x="427" y="-80" on="1"/>
        <pt x="427" y="-100" on="0"/>
        <pt x="451" y="-124" on="0"/>
        <pt x="471" y="-124" on="1"/>
        <pt x="485" y="-124" on="0"/>
        <pt x="505" y="-119" on="0"/>
        <pt x="513" y="-116" on="1"/>
        <pt x="531" y="-184" on="1"/>
        <pt x="498" y="-206" on="0"/>
        <pt x="446" y="-206" on="1"/>
        <pt x="400" y="-206" on="0"/>
        <pt x="339" y="-152" on="0"/>
        <pt x="339" y="-105" on="1"/>
        <pt x="339" y="-70" on="0"/>
        <pt x="371" y="-18" on="0"/>
        <pt x="391" y="-3" on="1"/>
        <pt x="391" y="0" on="1"/>
        <pt x="69" y="0" on="1"/>
      </contour>
    </TTGlyph>
    <TTGlyph name="Esmall" xMin="63" yMin="0" xMax="405" yMax="477">
      <contour>
        <pt x="63" y="477" on="1"/>
        <pt x="403" y="477" on="1"/>
        <pt x="403" y="379" on="1"/>
        <pt x="194" y="379" on="1"/>
        <pt x="194" y="291" on="1"/>
        <pt x="381" y="291" on="1"/>
        <pt x="381" y="194" on="1"/>
        <pt x="194" y="194" on="1"/>
        <pt x="194" y="98" on="1"/>
        <pt x="405" y="98" on="1"/>
        <pt x="405" y="0" on="1"/>
        <pt x="63" y="0" on="1"/>
      </contour>
    </TTGlyph>
    <TTGlyph name="Eth" xMin="22" yMin="0" xMax="653" yMax="630">
      <contour>
        <pt x="327" y="630" on="1"/>
        <pt x="400" y="630" on="0"/>
        <pt x="520" y="592" on="0"/>
        <pt x="606" y="516" on="0"/>
        <pt x="653" y="403" on="0"/>
        <pt x="653" y="328" on="1"/>
        <pt x="653" y="242" on="0"/>
        <pt x="597" y="119" on="0"/>
        <pt x="501" y="38" on="0"/>
        <pt x="372" y="0" on="0"/>
        <pt x="299" y="0" on="1"/>
        <pt x="107" y="0" on="1"/>
        <pt x="107" y="275" on="1"/>
        <pt x="22" y="275" on="1"/>
        <pt x="22" y="367" on="1"/>
        <pt x="107" y="367" on="1"/>
        <pt x="107" y="630" on="1"/>
      </contour>
      <contour>
        <pt x="360" y="367" on="1"/>
        <pt x="360" y="275" on="1"/>
        <pt x="244" y="275" on="1"/>
        <pt x="244" y="106" on="1"/>
        <pt x="290" y="106" on="1"/>
        <pt x="332" y="106" on="0"/>
        <pt x="411" y="127" on="0"/>
        <pt x="472" y="178" on="0"/>
        <pt x="508" y="263" on="0"/>
        <pt x="508" y="328" on="1"/>
        <pt x="508" y="423" on="0"/>
        <pt x="400" y="524" on="0"/>
        <pt x="309" y="524" on="1"/>
        <pt x="244" y="524" on="1"/>
        <pt x="244" y="367" on="1"/>
      </contour>
    </TTGlyph>
    <TTGlyph name="Euro" xMin="5" yMin="-11" xMax="537" yMax="641">
      <contour>
        <pt x="378" y="95" on="1"/>
        <pt x="422" y="95" on="0"/>
        <pt x="485" y="111" on="0"/>
        <pt x="508" y="125" on="1"/>
        <pt x="536" y="25" on="1"/>
        <pt x="512" y="11" on="0"/>
        <pt x="427" y="-11" on="0"/>
        <pt x="363" y="-11" on="1"/>
        <pt x="309" y="-11" on="0"/>
        <pt x="215" y="18" on="0"/>
        <pt x="141" y="74" on="0"/>
        <pt x="88" y="158" on="0"/>
        <pt x="76" y="212" on="1"/>
        <pt x="5" y="212" on="1"/>
        <pt x="5" y="278" on="1"/>
        <pt x="66" y="278" on="1"/>
        <pt x="65" y="289" on="0"/>
        <pt x="65" y="306" on="0"/>
        <pt x="65" y="316" on="1"/>
        <pt x="65" y="330" on="1"/>
        <pt x="5" y="330" on="1"/>
        <pt x="5" y="396" on="1"/>
        <pt x="72" y="396" on="1"/>
        <pt x="92" y="513" on="0"/>
        <pt x="245" y="641" on="0"/>
        <pt x="366" y="641" on="1"/>
        <pt x="431" y="641" on="0"/>
        <pt x="511" y="617" on="0"/>
        <pt x="537" y="603" on="1"/>
        <pt x="506" y="502" on="1"/>
        <pt x="480" y="516" on="0"/>
        <pt x="418" y="535" on="0"/>
        <pt x="380" y="535" on="1"/>
        <pt x="351" y="535" on="0"/>
        <pt x="298" y="520" on="0"/>
        <pt x="255" y="486" on="0"/>
        <pt x="224" y="433" on="0"/>
        <pt x="217" y="396" on="1"/>
        <pt x="457" y="396" on="1"/>
        <pt x="457" y="330" on="1"/>
        <pt x="209" y="330" on="1"/>
        <pt x="209" y="318" on="1"/>
        <pt x="209" y="307" on="0"/>
        <pt x="209" y="289" on="0"/>
        <pt x="210" y="278" on="1"/>
        <pt x="457" y="278" on="1"/>
        <pt x="457" y="212" on="1"/>
        <pt x="223" y="212" on="1"/>
        <pt x="241" y="149" on="0"/>
        <pt x="325" y="95" on="0"/>
      </contour>
    </TTGlyph>
    <TTGlyph name="F" xMin="69" yMin="0" xMax="469" yMax="630">
      <contour>
        <pt x="469" y="630" on="1"/>
        <pt x="469" y="524" on="1"/>
        <pt x="206" y="524" on="1"/>
        <pt x="206" y="357" on="1"/>
        <pt x="447" y="357" on="1"/>
        <pt x="447" y="252" on="1"/>
        <pt x="206" y="252" on="1"/>
        <pt x="206" y="0" on="1"/>
        <pt x="69" y="0" on="1"/>
        <pt x="69" y="630" on="1"/>
      </contour>
    </TTGlyph>
    <TTGlyph name="Fsmall" xMin="63" yMin="0" xMax="394" yMax="477">
      <contour>
        <pt x="394" y="477" on="1"/>
        <pt x="394" y="379" on="1"/>
        <pt x="196" y="379" on="1"/>
        <pt x="196" y="272" on="1"/>
        <pt x="376" y="272" on="1"/>
        <pt x="376" y="174" on="1"/>
        <pt x="196" y="174" on="1"/>
        <pt x="196" y="0" on="1"/>
        <pt x="63" y="0" on="1"/>
        <pt x="63" y="477" on="1"/>
      </contour>
    </TTGlyph>
    <TTGlyph name="G" xMin="40" yMin="-11" xMax="581" yMax="641">
      <contour>
        <pt x="371" y="641" on="1"/>
        <pt x="430" y="641" on="0"/>
        <pt x="522" y="621" on="0"/>
        <pt x="559" y="604" on="1"/>
        <pt x="530" y="511" on="1"/>
        <pt x="495" y="528" on="0"/>
        <pt x="421" y="544" on="0"/>
        <pt x="385" y="544" on="1"/>
        <pt x="344" y="544" on="0"/>
        <pt x="271" y="518" on="0"/>
        <pt x="217" y="462" on="0"/>
        <pt x="185" y="375" on="0"/>
        <pt x="185" y="314" on="1"/>
        <pt x="185" y="205" on="0"/>
        <pt x="282" y="88" on="0"/>
        <pt x="372" y="88" on="1"/>
        <pt x="424" y="88" on="0"/>
        <pt x="450" y="98" on="1"/>
        <pt x="450" y="245" on="1"/>
        <pt x="346" y="245" on="1"/>
        <pt x="346" y="347" on="1"/>
        <pt x="581" y="347" on="1"/>
        <pt x="581" y="28" on="1"/>
        <pt x="542" y="11" on="0"/>
        <pt x="438" y="-11" on="0"/>
        <pt x="371" y="-11" on="1"/>
        <pt x="301" y="-11" on="0"/>
        <pt x="180" y="31" on="0"/>
        <pt x="91" y="114" on="0"/>
        <pt x="40" y="235" on="0"/>
        <pt x="40" y="314" on="1"/>
        <pt x="40" y="393" on="0"/>
        <pt x="91" y="516" on="0"/>
        <pt x="179" y="598" on="0"/>
        <pt x="300" y="641" on="0"/>
      </contour>
    </TTGlyph>
    <TTGlyph name="Gbreve" xMin="40" yMin="-11" xMax="581" yMax="822">
      <contour>
        <pt x="371" y="641" on="1"/>
        <pt x="430" y="641" on="0"/>
        <pt x="522" y="621" on="0"/>
        <pt x="559" y="604" on="1"/>
        <pt x="530" y="511" on="1"/>
        <pt x="495" y="528" on="0"/>
        <pt x="421" y="544" on="0"/>
        <pt x="385" y="544" on="1"/>
        <pt x="344" y="544" on="0"/>
        <pt x="271" y="518" on="0"/>
        <pt x="217" y="462" on="0"/>
        <pt x="185" y="375" on="0"/>
        <pt x="185" y="314" on="1"/>
        <pt x="185" y="205" on="0"/>
        <pt x="282" y="88" on="0"/>
        <pt x="372" y="88" on="1"/>
        <pt x="424" y="88" on="0"/>
        <pt x="450" y="98" on="1"/>
        <pt x="450" y="245" on="1"/>
        <pt x="346" y="245" on="1"/>
        <pt x="346" y="347" on="1"/>
        <pt x="581" y="347" on="1"/>
        <pt x="581" y="28" on="1"/>
        <pt x="542" y="11" on="0"/>
        <pt x="438" y="-11" on="0"/>
        <pt x="371" y="-11" on="1"/>
        <pt x="301" y="-11" on="0"/>
        <pt x="180" y="31" on="0"/>
        <pt x="91" y="114" on="0"/>
        <pt x="40" y="235" on="0"/>
        <pt x="40" y="314" on="1"/>
        <pt x="40" y="393" on="0"/>
        <pt x="91" y="516" on="0"/>
        <pt x="179" y="598" on="0"/>
        <pt x="300" y="641" on="0"/>
      </contour>
      <contour>
        <pt x="315" y="822" on="1"/>
        <pt x="317" y="797" on="0"/>
        <pt x="342" y="767" on="0"/>
        <pt x="372" y="767" on="1"/>
        <pt x="426" y="767" on="0"/>
        <pt x="429" y="822" on="1"/>
        <pt x="506" y="822" on="1"/>
        <pt x="506" y="762" on="0"/>
        <pt x="437" y="694" on="0"/>
        <pt x="372" y="694" on="1"/>
        <pt x="336" y="694" on="0"/>
        <pt x="285" y="715" on="0"/>
        <pt x="252" y="750" on="0"/>
        <pt x="237" y="796" on="0"/>
        <pt x="237" y="822" on="1"/>
      </contour>
    </TTGlyph>
    <TTGlyph name="Gcircumflex" xMin="40" yMin="-11" xMax="581" yMax="821">
      <contour>
        <pt x="371" y="641" on="1"/>
        <pt x="430" y="641" on="0"/>
        <pt x="522" y="621" on="0"/>
        <pt x="559" y="604" on="1"/>
        <pt x="530" y="511" on="1"/>
        <pt x="495" y="528" on="0"/>
        <pt x="421" y="544" on="0"/>
        <pt x="385" y="544" on="1"/>
        <pt x="344" y="544" on="0"/>
        <pt x="271" y="518" on="0"/>
        <pt x="217" y="462" on="0"/>
        <pt x="185" y="375" on="0"/>
        <pt x="185" y="314" on="1"/>
        <pt x="185" y="205" on="0"/>
        <pt x="282" y="88" on="0"/>
        <pt x="372" y="88" on="1"/>
        <pt x="424" y="88" on="0"/>
        <pt x="450" y="98" on="1"/>
        <pt x="450" y="245" on="1"/>
        <pt x="346" y="245" on="1"/>
        <pt x="346" y="347" on="1"/>
        <pt x="581" y="347" on="1"/>
        <pt x="581" y="28" on="1"/>
        <pt x="542" y="11" on="0"/>
        <pt x="438" y="-11" on="0"/>
        <pt x="371" y="-11" on="1"/>
        <pt x="301" y="-11" on="0"/>
        <pt x="180" y="31" on="0"/>
        <pt x="91" y="114" on="0"/>
        <pt x="40" y="235" on="0"/>
        <pt x="40" y="314" on="1"/>
        <pt x="40" y="393" on="0"/>
        <pt x="91" y="516" on="0"/>
        <pt x="179" y="598" on="0"/>
        <pt x="300" y="641" on="0"/>
      </contour>
      <contour>
        <pt x="296" y="821" on="1"/>
        <pt x="395" y="821" on="1"/>
        <pt x="513" y="695" on="1"/>
        <pt x="410" y="695" on="1"/>
        <pt x="345" y="764" on="1"/>
        <pt x="280" y="695" on="1"/>
        <pt x="182" y="695" on="1"/>
      </contour>
    </TTGlyph>
    <TTGlyph name="Gcommaaccent" xMin="40" yMin="-334" xMax="581" yMax="641">
      <contour>
        <pt x="371" y="641" on="1"/>
        <pt x="430" y="641" on="0"/>
        <pt x="522" y="621" on="0"/>
        <pt x="559" y="604" on="1"/>
        <pt x="530" y="511" on="1"/>
        <pt x="495" y="528" on="0"/>
        <pt x="421" y="544" on="0"/>
        <pt x="385" y="544" on="1"/>
        <pt x="344" y="544" on="0"/>
        <pt x="271" y="518" on="0"/>
        <pt x="217" y="462" on="0"/>
        <pt x="185" y="375" on="0"/>
        <pt x="185" y="314" on="1"/>
        <pt x="185" y="205" on="0"/>
        <pt x="282" y="88" on="0"/>
        <pt x="372" y="88" on="1"/>
        <pt x="424" y="88" on="0"/>
        <pt x="450" y="98" on="1"/>
        <pt x="450" y="245" on="1"/>
        <pt x="346" y="245" on="1"/>
        <pt x="346" y="347" on="1"/>
        <pt x="581" y="347" on="1"/>
        <pt x="581" y="28" on="1"/>
        <pt x="542" y="11" on="0"/>
        <pt x="438" y="-11" on="0"/>
        <pt x="371" y="-11" on="1"/>
        <pt x="301" y="-11" on="0"/>
        <pt x="180" y="31" on="0"/>
        <pt x="91" y="114" on="0"/>
        <pt x="40" y="235" on="0"/>
        <pt x="40" y="314" on="1"/>
        <pt x="40" y="393" on="0"/>
        <pt x="91" y="516" on="0"/>
        <pt x="179" y="598" on="0"/>
        <pt x="300" y="641" on="0"/>
      </contour>
      <contour>
        <pt x="361" y="-198" on="1"/>
        <pt x="336" y="-193" on="0"/>
        <pt x="302" y="-158" on="0"/>
        <pt x="302" y="-131" on="1"/>
        <pt x="302" y="-105" on="0"/>
        <pt x="338" y="-64" on="0"/>
        <pt x="370" y="-64" on="1"/>
        <pt x="383" y="-64" on="0"/>
        <pt x="411" y="-75" on="0"/>
        <pt x="434" y="-98" on="0"/>
        <pt x="449" y="-136" on="0"/>
        <pt x="449" y="-163" on="1"/>
        <pt x="449" y="-191" on="0"/>
        <pt x="430" y="-243" on="0"/>
        <pt x="399" y="-288" on="0"/>
        <pt x="359" y="-323" on="0"/>
        <pt x="337" y="-334" on="1"/>
        <pt x="306" y="-293" on="1"/>
        <pt x="332" y="-278" on="0"/>
        <pt x="373" y="-229" on="0"/>
        <pt x="378" y="-201" on="1"/>
      </contour>
    </TTGlyph>
    <TTGlyph name="Gdotaccent" xMin="40" yMin="-11" xMax="581" yMax="816">
      <contour>
        <pt x="371" y="641" on="1"/>
        <pt x="430" y="641" on="0"/>
        <pt x="522" y="621" on="0"/>
        <pt x="559" y="604" on="1"/>
        <pt x="530" y="511" on="1"/>
        <pt x="495" y="528" on="0"/>
        <pt x="421" y="544" on="0"/>
        <pt x="385" y="544" on="1"/>
        <pt x="344" y="544" on="0"/>
        <pt x="271" y="518" on="0"/>
        <pt x="217" y="462" on="0"/>
        <pt x="185" y="375" on="0"/>
        <pt x="185" y="314" on="1"/>
        <pt x="185" y="205" on="0"/>
        <pt x="282" y="88" on="0"/>
        <pt x="372" y="88" on="1"/>
        <pt x="424" y="88" on="0"/>
        <pt x="450" y="98" on="1"/>
        <pt x="450" y="245" on="1"/>
        <pt x="346" y="245" on="1"/>
        <pt x="346" y="347" on="1"/>
        <pt x="581" y="347" on="1"/>
        <pt x="581" y="28" on="1"/>
        <pt x="542" y="11" on="0"/>
        <pt x="438" y="-11" on="0"/>
        <pt x="371" y="-11" on="1"/>
        <pt x="301" y="-11" on="0"/>
        <pt x="180" y="31" on="0"/>
        <pt x="91" y="114" on="0"/>
        <pt x="40" y="235" on="0"/>
        <pt x="40" y="314" on="1"/>
        <pt x="40" y="393" on="0"/>
        <pt x="91" y="516" on="0"/>
        <pt x="179" y="598" on="0"/>
        <pt x="300" y="641" on="0"/>
      </contour>
      <contour>
        <pt x="306" y="753" on="1"/>
        <pt x="306" y="779" on="0"/>
        <pt x="345" y="816" on="0"/>
        <pt x="371" y="816" on="1"/>
        <pt x="399" y="816" on="0"/>
        <pt x="436" y="779" on="0"/>
        <pt x="436" y="753" on="1"/>
        <pt x="436" y="725" on="0"/>
        <pt x="399" y="687" on="0"/>
        <pt x="371" y="687" on="1"/>
        <pt x="345" y="687" on="0"/>
        <pt x="306" y="725" on="0"/>
      </contour>
    </TTGlyph>
    <TTGlyph name="Grave" xMin="14" yMin="695" xMax="238" yMax="819">
      <contour>
        <pt x="14" y="819" on="1"/>
        <pt x="158" y="819" on="1"/>
        <pt x="238" y="695" on="1"/>
        <pt x="129" y="695" on="1"/>
      </contour>
    </TTGlyph>
    <TTGlyph name="Gsmall" xMin="40" yMin="-11" xMax="468" yMax="487">
      <contour>
        <pt x="305" y="87" on="1"/>
        <pt x="316" y="87" on="0"/>
        <pt x="342" y="91" on="0"/>
        <pt x="350" y="94" on="1"/>
        <pt x="350" y="174" on="1"/>
        <pt x="275" y="174" on="1"/>
        <pt x="275" y="269" on="1"/>
        <pt x="468" y="269" on="1"/>
        <pt x="468" y="17" on="1"/>
        <pt x="433" y="3" on="0"/>
        <pt x="345" y="-11" on="0"/>
        <pt x="298" y="-11" on="1"/>
        <pt x="243" y="-11" on="0"/>
        <pt x="149" y="20" on="0"/>
        <pt x="80" y="81" on="0"/>
        <pt x="40" y="173" on="0"/>
        <pt x="40" y="234" on="1"/>
        <pt x="40" y="292" on="0"/>
        <pt x="78" y="385" on="0"/>
        <pt x="146" y="451" on="0"/>
        <pt x="242" y="487" on="0"/>
        <pt x="299" y="487" on="1"/>
        <pt x="338" y="487" on="0"/>
        <pt x="416" y="474" on="0"/>
        <pt x="454" y="456" on="1"/>
        <pt x="428" y="364" on="1"/>
        <pt x="403" y="377" on="0"/>
        <pt x="345" y="390" on="0"/>
        <pt x="316" y="390" on="1"/>
        <pt x="248" y="390" on="0"/>
        <pt x="175" y="309" on="0"/>
        <pt x="175" y="237" on="1"/>
        <pt x="175" y="195" on="0"/>
        <pt x="197" y="137" on="0"/>
        <pt x="233" y="102" on="0"/>
        <pt x="280" y="87" on="0"/>
      </contour>
    </TTGlyph>
    <TTGlyph name="H" xMin="69" yMin="0" xMax="582" yMax="630">
      <contour>
        <pt x="69" y="0" on="1"/>
        <pt x="69" y="630" on="1"/>
        <pt x="206" y="630" on="1"/>
        <pt x="206" y="380" on="1"/>
        <pt x="445" y="380" on="1"/>
        <pt x="445" y="630" on="1"/>
        <pt x="582" y="630" on="1"/>
        <pt x="582" y="0" on="1"/>
        <pt x="445" y="0" on="1"/>
        <pt x="445" y="272" on="1"/>
        <pt x="206" y="272" on="1"/>
        <pt x="206" y="0" on="1"/>
      </contour>
    </TTGlyph>
    <TTGlyph name="Hbar" xMin="20" yMin="0" xMax="653" yMax="630">
      <contour>
        <pt x="80" y="0" on="1"/>
        <pt x="80" y="473" on="1"/>
        <pt x="20" y="473" on="1"/>
        <pt x="20" y="557" on="1"/>
        <pt x="80" y="557" on="1"/>
        <pt x="80" y="630" on="1"/>
        <pt x="217" y="630" on="1"/>
        <pt x="217" y="557" on="1"/>
        <pt x="456" y="557" on="1"/>
        <pt x="456" y="630" on="1"/>
        <pt x="593" y="630" on="1"/>
        <pt x="593" y="557" on="1"/>
        <pt x="653" y="557" on="1"/>
        <pt x="653" y="473" on="1"/>
        <pt x="593" y="473" on="1"/>
        <pt x="593" y="0" on="1"/>
        <pt x="456" y="0" on="1"/>
        <pt x="456" y="272" on="1"/>
        <pt x="217" y="272" on="1"/>
        <pt x="217" y="0" on="1"/>
      </contour>
      <contour>
        <pt x="456" y="380" on="1"/>
        <pt x="456" y="473" on="1"/>
        <pt x="217" y="473" on="1"/>
        <pt x="217" y="380" on="1"/>
      </contour>
    </TTGlyph>
    <TTGlyph name="Hcircumflex" xMin="69" yMin="0" xMax="582" yMax="821">
      <contour>
        <pt x="69" y="0" on="1"/>
        <pt x="69" y="630" on="1"/>
        <pt x="206" y="630" on="1"/>
        <pt x="206" y="380" on="1"/>
        <pt x="445" y="380" on="1"/>
        <pt x="445" y="630" on="1"/>
        <pt x="582" y="630" on="1"/>
        <pt x="582" y="0" on="1"/>
        <pt x="445" y="0" on="1"/>
        <pt x="445" y="272" on="1"/>
        <pt x="206" y="272" on="1"/>
        <pt x="206" y="0" on="1"/>
      </contour>
      <contour>
        <pt x="280" y="821" on="1"/>
        <pt x="379" y="821" on="1"/>
        <pt x="496" y="695" on="1"/>
        <pt x="394" y="695" on="1"/>
        <pt x="329" y="764" on="1"/>
        <pt x="264" y="695" on="1"/>
        <pt x="165" y="695" on="1"/>
      </contour>
    </TTGlyph>
    <TTGlyph name="Hsmall" xMin="63" yMin="0" xMax="499" yMax="477">
      <contour>
        <pt x="63" y="0" on="1"/>
        <pt x="63" y="477" on="1"/>
        <pt x="193" y="477" on="1"/>
        <pt x="193" y="298" on="1"/>
        <pt x="368" y="298" on="1"/>
        <pt x="368" y="477" on="1"/>
        <pt x="499" y="477" on="1"/>
        <pt x="499" y="0" on="1"/>
        <pt x="368" y="0" on="1"/>
        <pt x="368" y="200" on="1"/>
        <pt x="193" y="200" on="1"/>
        <pt x="193" y="0" on="1"/>
      </contour>
    </TTGlyph>
    <TTGlyph name="Hungarumlaut" xMin="22" yMin="695" xMax="443" yMax="819">
      <contour>
        <pt x="124" y="695" on="1"/>
        <pt x="22" y="695" on="1"/>
        <pt x="102" y="819" on="1"/>
        <pt x="234" y="819" on="1"/>
      </contour>
      <contour>
        <pt x="333" y="695" on="1"/>
        <pt x="231" y="695" on="1"/>
        <pt x="311" y="819" on="1"/>
        <pt x="443" y="819" on="1"/>
      </contour>
    </TTGlyph>
    <TTGlyph name="I" xMin="69" yMin="0" xMax="206" yMax="630">
      <contour>
        <pt x="206" y="630" on="1"/>
        <pt x="206" y="0" on="1"/>
        <pt x="69" y="0" on="1"/>
        <pt x="69" y="630" on="1"/>
      </contour>
    </TTGlyph>
    <TTGlyph name="IJ" xMin="69" yMin="-170" xMax="479" yMax="630">
      <contour>
        <pt x="206" y="630" on="1"/>
        <pt x="206" y="0" on="1"/>
        <pt x="69" y="0" on="1"/>
        <pt x="69" y="630" on="1"/>
      </contour>
      <contour>
        <pt x="479" y="630" on="1"/>
        <pt x="479" y="115" on="1"/>
        <pt x="479" y="76" on="0"/>
        <pt x="475" y="13" on="0"/>
        <pt x="463" y="-39" on="0"/>
        <pt x="442" y="-81" on="0"/>
        <pt x="426" y="-100" on="1"/>
        <pt x="393" y="-139" on="0"/>
        <pt x="293" y="-170" on="0"/>
        <pt x="237" y="-170" on="1"/>
        <pt x="237" y="-65" on="1"/>
        <pt x="263" y="-65" on="0"/>
        <pt x="301" y="-49" on="0"/>
        <pt x="313" y="-37" on="1"/>
        <pt x="331" y="-21" on="0"/>
        <pt x="342" y="31" on="0"/>
        <pt x="342" y="63" on="1"/>
        <pt x="342" y="630" on="1"/>
      </contour>
    </TTGlyph>
    <TTGlyph name="I_02" xMin="-10" yMin="0" xMax="672" yMax="863">
      <contour>
        <pt x="72" y="545" on="1"/>
        <pt x="-10" y="545" on="1"/>
        <pt x="-10" y="639" on="1"/>
        <pt x="57" y="639" on="1"/>
        <pt x="52" y="649" on="0"/>
        <pt x="43" y="680" on="0"/>
        <pt x="43" y="700" on="1"/>
        <pt x="43" y="734" on="0"/>
        <pt x="74" y="793" on="0"/>
        <pt x="132" y="837" on="0"/>
        <pt x="216" y="863" on="0"/>
        <pt x="269" y="863" on="1"/>
        <pt x="344" y="863" on="0"/>
        <pt x="466" y="819" on="0"/>
        <pt x="563" y="752" on="0"/>
        <pt x="637" y="670" on="0"/>
        <pt x="665" y="632" on="1"/>
        <pt x="672" y="622" on="1"/>
        <pt x="589" y="575" on="1"/>
        <pt x="580" y="587" on="1"/>
        <pt x="556" y="616" on="0"/>
        <pt x="496" y="679" on="0"/>
        <pt x="422" y="731" on="0"/>
        <pt x="333" y="765" on="0"/>
        <pt x="281" y="765" on="1"/>
        <pt x="224" y="765" on="0"/>
        <pt x="169" y="713" on="0"/>
        <pt x="169" y="677" on="1"/>
        <pt x="169" y="651" on="0"/>
        <pt x="173" y="639" on="1"/>
        <pt x="278" y="639" on="1"/>
        <pt x="278" y="545" on="1"/>
        <pt x="195" y="545" on="1"/>
        <pt x="195" y="0" on="1"/>
        <pt x="72" y="0" on="1"/>
      </contour>
    </TTGlyph>
    <TTGlyph name="I_03" xMin="-10" yMin="0" xMax="736" yMax="863">
      <contour>
        <pt x="72" y="545" on="1"/>
        <pt x="-10" y="545" on="1"/>
        <pt x="-10" y="639" on="1"/>
        <pt x="57" y="639" on="1"/>
        <pt x="51" y="649" on="0"/>
        <pt x="44" y="679" on="0"/>
        <pt x="44" y="693" on="1"/>
        <pt x="44" y="732" on="0"/>
        <pt x="79" y="794" on="0"/>
        <pt x="142" y="839" on="0"/>
        <pt x="230" y="863" on="0"/>
        <pt x="284" y="863" on="1"/>
        <pt x="365" y="863" on="0"/>
        <pt x="503" y="819" on="0"/>
        <pt x="614" y="752" on="0"/>
        <pt x="699" y="670" on="0"/>
        <pt x="728" y="632" on="1"/>
        <pt x="736" y="622" on="1"/>
        <pt x="654" y="570" on="1"/>
        <pt x="643" y="583" on="1"/>
        <pt x="612" y="618" on="0"/>
        <pt x="539" y="683" on="0"/>
        <pt x="454" y="734" on="0"/>
        <pt x="357" y="765" on="0"/>
        <pt x="303" y="765" on="1"/>
        <pt x="233" y="765" on="0"/>
        <pt x="169" y="712" on="0"/>
        <pt x="169" y="667" on="1"/>
        <pt x="169" y="651" on="0"/>
        <pt x="174" y="639" on="1"/>
        <pt x="278" y="639" on="1"/>
        <pt x="278" y="545" on="1"/>
        <pt x="195" y="545" on="1"/>
        <pt x="195" y="0" on="1"/>
        <pt x="72" y="0" on="1"/>
      </contour>
    </TTGlyph>
    <TTGlyph name="I_04" xMin="-10" yMin="0" xMax="779" yMax="867">
      <contour>
        <pt x="72" y="545" on="1"/>
        <pt x="-10" y="545" on="1"/>
        <pt x="-10" y="639" on="1"/>
        <pt x="65" y="639" on="1"/>
        <pt x="60" y="649" on="0"/>
        <pt x="51" y="679" on="0"/>
        <pt x="51" y="698" on="1"/>
        <pt x="51" y="736" on="0"/>
        <pt x="90" y="799" on="0"/>
        <pt x="161" y="843" on="0"/>
        <pt x="258" y="867" on="0"/>
        <pt x="316" y="867" on="1"/>
        <pt x="399" y="867" on="0"/>
        <pt x="540" y="827" on="0"/>
        <pt x="654" y="761" on="0"/>
        <pt x="742" y="677" on="0"/>
        <pt x="772" y="634" on="1"/>
        <pt x="779" y="623" on="1"/>
        <pt x="698" y="573" on="1"/>
        <pt x="686" y="588" on="1"/>
        <pt x="659" y="619" on="0"/>
        <pt x="588" y="683" on="0"/>
        <pt x="498" y="734" on="0"/>
        <pt x="391" y="767" on="0"/>
        <pt x="328" y="767" on="1"/>
        <pt x="253" y="767" on="0"/>
        <pt x="177" y="713" on="0"/>
        <pt x="177" y="671" on="1"/>
        <pt x="177" y="651" on="0"/>
        <pt x="181" y="639" on="1"/>
        <pt x="278" y="639" on="1"/>
        <pt x="278" y="545" on="1"/>
        <pt x="195" y="545" on="1"/>
        <pt x="195" y="0" on="1"/>
        <pt x="72" y="0" on="1"/>
      </contour>
    </TTGlyph>
    <TTGlyph name="I_05" xMin="-10" yMin="0" xMax="800" yMax="867">
      <contour>
        <pt x="72" y="545" on="1"/>
        <pt x="-10" y="545" on="1"/>
        <pt x="-10" y="639" on="1"/>
        <pt x="65" y="639" on="1"/>
        <pt x="60" y="649" on="0"/>
        <pt x="51" y="680" on="0"/>
        <pt x="51" y="698" on="1"/>
        <pt x="51" y="736" on="0"/>
        <pt x="92" y="798" on="0"/>
        <pt x="165" y="843" on="0"/>
        <pt x="266" y="867" on="0"/>
        <pt x="326" y="867" on="1"/>
        <pt x="411" y="867" on="0"/>
        <pt x="554" y="825" on="0"/>
        <pt x="670" y="759" on="0"/>
        <pt x="759" y="676" on="0"/>
        <pt x="791" y="635" on="1"/>
        <pt x="800" y="623" on="1"/>
        <pt x="726" y="566" on="1"/>
        <pt x="714" y="580" on="1"/>
        <pt x="687" y="612" on="0"/>
        <pt x="611" y="678" on="0"/>
        <pt x="516" y="732" on="0"/>
        <pt x="403" y="767" on="0"/>
        <pt x="338" y="767" on="1"/>
        <pt x="258" y="767" on="0"/>
        <pt x="177" y="712" on="0"/>
        <pt x="177" y="671" on="1"/>
        <pt x="177" y="651" on="0"/>
        <pt x="181" y="639" on="1"/>
        <pt x="278" y="639" on="1"/>
        <pt x="278" y="545" on="1"/>
        <pt x="195" y="545" on="1"/>
        <pt x="195" y="0" on="1"/>
        <pt x="72" y="0" on="1"/>
      </contour>
    </TTGlyph>
    <TTGlyph name="I_06" xMin="-10" yMin="0" xMax="849" yMax="867">
      <contour>
        <pt x="72" y="545" on="1"/>
        <pt x="-10" y="545" on="1"/>
        <pt x="-10" y="639" on="1"/>
        <pt x="66" y="639" on="1"/>
        <pt x="60" y="649" on="0"/>
        <pt x="52" y="680" on="0"/>
        <pt x="52" y="698" on="1"/>
        <pt x="52" y="736" on="0"/>
        <pt x="93" y="798" on="0"/>
        <pt x="165" y="843" on="0"/>
        <pt x="266" y="867" on="0"/>
        <pt x="326" y="867" on="1"/>
        <pt x="422" y="867" on="0"/>
        <pt x="582" y="827" on="0"/>
        <pt x="711" y="762" on="0"/>
        <pt x="807" y="678" on="0"/>
        <pt x="840" y="634" on="1"/>
        <pt x="849" y="622" on="1"/>
        <pt x="776" y="567" on="1"/>
        <pt x="764" y="581" on="1"/>
        <pt x="736" y="615" on="0"/>
        <pt x="651" y="682" on="0"/>
        <pt x="543" y="734" on="0"/>
        <pt x="412" y="767" on="0"/>
        <pt x="338" y="767" on="1"/>
        <pt x="258" y="767" on="0"/>
        <pt x="177" y="712" on="0"/>
        <pt x="177" y="671" on="1"/>
        <pt x="177" y="650" on="0"/>
        <pt x="182" y="639" on="1"/>
        <pt x="278" y="639" on="1"/>
        <pt x="278" y="545" on="1"/>
        <pt x="195" y="545" on="1"/>
        <pt x="195" y="0" on="1"/>
        <pt x="72" y="0" on="1"/>
      </contour>
    </TTGlyph>
    <TTGlyph name="I_07" xMin="-10" yMin="0" xMax="889" yMax="867">
      <contour>
        <pt x="72" y="545" on="1"/>
        <pt x="-10" y="545" on="1"/>
        <pt x="-10" y="639" on="1"/>
        <pt x="66" y="639" on="1"/>
        <pt x="60" y="649" on="0"/>
        <pt x="52" y="679" on="0"/>
        <pt x="52" y="697" on="1"/>
        <pt x="52" y="735" on="0"/>
        <pt x="94" y="797" on="0"/>
        <pt x="170" y="842" on="0"/>
        <pt x="278" y="867" on="0"/>
        <pt x="343" y="867" on="1"/>
        <pt x="442" y="867" on="0"/>
        <pt x="609" y="826" on="0"/>
        <pt x="744" y="760" on="0"/>
        <pt x="845" y="677" on="0"/>
        <pt x="878" y="635" on="1"/>
        <pt x="889" y="622" on="1"/>
        <pt x="816" y="567" on="1"/>
        <pt x="804" y="580" on="1"/>
        <pt x="772" y="614" on="0"/>
        <pt x="683" y="682" on="0"/>
        <pt x="569" y="735" on="0"/>
        <pt x="433" y="768" on="0"/>
        <pt x="355" y="768" on="1"/>
        <pt x="310" y="768" on="0"/>
        <pt x="243" y="751" on="0"/>
        <pt x="199" y="722" on="0"/>
        <pt x="177" y="685" on="0"/>
        <pt x="177" y="665" on="1"/>
        <pt x="177" y="648" on="0"/>
        <pt x="181" y="639" on="1"/>
        <pt x="278" y="639" on="1"/>
        <pt x="278" y="545" on="1"/>
        <pt x="195" y="545" on="1"/>
        <pt x="195" y="0" on="1"/>
        <pt x="72" y="0" on="1"/>
      </contour>
    </TTGlyph>
    <TTGlyph name="I_08" xMin="-10" yMin="0" xMax="928" yMax="867">
      <contour>
        <pt x="72" y="545" on="1"/>
        <pt x="-10" y="545" on="1"/>
        <pt x="-10" y="639" on="1"/>
        <pt x="65" y="639" on="1"/>
        <pt x="60" y="649" on="0"/>
        <pt x="51" y="679" on="0"/>
        <pt x="51" y="697" on="1"/>
        <pt x="51" y="735" on="0"/>
        <pt x="94" y="797" on="0"/>
        <pt x="173" y="842" on="0"/>
        <pt x="283" y="867" on="0"/>
        <pt x="349" y="867" on="1"/>
        <pt x="457" y="867" on="0"/>
        <pt x="636" y="824" on="0"/>
        <pt x="777" y="757" on="0"/>
        <pt x="882" y="674" on="0"/>
        <pt x="918" y="635" on="1"/>
        <pt x="928" y="623" on="1"/>
        <pt x="857" y="567" on="1"/>
        <pt x="844" y="580" on="1"/>
        <pt x="809" y="612" on="0"/>
        <pt x="715" y="679" on="0"/>
        <pt x="595" y="733" on="0"/>
        <pt x="448" y="767" on="0"/>
        <pt x="361" y="767" on="1"/>
        <pt x="314" y="767" on="0"/>
        <pt x="245" y="751" on="0"/>
        <pt x="199" y="723" on="0"/>
        <pt x="177" y="686" on="0"/>
        <pt x="177" y="666" on="1"/>
        <pt x="177" y="658" on="0"/>
        <pt x="178" y="645" on="0"/>
        <pt x="180" y="639" on="1"/>
        <pt x="278" y="639" on="1"/>
        <pt x="278" y="545" on="1"/>
        <pt x="195" y="545" on="1"/>
        <pt x="195" y="0" on="1"/>
        <pt x="72" y="0" on="1"/>
      </contour>
    </TTGlyph>
    <TTGlyph name="I_09" xMin="-10" yMin="0" xMax="970" yMax="867">
      <contour>
        <pt x="72" y="545" on="1"/>
        <pt x="-10" y="545" on="1"/>
        <pt x="-10" y="639" on="1"/>
        <pt x="65" y="639" on="1"/>
        <pt x="60" y="649" on="0"/>
        <pt x="51" y="679" on="0"/>
        <pt x="51" y="698" on="1"/>
        <pt x="51" y="736" on="0"/>
        <pt x="97" y="798" on="0"/>
        <pt x="180" y="843" on="0"/>
        <pt x="296" y="867" on="0"/>
        <pt x="367" y="867" on="1"/>
        <pt x="477" y="867" on="0"/>
        <pt x="661" y="828" on="0"/>
        <pt x="809" y="763" on="0"/>
        <pt x="921" y="680" on="0"/>
        <pt x="959" y="635" on="1"/>
        <pt x="970" y="622" on="1"/>
        <pt x="898" y="567" on="1"/>
        <pt x="884" y="581" on="1"/>
        <pt x="851" y="615" on="0"/>
        <pt x="752" y="682" on="0"/>
        <pt x="625" y="734" on="0"/>
        <pt x="469" y="767" on="0"/>
        <pt x="379" y="767" on="1"/>
        <pt x="327" y="767" on="0"/>
        <pt x="251" y="751" on="0"/>
        <pt x="201" y="724" on="0"/>
        <pt x="177" y="687" on="0"/>
        <pt x="177" y="667" on="1"/>
        <pt x="177" y="659" on="0"/>
        <pt x="178" y="645" on="0"/>
        <pt x="180" y="639" on="1"/>
        <pt x="278" y="639" on="1"/>
        <pt x="278" y="545" on="1"/>
        <pt x="195" y="545" on="1"/>
        <pt x="195" y="0" on="1"/>
        <pt x="72" y="0" on="1"/>
      </contour>
    </TTGlyph>
    <TTGlyph name="I_10" xMin="-10" yMin="0" xMax="992" yMax="867">
      <contour>
        <pt x="72" y="545" on="1"/>
        <pt x="-10" y="545" on="1"/>
        <pt x="-10" y="639" on="1"/>
        <pt x="54" y="639" on="1"/>
        <pt x="49" y="648" on="0"/>
        <pt x="41" y="677" on="0"/>
        <pt x="41" y="695" on="1"/>
        <pt x="41" y="733" on="0"/>
        <pt x="84" y="796" on="0"/>
        <pt x="166" y="842" on="0"/>
        <pt x="284" y="867" on="0"/>
        <pt x="359" y="867" on="1"/>
        <pt x="472" y="867" on="0"/>
        <pt x="666" y="823" on="0"/>
        <pt x="824" y="754" on="0"/>
        <pt x="943" y="672" on="0"/>
        <pt x="981" y="634" on="1"/>
        <pt x="992" y="623" on="1"/>
        <pt x="919" y="568" on="1"/>
        <pt x="904" y="580" on="1"/>
        <pt x="869" y="610" on="0"/>
        <pt x="761" y="675" on="0"/>
        <pt x="624" y="731" on="0"/>
        <pt x="461" y="767" on="0"/>
        <pt x="371" y="767" on="1"/>
        <pt x="317" y="767" on="0"/>
        <pt x="240" y="751" on="0"/>
        <pt x="191" y="724" on="0"/>
        <pt x="168" y="687" on="0"/>
        <pt x="168" y="667" on="1"/>
        <pt x="168" y="660" on="0"/>
        <pt x="169" y="646" on="0"/>
        <pt x="171" y="639" on="1"/>
        <pt x="278" y="639" on="1"/>
        <pt x="278" y="545" on="1"/>
        <pt x="195" y="545" on="1"/>
        <pt x="195" y="0" on="1"/>
        <pt x="72" y="0" on="1"/>
      </contour>
    </TTGlyph>
    <TTGlyph name="I_11" xMin="-10" yMin="0" xMax="1059" yMax="867">
      <contour>
        <pt x="72" y="545" on="1"/>
        <pt x="-10" y="545" on="1"/>
        <pt x="-10" y="639" on="1"/>
        <pt x="54" y="639" on="1"/>
        <pt x="49" y="648" on="0"/>
        <pt x="41" y="675" on="0"/>
        <pt x="41" y="692" on="1"/>
        <pt x="41" y="731" on="0"/>
        <pt x="88" y="796" on="0"/>
        <pt x="175" y="842" on="0"/>
        <pt x="298" y="867" on="0"/>
        <pt x="375" y="867" on="1"/>
        <pt x="497" y="867" on="0"/>
        <pt x="707" y="825" on="0"/>
        <pt x="877" y="758" on="0"/>
        <pt x="1007" y="675" on="0"/>
        <pt x="1050" y="634" on="1"/>
        <pt x="1059" y="625" on="1"/>
        <pt x="987" y="568" on="1"/>
        <pt x="972" y="580" on="1"/>
        <pt x="932" y="612" on="0"/>
        <pt x="815" y="678" on="0"/>
        <pt x="666" y="732" on="0"/>
        <pt x="488" y="767" on="0"/>
        <pt x="388" y="767" on="1"/>
        <pt x="330" y="767" on="0"/>
        <pt x="247" y="751" on="0"/>
        <pt x="193" y="723" on="0"/>
        <pt x="168" y="686" on="0"/>
        <pt x="168" y="665" on="1"/>
        <pt x="168" y="651" on="0"/>
        <pt x="171" y="639" on="1"/>
        <pt x="278" y="639" on="1"/>
        <pt x="278" y="545" on="1"/>
        <pt x="195" y="545" on="1"/>
        <pt x="195" y="0" on="1"/>
        <pt x="72" y="0" on="1"/>
      </contour>
    </TTGlyph>
    <TTGlyph name="I_12" xMin="-10" yMin="0" xMax="1099" yMax="867">
      <contour>
        <pt x="65" y="545" on="1"/>
        <pt x="-10" y="545" on="1"/>
        <pt x="-10" y="639" on="1"/>
        <pt x="54" y="639" on="1"/>
        <pt x="49" y="647" on="0"/>
        <pt x="41" y="675" on="0"/>
        <pt x="41" y="695" on="1"/>
        <pt x="41" y="734" on="0"/>
        <pt x="92" y="798" on="0"/>
        <pt x="187" y="843" on="0"/>
        <pt x="322" y="867" on="0"/>
        <pt x="405" y="867" on="1"/>
        <pt x="527" y="867" on="0"/>
        <pt x="738" y="828" on="0"/>
        <pt x="911" y="763" on="0"/>
        <pt x="1045" y="679" on="0"/>
        <pt x="1090" y="635" on="1"/>
        <pt x="1099" y="626" on="1"/>
        <pt x="1026" y="571" on="1"/>
        <pt x="1011" y="583" on="1"/>
        <pt x="970" y="617" on="0"/>
        <pt x="850" y="683" on="0"/>
        <pt x="698" y="735" on="0"/>
        <pt x="518" y="767" on="0"/>
        <pt x="418" y="767" on="1"/>
        <pt x="289" y="767" on="0"/>
        <pt x="168" y="708" on="0"/>
        <pt x="168" y="661" on="1"/>
        <pt x="168" y="648" on="0"/>
        <pt x="171" y="639" on="1"/>
        <pt x="263" y="639" on="1"/>
        <pt x="263" y="545" on="1"/>
        <pt x="188" y="545" on="1"/>
        <pt x="188" y="0" on="1"/>
        <pt x="65" y="0" on="1"/>
      </contour>
    </TTGlyph>
    <TTGlyph name="I_13" xMin="-10" yMin="0" xMax="1147" yMax="867">
      <contour>
        <pt x="65" y="545" on="1"/>
        <pt x="-10" y="545" on="1"/>
        <pt x="-10" y="639" on="1"/>
        <pt x="54" y="639" on="1"/>
        <pt x="49" y="647" on="0"/>
        <pt x="41" y="675" on="0"/>
        <pt x="41" y="694" on="1"/>
        <pt x="41" y="733" on="0"/>
        <pt x="92" y="797" on="0"/>
        <pt x="187" y="842" on="0"/>
        <pt x="322" y="867" on="0"/>
        <pt x="405" y="867" on="1"/>
        <pt x="535" y="867" on="0"/>
        <pt x="760" y="828" on="0"/>
        <pt x="946" y="763" on="0"/>
        <pt x="1089" y="679" on="0"/>
        <pt x="1137" y="635" on="1"/>
        <pt x="1147" y="626" on="1"/>
        <pt x="1073" y="571" on="1"/>
        <pt x="1058" y="583" on="1"/>
        <pt x="1014" y="617" on="0"/>
        <pt x="886" y="683" on="0"/>
        <pt x="723" y="735" on="0"/>
        <pt x="528" y="767" on="0"/>
        <pt x="418" y="767" on="1"/>
        <pt x="289" y="767" on="0"/>
        <pt x="168" y="707" on="0"/>
        <pt x="168" y="661" on="1"/>
        <pt x="168" y="648" on="0"/>
        <pt x="171" y="639" on="1"/>
        <pt x="263" y="639" on="1"/>
        <pt x="263" y="545" on="1"/>
        <pt x="188" y="545" on="1"/>
        <pt x="188" y="0" on="1"/>
        <pt x="65" y="0" on="1"/>
      </contour>
    </TTGlyph>
    <TTGlyph name="I_14" xMin="-10" yMin="0" xMax="1214" yMax="867">
      <contour>
        <pt x="65" y="545" on="1"/>
        <pt x="-10" y="545" on="1"/>
        <pt x="-10" y="639" on="1"/>
        <pt x="54" y="639" on="1"/>
        <pt x="49" y="647" on="0"/>
        <pt x="42" y="675" on="0"/>
        <pt x="42" y="693" on="1"/>
        <pt x="42" y="732" on="0"/>
        <pt x="94" y="797" on="0"/>
        <pt x="190" y="842" on="0"/>
        <pt x="325" y="867" on="0"/>
        <pt x="408" y="867" on="1"/>
        <pt x="550" y="867" on="0"/>
        <pt x="800" y="828" on="0"/>
        <pt x="1005" y="763" on="0"/>
        <pt x="1159" y="680" on="0"/>
        <pt x="1205" y="635" on="1"/>
        <pt x="1214" y="626" on="1"/>
        <pt x="1141" y="571" on="1"/>
        <pt x="1126" y="584" on="1"/>
        <pt x="1082" y="622" on="0"/>
        <pt x="941" y="689" on="0"/>
        <pt x="759" y="738" on="0"/>
        <pt x="542" y="767" on="0"/>
        <pt x="421" y="767" on="1"/>
        <pt x="292" y="767" on="0"/>
        <pt x="169" y="707" on="0"/>
        <pt x="169" y="661" on="1"/>
        <pt x="169" y="653" on="0"/>
        <pt x="169" y="644" on="0"/>
        <pt x="171" y="639" on="1"/>
        <pt x="263" y="639" on="1"/>
        <pt x="263" y="545" on="1"/>
        <pt x="188" y="545" on="1"/>
        <pt x="188" y="0" on="1"/>
        <pt x="65" y="0" on="1"/>
      </contour>
    </TTGlyph>
    <TTGlyph name="I_15" xMin="-10" yMin="0" xMax="1262" yMax="867">
      <contour>
        <pt x="65" y="545" on="1"/>
        <pt x="-10" y="545" on="1"/>
        <pt x="-10" y="639" on="1"/>
        <pt x="54" y="639" on="1"/>
        <pt x="49" y="647" on="0"/>
        <pt x="42" y="674" on="0"/>
        <pt x="42" y="693" on="1"/>
        <pt x="42" y="732" on="0"/>
        <pt x="93" y="796" on="0"/>
        <pt x="190" y="842" on="0"/>
        <pt x="328" y="867" on="0"/>
        <pt x="415" y="867" on="1"/>
        <pt x="565" y="867" on="0"/>
        <pt x="827" y="829" on="0"/>
        <pt x="1041" y="765" on="0"/>
        <pt x="1202" y="681" on="0"/>
        <pt x="1252" y="635" on="1"/>
        <pt x="1262" y="626" on="1"/>
        <pt x="1188" y="571" on="1"/>
        <pt x="1173" y="584" on="1"/>
        <pt x="1126" y="623" on="0"/>
        <pt x="977" y="689" on="0"/>
        <pt x="785" y="739" on="0"/>
        <pt x="555" y="767" on="0"/>
        <pt x="428" y="767" on="1"/>
        <pt x="360" y="767" on="0"/>
        <pt x="262" y="751" on="0"/>
        <pt x="199" y="722" on="0"/>
        <pt x="169" y="684" on="0"/>
        <pt x="169" y="662" on="1"/>
        <pt x="169" y="653" on="0"/>
        <pt x="169" y="644" on="0"/>
        <pt x="171" y="639" on="1"/>
        <pt x="263" y="639" on="1"/>
        <pt x="263" y="545" on="1"/>
        <pt x="188" y="545" on="1"/>
        <pt x="188" y="0" on="1"/>
        <pt x="65" y="0" on="1"/>
      </contour>
    </TTGlyph>
    <TTGlyph name="I_16" xMin="-10" yMin="0" xMax="1314" yMax="867">
      <contour>
        <pt x="65" y="545" on="1"/>
        <pt x="-10" y="545" on="1"/>
        <pt x="-10" y="639" on="1"/>
        <pt x="54" y="639" on="1"/>
        <pt x="49" y="647" on="0"/>
        <pt x="42" y="674" on="0"/>
        <pt x="42" y="693" on="1"/>
        <pt x="42" y="732" on="0"/>
        <pt x="95" y="796" on="0"/>
        <pt x="197" y="842" on="0"/>
        <pt x="344" y="867" on="0"/>
        <pt x="438" y="867" on="1"/>
        <pt x="592" y="867" on="0"/>
        <pt x="863" y="829" on="0"/>
        <pt x="1085" y="765" on="0"/>
        <pt x="1254" y="681" on="0"/>
        <pt x="1305" y="635" on="1"/>
        <pt x="1314" y="626" on="1"/>
        <pt x="1241" y="571" on="1"/>
        <pt x="1226" y="584" on="1"/>
        <pt x="1178" y="623" on="0"/>
        <pt x="1022" y="689" on="0"/>
        <pt x="821" y="739" on="0"/>
        <pt x="582" y="767" on="0"/>
        <pt x="451" y="767" on="1"/>
        <pt x="375" y="767" on="0"/>
        <pt x="268" y="751" on="0"/>
        <pt x="200" y="722" on="0"/>
        <pt x="169" y="684" on="0"/>
        <pt x="169" y="662" on="1"/>
        <pt x="169" y="653" on="0"/>
        <pt x="169" y="644" on="0"/>
        <pt x="171" y="639" on="1"/>
        <pt x="263" y="639" on="1"/>
        <pt x="263" y="545" on="1"/>
        <pt x="188" y="545" on="1"/>
        <pt x="188" y="0" on="1"/>
        <pt x="65" y="0" on="1"/>
      </contour>
    </TTGlyph>
    <TTGlyph name="I_17" xMin="-10" yMin="0" xMax="1352" yMax="867">
      <contour>
        <pt x="65" y="545" on="1"/>
        <pt x="-10" y="545" on="1"/>
        <pt x="-10" y="639" on="1"/>
        <pt x="54" y="639" on="1"/>
        <pt x="49" y="647" on="0"/>
        <pt x="42" y="674" on="0"/>
        <pt x="42" y="693" on="1"/>
        <pt x="42" y="732" on="0"/>
        <pt x="96" y="796" on="0"/>
        <pt x="202" y="842" on="0"/>
        <pt x="360" y="867" on="0"/>
        <pt x="465" y="867" on="1"/>
        <pt x="624" y="867" on="0"/>
        <pt x="900" y="830" on="0"/>
        <pt x="1125" y="766" on="0"/>
        <pt x="1293" y="682" on="0"/>
        <pt x="1342" y="635" on="1"/>
        <pt x="1352" y="626" on="1"/>
        <pt x="1278" y="571" on="1"/>
        <pt x="1263" y="584" on="1"/>
        <pt x="1217" y="624" on="0"/>
        <pt x="1062" y="691" on="0"/>
        <pt x="859" y="740" on="0"/>
        <pt x="614" y="767" on="0"/>
        <pt x="478" y="767" on="1"/>
        <pt x="391" y="767" on="0"/>
        <pt x="272" y="751" on="0"/>
        <pt x="200" y="722" on="0"/>
        <pt x="169" y="684" on="0"/>
        <pt x="169" y="662" on="1"/>
        <pt x="169" y="653" on="0"/>
        <pt x="169" y="644" on="0"/>
        <pt x="171" y="639" on="1"/>
        <pt x="263" y="639" on="1"/>
        <pt x="263" y="545" on="1"/>
        <pt x="188" y="545" on="1"/>
        <pt x="188" y="0" on="1"/>
        <pt x="65" y="0" on="1"/>
      </contour>
    </TTGlyph>
    <TTGlyph name="I_18" xMin="-10" yMin="0" xMax="1414" yMax="867">
      <contour>
        <pt x="65" y="545" on="1"/>
        <pt x="-10" y="545" on="1"/>
        <pt x="-10" y="639" on="1"/>
        <pt x="54" y="639" on="1"/>
        <pt x="49" y="647" on="0"/>
        <pt x="42" y="674" on="0"/>
        <pt x="42" y="693" on="1"/>
        <pt x="42" y="732" on="0"/>
        <pt x="98" y="796" on="0"/>
        <pt x="210" y="842" on="0"/>
        <pt x="381" y="867" on="0"/>
        <pt x="495" y="867" on="1"/>
        <pt x="672" y="867" on="0"/>
        <pt x="967" y="826" on="0"/>
        <pt x="1197" y="760" on="0"/>
        <pt x="1360" y="677" on="0"/>
        <pt x="1405" y="635" on="1"/>
        <pt x="1414" y="626" on="1"/>
        <pt x="1343" y="570" on="1"/>
        <pt x="1327" y="583" on="1"/>
        <pt x="1277" y="623" on="0"/>
        <pt x="1126" y="690" on="0"/>
        <pt x="922" y="739" on="0"/>
        <pt x="664" y="767" on="0"/>
        <pt x="508" y="767" on="1"/>
        <pt x="410" y="767" on="0"/>
        <pt x="280" y="751" on="0"/>
        <pt x="202" y="722" on="0"/>
        <pt x="169" y="684" on="0"/>
        <pt x="169" y="662" on="1"/>
        <pt x="169" y="653" on="0"/>
        <pt x="169" y="644" on="0"/>
        <pt x="171" y="639" on="1"/>
        <pt x="263" y="639" on="1"/>
        <pt x="263" y="545" on="1"/>
        <pt x="188" y="545" on="1"/>
        <pt x="188" y="0" on="1"/>
        <pt x="65" y="0" on="1"/>
      </contour>
    </TTGlyph>
    <TTGlyph name="I_19" xMin="-10" yMin="0" xMax="1472" yMax="867">
      <contour>
        <pt x="65" y="545" on="1"/>
        <pt x="-10" y="545" on="1"/>
        <pt x="-10" y="639" on="1"/>
        <pt x="54" y="639" on="1"/>
        <pt x="49" y="647" on="0"/>
        <pt x="42" y="674" on="0"/>
        <pt x="42" y="693" on="1"/>
        <pt x="42" y="732" on="0"/>
        <pt x="98" y="796" on="0"/>
        <pt x="210" y="842" on="0"/>
        <pt x="381" y="867" on="0"/>
        <pt x="495" y="867" on="1"/>
        <pt x="682" y="867" on="0"/>
        <pt x="995" y="830" on="0"/>
        <pt x="1241" y="767" on="0"/>
        <pt x="1415" y="683" on="0"/>
        <pt x="1462" y="635" on="1"/>
        <pt x="1472" y="625" on="1"/>
        <pt x="1406" y="571" on="1"/>
        <pt x="1392" y="583" on="1"/>
        <pt x="1345" y="625" on="0"/>
        <pt x="1183" y="693" on="0"/>
        <pt x="959" y="741" on="0"/>
        <pt x="676" y="767" on="0"/>
        <pt x="508" y="767" on="1"/>
        <pt x="410" y="767" on="0"/>
        <pt x="280" y="751" on="0"/>
        <pt x="202" y="722" on="0"/>
        <pt x="169" y="684" on="0"/>
        <pt x="169" y="662" on="1"/>
        <pt x="169" y="653" on="0"/>
        <pt x="169" y="644" on="0"/>
        <pt x="171" y="639" on="1"/>
        <pt x="263" y="639" on="1"/>
        <pt x="263" y="545" on="1"/>
        <pt x="188" y="545" on="1"/>
        <pt x="188" y="0" on="1"/>
        <pt x="65" y="0" on="1"/>
      </contour>
    </TTGlyph>
    <TTGlyph name="I_20" xMin="-10" yMin="0" xMax="1534" yMax="867">
      <contour>
        <pt x="65" y="545" on="1"/>
        <pt x="-10" y="545" on="1"/>
        <pt x="-10" y="639" on="1"/>
        <pt x="54" y="639" on="1"/>
        <pt x="49" y="647" on="0"/>
        <pt x="42" y="669" on="0"/>
        <pt x="42" y="688" on="1"/>
        <pt x="42" y="727" on="0"/>
        <pt x="95" y="793" on="0"/>
        <pt x="209" y="840" on="0"/>
        <pt x="386" y="867" on="0"/>
        <pt x="510" y="867" on="1"/>
        <pt x="701" y="867" on="0"/>
        <pt x="1030" y="830" on="0"/>
        <pt x="1291" y="767" on="0"/>
        <pt x="1477" y="683" on="0"/>
        <pt x="1525" y="635" on="1"/>
        <pt x="1534" y="625" on="1"/>
        <pt x="1469" y="571" on="1"/>
        <pt x="1454" y="583" on="1"/>
        <pt x="1406" y="625" on="0"/>
        <pt x="1232" y="693" on="0"/>
        <pt x="994" y="741" on="0"/>
        <pt x="695" y="767" on="0"/>
        <pt x="523" y="767" on="1"/>
        <pt x="421" y="767" on="0"/>
        <pt x="284" y="751" on="0"/>
        <pt x="203" y="722" on="0"/>
        <pt x="169" y="684" on="0"/>
        <pt x="169" y="662" on="1"/>
        <pt x="169" y="653" on="0"/>
        <pt x="169" y="644" on="0"/>
        <pt x="171" y="639" on="1"/>
        <pt x="263" y="639" on="1"/>
        <pt x="263" y="545" on="1"/>
        <pt x="188" y="545" on="1"/>
        <pt x="188" y="0" on="1"/>
        <pt x="65" y="0" on="1"/>
      </contour>
    </TTGlyph>
    <TTGlyph name="I_21" xMin="-10" yMin="0" xMax="1597" yMax="867">
      <contour>
        <pt x="65" y="545" on="1"/>
        <pt x="-10" y="545" on="1"/>
        <pt x="-10" y="639" on="1"/>
        <pt x="54" y="639" on="1"/>
        <pt x="49" y="647" on="0"/>
        <pt x="42" y="669" on="0"/>
        <pt x="42" y="688" on="1"/>
        <pt x="42" y="727" on="0"/>
        <pt x="98" y="793" on="0"/>
        <pt x="217" y="840" on="0"/>
        <pt x="403" y="867" on="0"/>
        <pt x="533" y="867" on="1"/>
        <pt x="728" y="867" on="0"/>
        <pt x="1071" y="830" on="0"/>
        <pt x="1345" y="767" on="0"/>
        <pt x="1540" y="683" on="0"/>
        <pt x="1587" y="635" on="1"/>
        <pt x="1597" y="625" on="1"/>
        <pt x="1531" y="571" on="1"/>
        <pt x="1517" y="583" on="1"/>
        <pt x="1469" y="626" on="0"/>
        <pt x="1286" y="694" on="0"/>
        <pt x="1034" y="742" on="0"/>
        <pt x="723" y="767" on="0"/>
        <pt x="546" y="767" on="1"/>
        <pt x="436" y="767" on="0"/>
        <pt x="291" y="751" on="0"/>
        <pt x="205" y="722" on="0"/>
        <pt x="169" y="684" on="0"/>
        <pt x="169" y="662" on="1"/>
        <pt x="169" y="653" on="0"/>
        <pt x="169" y="644" on="0"/>
        <pt x="171" y="639" on="1"/>
        <pt x="263" y="639" on="1"/>
        <pt x="263" y="545" on="1"/>
        <pt x="188" y="545" on="1"/>
        <pt x="188" y="0" on="1"/>
        <pt x="65" y="0" on="1"/>
      </contour>
    </TTGlyph>
    <TTGlyph name="I_22" xMin="-10" yMin="0" xMax="1724" yMax="867">
      <contour>
        <pt x="65" y="545" on="1"/>
        <pt x="-10" y="545" on="1"/>
        <pt x="-10" y="639" on="1"/>
        <pt x="54" y="639" on="1"/>
        <pt x="49" y="647" on="0"/>
        <pt x="42" y="669" on="0"/>
        <pt x="42" y="688" on="1"/>
        <pt x="42" y="727" on="0"/>
        <pt x="103" y="793" on="0"/>
        <pt x="232" y="840" on="0"/>
        <pt x="434" y="867" on="0"/>
        <pt x="575" y="867" on="1"/>
        <pt x="804" y="867" on="0"/>
        <pt x="1179" y="835" on="0"/>
        <pt x="1466" y="775" on="0"/>
        <pt x="1664" y="689" on="0"/>
        <pt x="1715" y="635" on="1"/>
        <pt x="1724" y="625" on="1"/>
        <pt x="1666" y="571" on="1"/>
        <pt x="1652" y="583" on="1"/>
        <pt x="1600" y="630" on="0"/>
        <pt x="1410" y="700" on="0"/>
        <pt x="1140" y="745" on="0"/>
        <pt x="795" y="767" on="0"/>
        <pt x="588" y="767" on="1"/>
        <pt x="466" y="767" on="0"/>
        <pt x="305" y="751" on="0"/>
        <pt x="209" y="722" on="0"/>
        <pt x="169" y="684" on="0"/>
        <pt x="169" y="662" on="1"/>
        <pt x="169" y="653" on="0"/>
        <pt x="169" y="644" on="0"/>
        <pt x="171" y="639" on="1"/>
        <pt x="263" y="639" on="1"/>
        <pt x="263" y="545" on="1"/>
        <pt x="188" y="545" on="1"/>
        <pt x="188" y="0" on="1"/>
        <pt x="65" y="0" on="1"/>
      </contour>
    </TTGlyph>
    <TTGlyph name="I_23" xMin="-10" yMin="0" xMax="2049" yMax="867">
      <contour>
        <pt x="65" y="545" on="1"/>
        <pt x="-10" y="545" on="1"/>
        <pt x="-10" y="639" on="1"/>
        <pt x="54" y="639" on="1"/>
        <pt x="49" y="647" on="0"/>
        <pt x="42" y="669" on="0"/>
        <pt x="42" y="688" on="1"/>
        <pt x="42" y="727" on="0"/>
        <pt x="102" y="793" on="0"/>
        <pt x="233" y="840" on="0"/>
        <pt x="441" y="867" on="0"/>
        <pt x="588" y="867" on="1"/>
        <pt x="874" y="867" on="0"/>
        <pt x="1359" y="835" on="0"/>
        <pt x="1734" y="775" on="0"/>
        <pt x="1987" y="689" on="0"/>
        <pt x="2040" y="635" on="1"/>
        <pt x="2049" y="625" on="1"/>
        <pt x="1991" y="571" on="1"/>
        <pt x="1977" y="583" on="1"/>
        <pt x="1921" y="634" on="0"/>
        <pt x="1673" y="704" on="0"/>
        <pt x="1316" y="747" on="0"/>
        <pt x="862" y="767" on="0"/>
        <pt x="601" y="767" on="1"/>
        <pt x="473" y="767" on="0"/>
        <pt x="306" y="751" on="0"/>
        <pt x="208" y="722" on="0"/>
        <pt x="169" y="684" on="0"/>
        <pt x="169" y="662" on="1"/>
        <pt x="169" y="653" on="0"/>
        <pt x="169" y="644" on="0"/>
        <pt x="171" y="639" on="1"/>
        <pt x="263" y="639" on="1"/>
        <pt x="263" y="545" on="1"/>
        <pt x="188" y="545" on="1"/>
        <pt x="188" y="0" on="1"/>
        <pt x="65" y="0" on="1"/>
      </contour>
    </TTGlyph>
    <TTGlyph name="Iacute" xMin="69" yMin="0" xMax="311" yMax="819">
      <contour>
        <pt x="206" y="630" on="1"/>
        <pt x="206" y="0" on="1"/>
        <pt x="69" y="0" on="1"/>
        <pt x="69" y="630" on="1"/>
      </contour>
      <contour>
        <pt x="196" y="695" on="1"/>
        <pt x="87" y="695" on="1"/>
        <pt x="167" y="819" on="1"/>
        <pt x="311" y="819" on="1"/>
      </contour>
    </TTGlyph>
    <TTGlyph name="Ibreve" xMin="3" yMin="0" xMax="272" yMax="819">
      <contour>
        <pt x="206" y="630" on="1"/>
        <pt x="206" y="0" on="1"/>
        <pt x="69" y="0" on="1"/>
        <pt x="69" y="630" on="1"/>
      </contour>
      <contour>
        <pt x="81" y="819" on="1"/>
        <pt x="83" y="794" on="0"/>
        <pt x="109" y="764" on="0"/>
        <pt x="139" y="764" on="1"/>
        <pt x="192" y="764" on="0"/>
        <pt x="195" y="819" on="1"/>
        <pt x="272" y="819" on="1"/>
        <pt x="272" y="759" on="0"/>
        <pt x="203" y="691" on="0"/>
        <pt x="138" y="691" on="1"/>
        <pt x="102" y="691" on="0"/>
        <pt x="51" y="712" on="0"/>
        <pt x="18" y="747" on="0"/>
        <pt x="3" y="793" on="0"/>
        <pt x="3" y="819" on="1"/>
      </contour>
    </TTGlyph>
    <TTGlyph name="Icircumflex" xMin="-24" yMin="0" xMax="307" yMax="821">
      <contour>
        <pt x="206" y="630" on="1"/>
        <pt x="206" y="0" on="1"/>
        <pt x="69" y="0" on="1"/>
        <pt x="69" y="630" on="1"/>
      </contour>
      <contour>
        <pt x="90" y="821" on="1"/>
        <pt x="189" y="821" on="1"/>
        <pt x="307" y="695" on="1"/>
        <pt x="204" y="695" on="1"/>
        <pt x="139" y="764" on="1"/>
        <pt x="74" y="695" on="1"/>
        <pt x="-24" y="695" on="1"/>
      </contour>
    </TTGlyph>
    <TTGlyph name="Idieresis" xMin="-24" yMin="0" xMax="297" yMax="813">
      <contour>
        <pt x="206" y="630" on="1"/>
        <pt x="206" y="0" on="1"/>
        <pt x="69" y="0" on="1"/>
        <pt x="69" y="630" on="1"/>
      </contour>
      <contour>
        <pt x="-24" y="751" on="1"/>
        <pt x="-24" y="777" on="0"/>
        <pt x="13" y="813" on="0"/>
        <pt x="39" y="813" on="1"/>
        <pt x="66" y="813" on="0"/>
        <pt x="102" y="777" on="0"/>
        <pt x="102" y="751" on="1"/>
        <pt x="102" y="724" on="0"/>
        <pt x="66" y="687" on="0"/>
        <pt x="39" y="687" on="1"/>
        <pt x="13" y="687" on="0"/>
        <pt x="-24" y="724" on="0"/>
      </contour>
      <contour>
        <pt x="171" y="751" on="1"/>
        <pt x="171" y="777" on="0"/>
        <pt x="208" y="813" on="0"/>
        <pt x="235" y="813" on="1"/>
        <pt x="261" y="813" on="0"/>
        <pt x="297" y="777" on="0"/>
        <pt x="297" y="751" on="1"/>
        <pt x="297" y="724" on="0"/>
        <pt x="261" y="687" on="0"/>
        <pt x="235" y="687" on="1"/>
        <pt x="208" y="687" on="0"/>
        <pt x="171" y="724" on="0"/>
      </contour>
    </TTGlyph>
    <TTGlyph name="Idotaccent" xMin="69" yMin="0" xMax="206" yMax="816">
      <contour>
        <pt x="206" y="630" on="1"/>
        <pt x="206" y="0" on="1"/>
        <pt x="69" y="0" on="1"/>
        <pt x="69" y="630" on="1"/>
      </contour>
      <contour>
        <pt x="72" y="753" on="1"/>
        <pt x="72" y="779" on="0"/>
        <pt x="111" y="816" on="0"/>
        <pt x="137" y="816" on="1"/>
        <pt x="165" y="816" on="0"/>
        <pt x="202" y="779" on="0"/>
        <pt x="202" y="753" on="1"/>
        <pt x="202" y="725" on="0"/>
        <pt x="165" y="687" on="0"/>
        <pt x="137" y="687" on="1"/>
        <pt x="111" y="687" on="0"/>
        <pt x="72" y="725" on="0"/>
      </contour>
    </TTGlyph>
    <TTGlyph name="Igrave" xMin="-35" yMin="0" xMax="206" yMax="819">
      <contour>
        <pt x="206" y="630" on="1"/>
        <pt x="206" y="0" on="1"/>
        <pt x="69" y="0" on="1"/>
        <pt x="69" y="630" on="1"/>
      </contour>
      <contour>
        <pt x="-35" y="819" on="1"/>
        <pt x="109" y="819" on="1"/>
        <pt x="189" y="695" on="1"/>
        <pt x="79" y="695" on="1"/>
      </contour>
    </TTGlyph>
    <TTGlyph name="Imacron" xMin="10" yMin="0" xMax="267" yMax="772">
      <contour>
        <pt x="206" y="630" on="1"/>
        <pt x="206" y="0" on="1"/>
        <pt x="69" y="0" on="1"/>
        <pt x="69" y="630" on="1"/>
      </contour>
      <contour>
        <pt x="267" y="772" on="1"/>
        <pt x="267" y="695" on="1"/>
        <pt x="10" y="695" on="1"/>
        <pt x="10" y="772" on="1"/>
      </contour>
    </TTGlyph>
    <TTGlyph name="Iogonek" xMin="21" yMin="-206" xMax="213" yMax="630">
      <contour>
        <pt x="206" y="630" on="1"/>
        <pt x="206" y="0" on="1"/>
        <pt x="161" y="0" on="1"/>
        <pt x="138" y="-18" on="0"/>
        <pt x="108" y="-57" on="0"/>
        <pt x="108" y="-80" on="1"/>
        <pt x="108" y="-100" on="0"/>
        <pt x="132" y="-124" on="0"/>
        <pt x="153" y="-124" on="1"/>
        <pt x="166" y="-124" on="0"/>
        <pt x="186" y="-119" on="0"/>
        <pt x="195" y="-116" on="1"/>
        <pt x="213" y="-184" on="1"/>
        <pt x="178" y="-206" on="0"/>
        <pt x="128" y="-206" on="1"/>
        <pt x="82" y="-206" on="0"/>
        <pt x="21" y="-152" on="0"/>
        <pt x="21" y="-105" on="1"/>
        <pt x="21" y="-67" on="0"/>
        <pt x="52" y="-17" on="0"/>
        <pt x="69" y="0" on="1"/>
        <pt x="69" y="630" on="1"/>
      </contour>
    </TTGlyph>
    <TTGlyph name="Ismall" xMin="63" yMin="0" xMax="196" yMax="477">
      <contour>
        <pt x="196" y="477" on="1"/>
        <pt x="196" y="0" on="1"/>
        <pt x="63" y="0" on="1"/>
        <pt x="63" y="477" on="1"/>
      </contour>
    </TTGlyph>
    <TTGlyph name="Itilde" xMin="-16" yMin="0" xMax="287" yMax="816">
      <contour>
        <pt x="206" y="630" on="1"/>
        <pt x="206" y="0" on="1"/>
        <pt x="69" y="0" on="1"/>
        <pt x="69" y="630" on="1"/>
      </contour>
      <contour>
        <pt x="-16" y="695" on="1"/>
        <pt x="-16" y="745" on="0"/>
        <pt x="30" y="813" on="0"/>
        <pt x="75" y="813" on="1"/>
        <pt x="93" y="813" on="0"/>
        <pt x="123" y="802" on="0"/>
        <pt x="150" y="789" on="0"/>
        <pt x="176" y="778" on="0"/>
        <pt x="190" y="778" on="1"/>
        <pt x="206" y="778" on="0"/>
        <pt x="221" y="799" on="0"/>
        <pt x="222" y="816" on="1"/>
        <pt x="287" y="816" on="1"/>
        <pt x="287" y="765" on="0"/>
        <pt x="241" y="700" on="0"/>
        <pt x="200" y="700" on="1"/>
        <pt x="181" y="700" on="0"/>
        <pt x="147" y="711" on="0"/>
        <pt x="117" y="723" on="0"/>
        <pt x="91" y="734" on="0"/>
        <pt x="81" y="734" on="1"/>
        <pt x="64" y="734" on="0"/>
        <pt x="50" y="712" on="0"/>
        <pt x="49" y="695" on="1"/>
      </contour>
    </TTGlyph>
    <TTGlyph name="J" xMin="-19" yMin="-170" xMax="223" yMax="630">
      <contour>
        <pt x="223" y="630" on="1"/>
        <pt x="223" y="115" on="1"/>
        <pt x="223" y="76" on="0"/>
        <pt x="219" y="13" on="0"/>
        <pt x="207" y="-39" on="0"/>
        <pt x="186" y="-81" on="0"/>
        <pt x="170" y="-100" on="1"/>
        <pt x="137" y="-139" on="0"/>
        <pt x="37" y="-170" on="0"/>
        <pt x="-19" y="-170" on="1"/>
        <pt x="-19" y="-65" on="1"/>
        <pt x="7" y="-65" on="0"/>
        <pt x="45" y="-49" on="0"/>
        <pt x="57" y="-37" on="1"/>
        <pt x="75" y="-21" on="0"/>
        <pt x="86" y="31" on="0"/>
        <pt x="86" y="63" on="1"/>
        <pt x="86" y="630" on="1"/>
      </contour>
    </TTGlyph>
    <TTGlyph name="Jcircumflex" xMin="-19" yMin="-170" xMax="322" yMax="821">
      <contour>
        <pt x="223" y="630" on="1"/>
        <pt x="223" y="115" on="1"/>
        <pt x="223" y="76" on="0"/>
        <pt x="219" y="13" on="0"/>
        <pt x="207" y="-39" on="0"/>
        <pt x="186" y="-81" on="0"/>
        <pt x="170" y="-100" on="1"/>
        <pt x="137" y="-139" on="0"/>
        <pt x="37" y="-170" on="0"/>
        <pt x="-19" y="-170" on="1"/>
        <pt x="-19" y="-65" on="1"/>
        <pt x="7" y="-65" on="0"/>
        <pt x="45" y="-49" on="0"/>
        <pt x="57" y="-37" on="1"/>
        <pt x="75" y="-21" on="0"/>
        <pt x="86" y="31" on="0"/>
        <pt x="86" y="63" on="1"/>
        <pt x="86" y="630" on="1"/>
      </contour>
      <contour>
        <pt x="106" y="821" on="1"/>
        <pt x="205" y="821" on="1"/>
        <pt x="322" y="695" on="1"/>
        <pt x="220" y="695" on="1"/>
        <pt x="155" y="764" on="1"/>
        <pt x="90" y="695" on="1"/>
        <pt x="-9" y="695" on="1"/>
      </contour>
    </TTGlyph>
    <TTGlyph name="Jsmall" xMin="-11" yMin="-178" xMax="197" yMax="477">
      <contour>
        <pt x="197" y="477" on="1"/>
        <pt x="197" y="73" on="1"/>
        <pt x="197" y="17" on="0"/>
        <pt x="184" y="-70" on="0"/>
        <pt x="161" y="-106" on="1"/>
        <pt x="133" y="-150" on="0"/>
        <pt x="46" y="-178" on="0"/>
        <pt x="-11" y="-178" on="1"/>
        <pt x="-11" y="-76" on="1"/>
        <pt x="5" y="-76" on="0"/>
        <pt x="41" y="-64" on="0"/>
        <pt x="51" y="-44" on="1"/>
        <pt x="60" y="-28" on="0"/>
        <pt x="64" y="21" on="0"/>
        <pt x="64" y="44" on="1"/>
        <pt x="64" y="477" on="1"/>
      </contour>
    </TTGlyph>
    <TTGlyph name="K" xMin="69" yMin="0" xMax="613" yMax="630">
      <contour>
        <pt x="69" y="0" on="1"/>
        <pt x="69" y="630" on="1"/>
        <pt x="206" y="630" on="1"/>
        <pt x="206" y="365" on="1"/>
        <pt x="423" y="630" on="1"/>
        <pt x="593" y="630" on="1"/>
        <pt x="358" y="355" on="1"/>
        <pt x="613" y="0" on="1"/>
        <pt x="444" y="0" on="1"/>
        <pt x="258" y="269" on="1"/>
        <pt x="206" y="214" on="1"/>
        <pt x="206" y="0" on="1"/>
      </contour>
    </TTGlyph>
    <TTGlyph name="Kcommaaccent" xMin="69" yMin="-334" xMax="613" yMax="630">
      <contour>
        <pt x="69" y="0" on="1"/>
        <pt x="69" y="630" on="1"/>
        <pt x="206" y="630" on="1"/>
        <pt x="206" y="365" on="1"/>
        <pt x="423" y="630" on="1"/>
        <pt x="593" y="630" on="1"/>
        <pt x="358" y="355" on="1"/>
        <pt x="613" y="0" on="1"/>
        <pt x="444" y="0" on="1"/>
        <pt x="258" y="269" on="1"/>
        <pt x="206" y="214" on="1"/>
        <pt x="206" y="0" on="1"/>
      </contour>
      <contour>
        <pt x="304" y="-198" on="1"/>
        <pt x="280" y="-193" on="0"/>
        <pt x="245" y="-158" on="0"/>
        <pt x="245" y="-131" on="1"/>
        <pt x="245" y="-105" on="0"/>
        <pt x="281" y="-64" on="0"/>
        <pt x="313" y="-64" on="1"/>
        <pt x="326" y="-64" on="0"/>
        <pt x="354" y="-75" on="0"/>
        <pt x="377" y="-98" on="0"/>
        <pt x="392" y="-136" on="0"/>
        <pt x="392" y="-163" on="1"/>
        <pt x="392" y="-191" on="0"/>
        <pt x="373" y="-243" on="0"/>
        <pt x="342" y="-288" on="0"/>
        <pt x="302" y="-323" on="0"/>
        <pt x="280" y="-334" on="1"/>
        <pt x="249" y="-293" on="1"/>
        <pt x="275" y="-278" on="0"/>
        <pt x="317" y="-229" on="0"/>
        <pt x="322" y="-201" on="1"/>
      </contour>
    </TTGlyph>
    <TTGlyph name="Ksmall" xMin="63" yMin="0" xMax="518" yMax="477">
      <contour>
        <pt x="63" y="0" on="1"/>
        <pt x="63" y="477" on="1"/>
        <pt x="189" y="477" on="1"/>
        <pt x="189" y="289" on="1"/>
        <pt x="344" y="477" on="1"/>
        <pt x="501" y="477" on="1"/>
        <pt x="313" y="270" on="1"/>
        <pt x="518" y="0" on="1"/>
        <pt x="359" y="0" on="1"/>
        <pt x="227" y="194" on="1"/>
        <pt x="189" y="151" on="1"/>
        <pt x="189" y="0" on="1"/>
      </contour>
    </TTGlyph>
    <TTGlyph name="L" xMin="69" yMin="0" xMax="460" yMax="630">
      <contour>
        <pt x="69" y="630" on="1"/>
        <pt x="206" y="630" on="1"/>
        <pt x="206" y="108" on="1"/>
        <pt x="460" y="108" on="1"/>
        <pt x="460" y="0" on="1"/>
        <pt x="69" y="0" on="1"/>
      </contour>
    </TTGlyph>
    <TTGlyph name="Lacute" xMin="69" yMin="0" xMax="460" yMax="819">
      <contour>
        <pt x="69" y="630" on="1"/>
        <pt x="206" y="630" on="1"/>
        <pt x="206" y="108" on="1"/>
        <pt x="460" y="108" on="1"/>
        <pt x="460" y="0" on="1"/>
        <pt x="69" y="0" on="1"/>
      </contour>
      <contour>
        <pt x="189" y="695" on="1"/>
        <pt x="79" y="695" on="1"/>
        <pt x="159" y="819" on="1"/>
        <pt x="304" y="819" on="1"/>
      </contour>
    </TTGlyph>
    <TTGlyph name="Lcaron" xMin="69" yMin="0" xMax="460" yMax="742">
      <contour>
        <pt x="69" y="630" on="1"/>
        <pt x="206" y="630" on="1"/>
        <pt x="206" y="108" on="1"/>
        <pt x="460" y="108" on="1"/>
        <pt x="460" y="0" on="1"/>
        <pt x="69" y="0" on="1"/>
      </contour>
      <contour>
        <pt x="325" y="608" on="1"/>
        <pt x="300" y="613" on="0"/>
        <pt x="266" y="648" on="0"/>
        <pt x="266" y="675" on="1"/>
        <pt x="266" y="701" on="0"/>
        <pt x="302" y="742" on="0"/>
        <pt x="334" y="742" on="1"/>
        <pt x="347" y="742" on="0"/>
        <pt x="375" y="731" on="0"/>
        <pt x="398" y="708" on="0"/>
        <pt x="413" y="670" on="0"/>
        <pt x="413" y="643" on="1"/>
        <pt x="413" y="615" on="0"/>
        <pt x="394" y="563" on="0"/>
        <pt x="362" y="518" on="0"/>
        <pt x="322" y="483" on="0"/>
        <pt x="300" y="472" on="1"/>
        <pt x="269" y="513" on="1"/>
        <pt x="295" y="528" on="0"/>
        <pt x="337" y="577" on="0"/>
        <pt x="342" y="605" on="1"/>
      </contour>
    </TTGlyph>
    <TTGlyph name="Lcommaaccent" xMin="69" yMin="-334" xMax="460" yMax="630">
      <contour>
        <pt x="69" y="630" on="1"/>
        <pt x="206" y="630" on="1"/>
        <pt x="206" y="108" on="1"/>
        <pt x="460" y="108" on="1"/>
        <pt x="460" y="0" on="1"/>
        <pt x="69" y="0" on="1"/>
      </contour>
      <contour>
        <pt x="247" y="-198" on="1"/>
        <pt x="222" y="-193" on="0"/>
        <pt x="188" y="-158" on="0"/>
        <pt x="188" y="-131" on="1"/>
        <pt x="188" y="-105" on="0"/>
        <pt x="224" y="-64" on="0"/>
        <pt x="256" y="-64" on="1"/>
        <pt x="269" y="-64" on="0"/>
        <pt x="297" y="-75" on="0"/>
        <pt x="320" y="-98" on="0"/>
        <pt x="335" y="-136" on="0"/>
        <pt x="335" y="-163" on="1"/>
        <pt x="335" y="-191" on="0"/>
        <pt x="316" y="-243" on="0"/>
        <pt x="285" y="-288" on="0"/>
        <pt x="245" y="-323" on="0"/>
        <pt x="223" y="-334" on="1"/>
        <pt x="192" y="-293" on="1"/>
        <pt x="218" y="-278" on="0"/>
        <pt x="259" y="-229" on="0"/>
        <pt x="264" y="-201" on="1"/>
      </contour>
    </TTGlyph>
    <TTGlyph name="Ldot" xMin="69" yMin="0" xMax="460" yMax="630">
      <contour>
        <pt x="69" y="630" on="1"/>
        <pt x="206" y="630" on="1"/>
        <pt x="206" y="108" on="1"/>
        <pt x="460" y="108" on="1"/>
        <pt x="460" y="0" on="1"/>
        <pt x="69" y="0" on="1"/>
      </contour>
      <contour>
        <pt x="264" y="346" on="1"/>
        <pt x="264" y="374" on="0"/>
        <pt x="301" y="414" on="0"/>
        <pt x="330" y="414" on="1"/>
        <pt x="356" y="414" on="0"/>
        <pt x="392" y="375" on="0"/>
        <pt x="392" y="346" on="1"/>
        <pt x="392" y="319" on="0"/>
        <pt x="356" y="278" on="0"/>
        <pt x="330" y="278" on="1"/>
        <pt x="301" y="278" on="0"/>
        <pt x="264" y="319" on="0"/>
      </contour>
    </TTGlyph>
    <TTGlyph name="Lslash" xMin="-47" yMin="0" xMax="460" yMax="630">
      <contour>
        <pt x="69" y="630" on="1"/>
        <pt x="206" y="630" on="1"/>
        <pt x="206" y="406" on="1"/>
        <pt x="307" y="491" on="1"/>
        <pt x="359" y="428" on="1"/>
        <pt x="206" y="300" on="1"/>
        <pt x="206" y="108" on="1"/>
        <pt x="460" y="108" on="1"/>
        <pt x="460" y="0" on="1"/>
        <pt x="69" y="0" on="1"/>
        <pt x="69" y="198" on="1"/>
        <pt x="5" y="145" on="1"/>
        <pt x="-47" y="207" on="1"/>
        <pt x="69" y="304" on="1"/>
      </contour>
    </TTGlyph>
    <TTGlyph name="Lsmall" xMin="63" yMin="0" xMax="397" yMax="477">
      <contour>
        <pt x="63" y="477" on="1"/>
        <pt x="196" y="477" on="1"/>
        <pt x="196" y="94" on="1"/>
        <pt x="397" y="94" on="1"/>
        <pt x="397" y="0" on="1"/>
        <pt x="63" y="0" on="1"/>
      </contour>
    </TTGlyph>
    <TTGlyph name="M" xMin="64" yMin="0" xMax="769" yMax="630">
      <contour>
        <pt x="109" y="630" on="1"/>
        <pt x="282" y="630" on="1"/>
        <pt x="372" y="343" on="1"/>
        <pt x="378" y="324" on="0"/>
        <pt x="391" y="280" on="0"/>
        <pt x="403" y="236" on="0"/>
        <pt x="413" y="194" on="0"/>
        <pt x="416" y="176" on="1"/>
        <pt x="420" y="176" on="1"/>
        <pt x="423" y="192" on="0"/>
        <pt x="433" y="235" on="0"/>
        <pt x="445" y="281" on="0"/>
        <pt x="457" y="325" on="0"/>
        <pt x="462" y="343" on="1"/>
        <pt x="549" y="630" on="1"/>
        <pt x="722" y="630" on="1"/>
        <pt x="769" y="0" on="1"/>
        <pt x="640" y="0" on="1"/>
        <pt x="634" y="104" on="0"/>
        <pt x="622" y="312" on="0"/>
        <pt x="620" y="418" on="1"/>
        <pt x="619" y="500" on="1"/>
        <pt x="616" y="500" on="1"/>
        <pt x="603" y="445" on="0"/>
        <pt x="572" y="325" on="0"/>
        <pt x="558" y="280" on="1"/>
        <pt x="469" y="0" on="1"/>
        <pt x="363" y="0" on="1"/>
        <pt x="272" y="281" on="1"/>
        <pt x="255" y="335" on="0"/>
        <pt x="225" y="455" on="0"/>
        <pt x="216" y="500" on="1"/>
        <pt x="213" y="500" on="1"/>
        <pt x="213" y="464" on="0"/>
        <pt x="211" y="385" on="0"/>
        <pt x="208" y="307" on="0"/>
        <pt x="205" y="232" on="0"/>
        <pt x="203" y="201" on="1"/>
        <pt x="191" y="0" on="1"/>
        <pt x="64" y="0" on="1"/>
      </contour>
    </TTGlyph>
    <TTGlyph name="Macron" xMin="30" yMin="695" xMax="286" yMax="772">
      <contour>
        <pt x="286" y="772" on="1"/>
        <pt x="286" y="695" on="1"/>
        <pt x="30" y="695" on="1"/>
        <pt x="30" y="772" on="1"/>
      </contour>
    </TTGlyph>
    <TTGlyph name="Msmall" xMin="54" yMin="0" xMax="635" yMax="477">
      <contour>
        <pt x="92" y="477" on="1"/>
        <pt x="254" y="477" on="1"/>
        <pt x="304" y="306" on="1"/>
        <pt x="315" y="273" on="0"/>
        <pt x="336" y="181" on="0"/>
        <pt x="343" y="140" on="1"/>
        <pt x="347" y="140" on="1"/>
        <pt x="354" y="179" on="0"/>
        <pt x="374" y="272" on="0"/>
        <pt x="385" y="306" on="1"/>
        <pt x="433" y="477" on="1"/>
        <pt x="595" y="477" on="1"/>
        <pt x="635" y="0" on="1"/>
        <pt x="513" y="0" on="1"/>
        <pt x="504" y="168" on="1"/>
        <pt x="501" y="208" on="0"/>
        <pt x="498" y="304" on="0"/>
        <pt x="498" y="346" on="1"/>
        <pt x="495" y="346" on="1"/>
        <pt x="490" y="321" on="0"/>
        <pt x="477" y="268" on="0"/>
        <pt x="463" y="220" on="0"/>
        <pt x="451" y="179" on="0"/>
        <pt x="447" y="166" on="1"/>
        <pt x="394" y="0" on="1"/>
        <pt x="293" y="0" on="1"/>
        <pt x="240" y="166" on="1"/>
        <pt x="227" y="202" on="0"/>
        <pt x="200" y="301" on="0"/>
        <pt x="192" y="346" on="1"/>
        <pt x="189" y="346" on="1"/>
        <pt x="191" y="303" on="0"/>
        <pt x="185" y="204" on="0"/>
        <pt x="183" y="168" on="1"/>
        <pt x="181" y="126" on="0"/>
        <pt x="175" y="42" on="0"/>
        <pt x="173" y="0" on="1"/>
        <pt x="54" y="0" on="1"/>
      </contour>
    </TTGlyph>
    <TTGlyph name="N" xMin="69" yMin="0" xMax="601" yMax="630">
      <contour>
        <pt x="69" y="630" on="1"/>
        <pt x="194" y="630" on="1"/>
        <pt x="411" y="298" on="1"/>
        <pt x="433" y="264" on="0"/>
        <pt x="470" y="199" on="0"/>
        <pt x="478" y="181" on="1"/>
        <pt x="480" y="181" on="1"/>
        <pt x="474" y="246" on="0"/>
        <pt x="474" y="375" on="0"/>
        <pt x="474" y="441" on="1"/>
        <pt x="474" y="630" on="1"/>
        <pt x="601" y="630" on="1"/>
        <pt x="601" y="0" on="1"/>
        <pt x="476" y="0" on="1"/>
        <pt x="274" y="306" on="1"/>
        <pt x="261" y="326" on="0"/>
        <pt x="236" y="369" on="0"/>
        <pt x="214" y="409" on="0"/>
        <pt x="197" y="442" on="0"/>
        <pt x="193" y="453" on="1"/>
        <pt x="191" y="453" on="1"/>
        <pt x="196" y="384" on="0"/>
        <pt x="197" y="257" on="0"/>
        <pt x="197" y="191" on="1"/>
        <pt x="197" y="0" on="1"/>
        <pt x="69" y="0" on="1"/>
      </contour>
    </TTGlyph>
    <TTGlyph name="Nacute" xMin="69" yMin="0" xMax="601" yMax="819">
      <contour>
        <pt x="366" y="695" on="1"/>
        <pt x="257" y="695" on="1"/>
        <pt x="337" y="819" on="1"/>
        <pt x="481" y="819" on="1"/>
      </contour>
      <contour>
        <pt x="69" y="630" on="1"/>
        <pt x="194" y="630" on="1"/>
        <pt x="411" y="298" on="1"/>
        <pt x="433" y="264" on="0"/>
        <pt x="470" y="199" on="0"/>
        <pt x="478" y="181" on="1"/>
        <pt x="480" y="181" on="1"/>
        <pt x="474" y="246" on="0"/>
        <pt x="474" y="375" on="0"/>
        <pt x="474" y="441" on="1"/>
        <pt x="474" y="630" on="1"/>
        <pt x="601" y="630" on="1"/>
        <pt x="601" y="0" on="1"/>
        <pt x="476" y="0" on="1"/>
        <pt x="274" y="306" on="1"/>
        <pt x="261" y="326" on="0"/>
        <pt x="236" y="369" on="0"/>
        <pt x="214" y="409" on="0"/>
        <pt x="197" y="442" on="0"/>
        <pt x="193" y="453" on="1"/>
        <pt x="191" y="453" on="1"/>
        <pt x="196" y="384" on="0"/>
        <pt x="197" y="257" on="0"/>
        <pt x="197" y="191" on="1"/>
        <pt x="197" y="0" on="1"/>
        <pt x="69" y="0" on="1"/>
      </contour>
    </TTGlyph>
    <TTGlyph name="Ncaron" xMin="69" yMin="0" xMax="601" yMax="822">
      <contour>
        <pt x="389" y="695" on="1"/>
        <pt x="290" y="695" on="1"/>
        <pt x="173" y="822" on="1"/>
        <pt x="275" y="822" on="1"/>
        <pt x="340" y="752" on="1"/>
        <pt x="405" y="822" on="1"/>
        <pt x="504" y="822" on="1"/>
      </contour>
      <contour>
        <pt x="69" y="630" on="1"/>
        <pt x="194" y="630" on="1"/>
        <pt x="411" y="298" on="1"/>
        <pt x="433" y="264" on="0"/>
        <pt x="470" y="199" on="0"/>
        <pt x="478" y="181" on="1"/>
        <pt x="480" y="181" on="1"/>
        <pt x="474" y="246" on="0"/>
        <pt x="474" y="375" on="0"/>
        <pt x="474" y="441" on="1"/>
        <pt x="474" y="630" on="1"/>
        <pt x="601" y="630" on="1"/>
        <pt x="601" y="0" on="1"/>
        <pt x="476" y="0" on="1"/>
        <pt x="274" y="306" on="1"/>
        <pt x="261" y="326" on="0"/>
        <pt x="236" y="369" on="0"/>
        <pt x="214" y="409" on="0"/>
        <pt x="197" y="442" on="0"/>
        <pt x="193" y="453" on="1"/>
        <pt x="191" y="453" on="1"/>
        <pt x="196" y="384" on="0"/>
        <pt x="197" y="257" on="0"/>
        <pt x="197" y="191" on="1"/>
        <pt x="197" y="0" on="1"/>
        <pt x="69" y="0" on="1"/>
      </contour>
    </TTGlyph>
    <TTGlyph name="Ncommaaccent" xMin="69" yMin="-334" xMax="601" yMax="630">
      <contour>
        <pt x="317" y="-198" on="1"/>
        <pt x="292" y="-193" on="0"/>
        <pt x="258" y="-158" on="0"/>
        <pt x="258" y="-131" on="1"/>
        <pt x="258" y="-105" on="0"/>
        <pt x="294" y="-64" on="0"/>
        <pt x="326" y="-64" on="1"/>
        <pt x="339" y="-64" on="0"/>
        <pt x="367" y="-75" on="0"/>
        <pt x="390" y="-98" on="0"/>
        <pt x="405" y="-136" on="0"/>
        <pt x="405" y="-163" on="1"/>
        <pt x="405" y="-191" on="0"/>
        <pt x="386" y="-243" on="0"/>
        <pt x="355" y="-288" on="0"/>
        <pt x="315" y="-323" on="0"/>
        <pt x="293" y="-334" on="1"/>
        <pt x="262" y="-293" on="1"/>
        <pt x="288" y="-278" on="0"/>
        <pt x="329" y="-229" on="0"/>
        <pt x="334" y="-201" on="1"/>
      </contour>
      <contour>
        <pt x="69" y="630" on="1"/>
        <pt x="194" y="630" on="1"/>
        <pt x="411" y="298" on="1"/>
        <pt x="433" y="264" on="0"/>
        <pt x="470" y="199" on="0"/>
        <pt x="478" y="181" on="1"/>
        <pt x="480" y="181" on="1"/>
        <pt x="474" y="246" on="0"/>
        <pt x="474" y="375" on="0"/>
        <pt x="474" y="441" on="1"/>
        <pt x="474" y="630" on="1"/>
        <pt x="601" y="630" on="1"/>
        <pt x="601" y="0" on="1"/>
        <pt x="476" y="0" on="1"/>
        <pt x="274" y="306" on="1"/>
        <pt x="261" y="326" on="0"/>
        <pt x="236" y="369" on="0"/>
        <pt x="214" y="409" on="0"/>
        <pt x="197" y="442" on="0"/>
        <pt x="193" y="453" on="1"/>
        <pt x="191" y="453" on="1"/>
        <pt x="196" y="384" on="0"/>
        <pt x="197" y="257" on="0"/>
        <pt x="197" y="191" on="1"/>
        <pt x="197" y="0" on="1"/>
        <pt x="69" y="0" on="1"/>
      </contour>
    </TTGlyph>
    <TTGlyph name="Nsmall" xMin="63" yMin="0" xMax="516" yMax="477">
      <contour>
        <pt x="63" y="477" on="1"/>
        <pt x="196" y="477" on="1"/>
        <pt x="303" y="318" on="1"/>
        <pt x="330" y="278" on="0"/>
        <pt x="381" y="192" on="0"/>
        <pt x="395" y="157" on="1"/>
        <pt x="398" y="157" on="1"/>
        <pt x="395" y="186" on="0"/>
        <pt x="391" y="243" on="0"/>
        <pt x="391" y="270" on="1"/>
        <pt x="391" y="477" on="1"/>
        <pt x="516" y="477" on="1"/>
        <pt x="516" y="0" on="1"/>
        <pt x="382" y="0" on="1"/>
        <pt x="272" y="161" on="1"/>
        <pt x="245" y="200" on="0"/>
        <pt x="201" y="280" on="0"/>
        <pt x="184" y="323" on="1"/>
        <pt x="182" y="323" on="1"/>
        <pt x="184" y="293" on="0"/>
        <pt x="187" y="234" on="0"/>
        <pt x="187" y="205" on="1"/>
        <pt x="187" y="0" on="1"/>
        <pt x="63" y="0" on="1"/>
      </contour>
    </TTGlyph>
    <TTGlyph name="Ntilde" xMin="69" yMin="0" xMax="614" yMax="816">
      <contour>
        <pt x="69" y="630" on="1"/>
        <pt x="269" y="630" on="1"/>
        <pt x="423" y="283" on="1"/>
        <pt x="483" y="115" on="1"/>
        <pt x="486" y="115" on="1"/>
        <pt x="479" y="303" on="1"/>
        <pt x="479" y="630" on="1"/>
        <pt x="614" y="630" on="1"/>
        <pt x="614" y="0" on="1"/>
        <pt x="414" y="0" on="1"/>
        <pt x="266" y="334" on="1"/>
        <pt x="200" y="519" on="1"/>
        <pt x="197" y="519" on="1"/>
        <pt x="204" y="311" on="1"/>
        <pt x="204" y="0" on="1"/>
        <pt x="69" y="0" on="1"/>
      </contour>
      <contour>
        <pt x="207" y="695" on="1"/>
        <pt x="207" y="744" on="0"/>
        <pt x="253" y="813" on="0"/>
        <pt x="298" y="813" on="1"/>
        <pt x="316" y="813" on="0"/>
        <pt x="346" y="802" on="0"/>
        <pt x="373" y="788" on="0"/>
        <pt x="399" y="777" on="0"/>
        <pt x="413" y="777" on="1"/>
        <pt x="428" y="777" on="0"/>
        <pt x="444" y="799" on="0"/>
        <pt x="445" y="816" on="1"/>
        <pt x="510" y="816" on="1"/>
        <pt x="510" y="765" on="0"/>
        <pt x="464" y="699" on="0"/>
        <pt x="423" y="699" on="1"/>
        <pt x="403" y="699" on="0"/>
        <pt x="369" y="710" on="0"/>
        <pt x="340" y="723" on="0"/>
        <pt x="314" y="734" on="0"/>
        <pt x="304" y="734" on="1"/>
        <pt x="287" y="734" on="0"/>
        <pt x="273" y="711" on="0"/>
        <pt x="272" y="695" on="1"/>
      </contour>
    </TTGlyph>
    <TTGlyph name="O" xMin="40" yMin="-11" xMax="664" yMax="641">
      <contour>
        <pt x="354" y="641" on="1"/>
        <pt x="421" y="641" on="0"/>
        <pt x="535" y="597" on="0"/>
        <pt x="617" y="514" on="0"/>
        <pt x="664" y="392" on="0"/>
        <pt x="664" y="314" on="1"/>
        <pt x="664" y="238" on="0"/>
        <pt x="616" y="118" on="0"/>
        <pt x="532" y="34" on="0"/>
        <pt x="417" y="-11" on="0"/>
        <pt x="350" y="-11" on="1"/>
        <pt x="283" y="-11" on="0"/>
        <pt x="169" y="32" on="0"/>
        <pt x="87" y="115" on="0"/>
        <pt x="40" y="236" on="0"/>
        <pt x="40" y="314" on="1"/>
        <pt x="40" y="390" on="0"/>
        <pt x="88" y="511" on="0"/>
        <pt x="172" y="596" on="0"/>
        <pt x="287" y="641" on="0"/>
      </contour>
      <contour>
        <pt x="185" y="314" on="1"/>
        <pt x="185" y="258" on="0"/>
        <pt x="212" y="175" on="0"/>
        <pt x="258" y="120" on="0"/>
        <pt x="319" y="93" on="0"/>
        <pt x="354" y="93" on="1"/>
        <pt x="388" y="93" on="0"/>
        <pt x="449" y="120" on="0"/>
        <pt x="493" y="175" on="0"/>
        <pt x="519" y="258" on="0"/>
        <pt x="519" y="314" on="1"/>
        <pt x="519" y="372" on="0"/>
        <pt x="492" y="456" on="0"/>
        <pt x="446" y="511" on="0"/>
        <pt x="385" y="537" on="0"/>
        <pt x="350" y="537" on="1"/>
        <pt x="315" y="537" on="0"/>
        <pt x="255" y="509" on="0"/>
        <pt x="211" y="454" on="0"/>
        <pt x="185" y="370" on="0"/>
      </contour>
    </TTGlyph>
    <TTGlyph name="OE" xMin="40" yMin="-11" xMax="842" yMax="641">
      <contour>
        <pt x="349" y="-11" on="1"/>
        <pt x="280" y="-11" on="0"/>
        <pt x="166" y="32" on="0"/>
        <pt x="85" y="115" on="0"/>
        <pt x="40" y="236" on="0"/>
        <pt x="40" y="315" on="1"/>
        <pt x="40" y="391" on="0"/>
        <pt x="85" y="512" on="0"/>
        <pt x="168" y="596" on="0"/>
        <pt x="283" y="641" on="0"/>
        <pt x="352" y="641" on="1"/>
        <pt x="404" y="641" on="0"/>
        <pt x="453" y="630" on="1"/>
        <pt x="839" y="630" on="1"/>
        <pt x="839" y="524" on="1"/>
        <pt x="568" y="524" on="1"/>
        <pt x="568" y="380" on="1"/>
        <pt x="813" y="380" on="1"/>
        <pt x="813" y="275" on="1"/>
        <pt x="568" y="275" on="1"/>
        <pt x="568" y="106" on="1"/>
        <pt x="842" y="106" on="1"/>
        <pt x="842" y="0" on="1"/>
        <pt x="449" y="0" on="1"/>
        <pt x="425" y="-6" on="0"/>
        <pt x="375" y="-11" on="0"/>
      </contour>
      <contour>
        <pt x="350" y="537" on="1"/>
        <pt x="314" y="537" on="0"/>
        <pt x="254" y="510" on="0"/>
        <pt x="210" y="454" on="0"/>
        <pt x="185" y="371" on="0"/>
        <pt x="185" y="315" on="1"/>
        <pt x="185" y="259" on="0"/>
        <pt x="210" y="176" on="0"/>
        <pt x="255" y="120" on="0"/>
        <pt x="317" y="93" on="0"/>
        <pt x="353" y="93" on="1"/>
        <pt x="374" y="93" on="0"/>
        <pt x="414" y="101" on="0"/>
        <pt x="431" y="111" on="1"/>
        <pt x="431" y="519" on="1"/>
        <pt x="395" y="537" on="0"/>
      </contour>
    </TTGlyph>
    <TTGlyph name="Oacute" xMin="40" yMin="-11" xMax="664" yMax="819">
      <contour>
        <pt x="354" y="641" on="1"/>
        <pt x="421" y="641" on="0"/>
        <pt x="535" y="597" on="0"/>
        <pt x="617" y="514" on="0"/>
        <pt x="664" y="392" on="0"/>
        <pt x="664" y="314" on="1"/>
        <pt x="664" y="238" on="0"/>
        <pt x="616" y="118" on="0"/>
        <pt x="532" y="34" on="0"/>
        <pt x="417" y="-11" on="0"/>
        <pt x="350" y="-11" on="1"/>
        <pt x="283" y="-11" on="0"/>
        <pt x="169" y="32" on="0"/>
        <pt x="87" y="115" on="0"/>
        <pt x="40" y="236" on="0"/>
        <pt x="40" y="314" on="1"/>
        <pt x="40" y="390" on="0"/>
        <pt x="88" y="511" on="0"/>
        <pt x="172" y="596" on="0"/>
        <pt x="287" y="641" on="0"/>
      </contour>
      <contour>
        <pt x="185" y="314" on="1"/>
        <pt x="185" y="258" on="0"/>
        <pt x="212" y="175" on="0"/>
        <pt x="258" y="120" on="0"/>
        <pt x="319" y="93" on="0"/>
        <pt x="354" y="93" on="1"/>
        <pt x="388" y="93" on="0"/>
        <pt x="449" y="120" on="0"/>
        <pt x="493" y="175" on="0"/>
        <pt x="519" y="258" on="0"/>
        <pt x="519" y="314" on="1"/>
        <pt x="519" y="372" on="0"/>
        <pt x="492" y="456" on="0"/>
        <pt x="446" y="511" on="0"/>
        <pt x="385" y="537" on="0"/>
        <pt x="350" y="537" on="1"/>
        <pt x="315" y="537" on="0"/>
        <pt x="255" y="509" on="0"/>
        <pt x="211" y="454" on="0"/>
        <pt x="185" y="370" on="0"/>
      </contour>
      <contour>
        <pt x="351" y="695" on="1"/>
        <pt x="242" y="695" on="1"/>
        <pt x="322" y="819" on="1"/>
        <pt x="466" y="819" on="1"/>
      </contour>
    </TTGlyph>
    <TTGlyph name="Obreve" xMin="40" yMin="-11" xMax="664" yMax="819">
      <contour>
        <pt x="354" y="641" on="1"/>
        <pt x="421" y="641" on="0"/>
        <pt x="535" y="597" on="0"/>
        <pt x="617" y="514" on="0"/>
        <pt x="664" y="392" on="0"/>
        <pt x="664" y="314" on="1"/>
        <pt x="664" y="238" on="0"/>
        <pt x="616" y="118" on="0"/>
        <pt x="532" y="34" on="0"/>
        <pt x="417" y="-11" on="0"/>
        <pt x="350" y="-11" on="1"/>
        <pt x="283" y="-11" on="0"/>
        <pt x="169" y="32" on="0"/>
        <pt x="87" y="115" on="0"/>
        <pt x="40" y="236" on="0"/>
        <pt x="40" y="314" on="1"/>
        <pt x="40" y="390" on="0"/>
        <pt x="88" y="511" on="0"/>
        <pt x="172" y="596" on="0"/>
        <pt x="287" y="641" on="0"/>
      </contour>
      <contour>
        <pt x="185" y="314" on="1"/>
        <pt x="185" y="258" on="0"/>
        <pt x="212" y="175" on="0"/>
        <pt x="258" y="120" on="0"/>
        <pt x="319" y="93" on="0"/>
        <pt x="354" y="93" on="1"/>
        <pt x="388" y="93" on="0"/>
        <pt x="449" y="120" on="0"/>
        <pt x="493" y="175" on="0"/>
        <pt x="519" y="258" on="0"/>
        <pt x="519" y="314" on="1"/>
        <pt x="519" y="372" on="0"/>
        <pt x="492" y="456" on="0"/>
        <pt x="446" y="511" on="0"/>
        <pt x="385" y="537" on="0"/>
        <pt x="350" y="537" on="1"/>
        <pt x="315" y="537" on="0"/>
        <pt x="255" y="509" on="0"/>
        <pt x="211" y="454" on="0"/>
        <pt x="185" y="370" on="0"/>
      </contour>
      <contour>
        <pt x="293" y="819" on="1"/>
        <pt x="295" y="794" on="0"/>
        <pt x="320" y="764" on="0"/>
        <pt x="351" y="764" on="1"/>
        <pt x="404" y="764" on="0"/>
        <pt x="407" y="819" on="1"/>
        <pt x="484" y="819" on="1"/>
        <pt x="484" y="759" on="0"/>
        <pt x="415" y="691" on="0"/>
        <pt x="350" y="691" on="1"/>
        <pt x="314" y="691" on="0"/>
        <pt x="263" y="712" on="0"/>
        <pt x="230" y="747" on="0"/>
        <pt x="215" y="793" on="0"/>
        <pt x="215" y="819" on="1"/>
      </contour>
    </TTGlyph>
    <TTGlyph name="Ocircumflex" xMin="40" yMin="-11" xMax="664" yMax="821">
      <contour>
        <pt x="354" y="641" on="1"/>
        <pt x="421" y="641" on="0"/>
        <pt x="535" y="597" on="0"/>
        <pt x="617" y="514" on="0"/>
        <pt x="664" y="392" on="0"/>
        <pt x="664" y="314" on="1"/>
        <pt x="664" y="238" on="0"/>
        <pt x="616" y="118" on="0"/>
        <pt x="532" y="34" on="0"/>
        <pt x="417" y="-11" on="0"/>
        <pt x="350" y="-11" on="1"/>
        <pt x="283" y="-11" on="0"/>
        <pt x="169" y="32" on="0"/>
        <pt x="87" y="115" on="0"/>
        <pt x="40" y="236" on="0"/>
        <pt x="40" y="314" on="1"/>
        <pt x="40" y="390" on="0"/>
        <pt x="88" y="511" on="0"/>
        <pt x="172" y="596" on="0"/>
        <pt x="287" y="641" on="0"/>
      </contour>
      <contour>
        <pt x="185" y="314" on="1"/>
        <pt x="185" y="258" on="0"/>
        <pt x="212" y="175" on="0"/>
        <pt x="258" y="120" on="0"/>
        <pt x="319" y="93" on="0"/>
        <pt x="354" y="93" on="1"/>
        <pt x="388" y="93" on="0"/>
        <pt x="449" y="120" on="0"/>
        <pt x="493" y="175" on="0"/>
        <pt x="519" y="258" on="0"/>
        <pt x="519" y="314" on="1"/>
        <pt x="519" y="372" on="0"/>
        <pt x="492" y="456" on="0"/>
        <pt x="446" y="511" on="0"/>
        <pt x="385" y="537" on="0"/>
        <pt x="350" y="537" on="1"/>
        <pt x="315" y="537" on="0"/>
        <pt x="255" y="509" on="0"/>
        <pt x="211" y="454" on="0"/>
        <pt x="185" y="370" on="0"/>
      </contour>
      <contour>
        <pt x="305" y="821" on="1"/>
        <pt x="404" y="821" on="1"/>
        <pt x="522" y="695" on="1"/>
        <pt x="419" y="695" on="1"/>
        <pt x="354" y="764" on="1"/>
        <pt x="289" y="695" on="1"/>
        <pt x="191" y="695" on="1"/>
      </contour>
    </TTGlyph>
    <TTGlyph name="Odieresis" xMin="40" yMin="-11" xMax="664" yMax="813">
      <contour>
        <pt x="354" y="641" on="1"/>
        <pt x="421" y="641" on="0"/>
        <pt x="535" y="597" on="0"/>
        <pt x="617" y="514" on="0"/>
        <pt x="664" y="392" on="0"/>
        <pt x="664" y="314" on="1"/>
        <pt x="664" y="238" on="0"/>
        <pt x="616" y="118" on="0"/>
        <pt x="532" y="34" on="0"/>
        <pt x="417" y="-11" on="0"/>
        <pt x="350" y="-11" on="1"/>
        <pt x="283" y="-11" on="0"/>
        <pt x="169" y="32" on="0"/>
        <pt x="87" y="115" on="0"/>
        <pt x="40" y="236" on="0"/>
        <pt x="40" y="314" on="1"/>
        <pt x="40" y="390" on="0"/>
        <pt x="88" y="511" on="0"/>
        <pt x="172" y="596" on="0"/>
        <pt x="287" y="641" on="0"/>
      </contour>
      <contour>
        <pt x="185" y="314" on="1"/>
        <pt x="185" y="258" on="0"/>
        <pt x="212" y="175" on="0"/>
        <pt x="258" y="120" on="0"/>
        <pt x="319" y="93" on="0"/>
        <pt x="354" y="93" on="1"/>
        <pt x="388" y="93" on="0"/>
        <pt x="449" y="120" on="0"/>
        <pt x="493" y="175" on="0"/>
        <pt x="519" y="258" on="0"/>
        <pt x="519" y="314" on="1"/>
        <pt x="519" y="372" on="0"/>
        <pt x="492" y="456" on="0"/>
        <pt x="446" y="511" on="0"/>
        <pt x="385" y="537" on="0"/>
        <pt x="350" y="537" on="1"/>
        <pt x="315" y="537" on="0"/>
        <pt x="255" y="509" on="0"/>
        <pt x="211" y="454" on="0"/>
        <pt x="185" y="370" on="0"/>
      </contour>
      <contour>
        <pt x="192" y="751" on="1"/>
        <pt x="192" y="777" on="0"/>
        <pt x="230" y="813" on="0"/>
        <pt x="256" y="813" on="1"/>
        <pt x="282" y="813" on="0"/>
        <pt x="319" y="777" on="0"/>
        <pt x="319" y="751" on="1"/>
        <pt x="319" y="724" on="0"/>
        <pt x="282" y="687" on="0"/>
        <pt x="256" y="687" on="1"/>
        <pt x="230" y="687" on="0"/>
        <pt x="192" y="724" on="0"/>
      </contour>
      <contour>
        <pt x="388" y="751" on="1"/>
        <pt x="388" y="777" on="0"/>
        <pt x="425" y="813" on="0"/>
        <pt x="451" y="813" on="1"/>
        <pt x="477" y="813" on="0"/>
        <pt x="514" y="777" on="0"/>
        <pt x="514" y="751" on="1"/>
        <pt x="514" y="724" on="0"/>
        <pt x="477" y="687" on="0"/>
        <pt x="451" y="687" on="1"/>
        <pt x="425" y="687" on="0"/>
        <pt x="388" y="724" on="0"/>
      </contour>
    </TTGlyph>
    <TTGlyph name="Ogonek" xMin="29" yMin="-206" xMax="221" yMax="0">
      <contour>
        <pt x="78" y="0" on="1"/>
        <pt x="172" y="0" on="1"/>
        <pt x="147" y="-19" on="0"/>
        <pt x="116" y="-57" on="0"/>
        <pt x="116" y="-80" on="1"/>
        <pt x="116" y="-100" on="0"/>
        <pt x="140" y="-124" on="0"/>
        <pt x="161" y="-124" on="1"/>
        <pt x="174" y="-124" on="0"/>
        <pt x="194" y="-119" on="0"/>
        <pt x="203" y="-116" on="1"/>
        <pt x="221" y="-184" on="1"/>
        <pt x="186" y="-206" on="0"/>
        <pt x="136" y="-206" on="1"/>
        <pt x="90" y="-206" on="0"/>
        <pt x="29" y="-152" on="0"/>
        <pt x="29" y="-105" on="1"/>
        <pt x="29" y="-67" on="0"/>
        <pt x="61" y="-17" on="0"/>
      </contour>
    </TTGlyph>
    <TTGlyph name="Ograve" xMin="40" yMin="-11" xMax="664" yMax="819">
      <contour>
        <pt x="354" y="641" on="1"/>
        <pt x="421" y="641" on="0"/>
        <pt x="535" y="597" on="0"/>
        <pt x="617" y="514" on="0"/>
        <pt x="664" y="392" on="0"/>
        <pt x="664" y="314" on="1"/>
        <pt x="664" y="238" on="0"/>
        <pt x="616" y="118" on="0"/>
        <pt x="532" y="34" on="0"/>
        <pt x="417" y="-11" on="0"/>
        <pt x="350" y="-11" on="1"/>
        <pt x="283" y="-11" on="0"/>
        <pt x="169" y="32" on="0"/>
        <pt x="87" y="115" on="0"/>
        <pt x="40" y="236" on="0"/>
        <pt x="40" y="314" on="1"/>
        <pt x="40" y="390" on="0"/>
        <pt x="88" y="511" on="0"/>
        <pt x="172" y="596" on="0"/>
        <pt x="287" y="641" on="0"/>
      </contour>
      <contour>
        <pt x="185" y="314" on="1"/>
        <pt x="185" y="258" on="0"/>
        <pt x="212" y="175" on="0"/>
        <pt x="258" y="120" on="0"/>
        <pt x="319" y="93" on="0"/>
        <pt x="354" y="93" on="1"/>
        <pt x="388" y="93" on="0"/>
        <pt x="449" y="120" on="0"/>
        <pt x="493" y="175" on="0"/>
        <pt x="519" y="258" on="0"/>
        <pt x="519" y="314" on="1"/>
        <pt x="519" y="372" on="0"/>
        <pt x="492" y="456" on="0"/>
        <pt x="446" y="511" on="0"/>
        <pt x="385" y="537" on="0"/>
        <pt x="350" y="537" on="1"/>
        <pt x="315" y="537" on="0"/>
        <pt x="255" y="509" on="0"/>
        <pt x="211" y="454" on="0"/>
        <pt x="185" y="370" on="0"/>
      </contour>
      <contour>
        <pt x="237" y="819" on="1"/>
        <pt x="381" y="819" on="1"/>
        <pt x="461" y="695" on="1"/>
        <pt x="351" y="695" on="1"/>
      </contour>
    </TTGlyph>
    <TTGlyph name="Ohungarumlaut" xMin="40" yMin="-11" xMax="664" yMax="819">
      <contour>
        <pt x="354" y="641" on="1"/>
        <pt x="421" y="641" on="0"/>
        <pt x="535" y="597" on="0"/>
        <pt x="617" y="514" on="0"/>
        <pt x="664" y="392" on="0"/>
        <pt x="664" y="314" on="1"/>
        <pt x="664" y="238" on="0"/>
        <pt x="616" y="118" on="0"/>
        <pt x="532" y="34" on="0"/>
        <pt x="417" y="-11" on="0"/>
        <pt x="350" y="-11" on="1"/>
        <pt x="283" y="-11" on="0"/>
        <pt x="169" y="32" on="0"/>
        <pt x="87" y="115" on="0"/>
        <pt x="40" y="236" on="0"/>
        <pt x="40" y="314" on="1"/>
        <pt x="40" y="390" on="0"/>
        <pt x="88" y="511" on="0"/>
        <pt x="172" y="596" on="0"/>
        <pt x="287" y="641" on="0"/>
      </contour>
      <contour>
        <pt x="185" y="314" on="1"/>
        <pt x="185" y="258" on="0"/>
        <pt x="212" y="175" on="0"/>
        <pt x="258" y="120" on="0"/>
        <pt x="319" y="93" on="0"/>
        <pt x="354" y="93" on="1"/>
        <pt x="388" y="93" on="0"/>
        <pt x="449" y="120" on="0"/>
        <pt x="493" y="175" on="0"/>
        <pt x="519" y="258" on="0"/>
        <pt x="519" y="314" on="1"/>
        <pt x="519" y="372" on="0"/>
        <pt x="492" y="456" on="0"/>
        <pt x="446" y="511" on="0"/>
        <pt x="385" y="537" on="0"/>
        <pt x="350" y="537" on="1"/>
        <pt x="315" y="537" on="0"/>
        <pt x="255" y="509" on="0"/>
        <pt x="211" y="454" on="0"/>
        <pt x="185" y="370" on="0"/>
      </contour>
      <contour>
        <pt x="274" y="695" on="1"/>
        <pt x="172" y="695" on="1"/>
        <pt x="252" y="819" on="1"/>
        <pt x="383" y="819" on="1"/>
      </contour>
      <contour>
        <pt x="483" y="695" on="1"/>
        <pt x="381" y="695" on="1"/>
        <pt x="461" y="819" on="1"/>
        <pt x="593" y="819" on="1"/>
      </contour>
    </TTGlyph>
    <TTGlyph name="Omacron" xMin="40" yMin="-11" xMax="664" yMax="772">
      <contour>
        <pt x="354" y="641" on="1"/>
        <pt x="421" y="641" on="0"/>
        <pt x="535" y="597" on="0"/>
        <pt x="617" y="514" on="0"/>
        <pt x="664" y="392" on="0"/>
        <pt x="664" y="314" on="1"/>
        <pt x="664" y="238" on="0"/>
        <pt x="616" y="118" on="0"/>
        <pt x="532" y="34" on="0"/>
        <pt x="417" y="-11" on="0"/>
        <pt x="350" y="-11" on="1"/>
        <pt x="283" y="-11" on="0"/>
        <pt x="169" y="32" on="0"/>
        <pt x="87" y="115" on="0"/>
        <pt x="40" y="236" on="0"/>
        <pt x="40" y="314" on="1"/>
        <pt x="40" y="390" on="0"/>
        <pt x="88" y="511" on="0"/>
        <pt x="172" y="596" on="0"/>
        <pt x="287" y="641" on="0"/>
      </contour>
      <contour>
        <pt x="185" y="314" on="1"/>
        <pt x="185" y="258" on="0"/>
        <pt x="212" y="175" on="0"/>
        <pt x="258" y="120" on="0"/>
        <pt x="319" y="93" on="0"/>
        <pt x="354" y="93" on="1"/>
        <pt x="388" y="93" on="0"/>
        <pt x="449" y="120" on="0"/>
        <pt x="493" y="175" on="0"/>
        <pt x="519" y="258" on="0"/>
        <pt x="519" y="314" on="1"/>
        <pt x="519" y="372" on="0"/>
        <pt x="492" y="456" on="0"/>
        <pt x="446" y="511" on="0"/>
        <pt x="385" y="537" on="0"/>
        <pt x="350" y="537" on="1"/>
        <pt x="315" y="537" on="0"/>
        <pt x="255" y="509" on="0"/>
        <pt x="211" y="454" on="0"/>
        <pt x="185" y="370" on="0"/>
      </contour>
      <contour>
        <pt x="480" y="772" on="1"/>
        <pt x="480" y="695" on="1"/>
        <pt x="224" y="695" on="1"/>
        <pt x="224" y="772" on="1"/>
      </contour>
    </TTGlyph>
    <TTGlyph name="Oslash" xMin="40" yMin="-161" xMax="664" yMax="754">
      <contour>
        <pt x="517" y="754" on="1"/>
        <pt x="580" y="727" on="1"/>
        <pt x="522" y="597" on="1"/>
        <pt x="587" y="558" on="0"/>
        <pt x="664" y="416" on="0"/>
        <pt x="664" y="314" on="1"/>
        <pt x="664" y="238" on="0"/>
        <pt x="616" y="118" on="0"/>
        <pt x="532" y="34" on="0"/>
        <pt x="417" y="-11" on="0"/>
        <pt x="350" y="-11" on="1"/>
        <pt x="326" y="-11" on="0"/>
        <pt x="277" y="-4" on="0"/>
        <pt x="256" y="1" on="1"/>
        <pt x="186" y="-161" on="1"/>
        <pt x="123" y="-133" on="1"/>
        <pt x="193" y="25" on="1"/>
        <pt x="123" y="63" on="0"/>
        <pt x="40" y="208" on="0"/>
        <pt x="40" y="314" on="1"/>
        <pt x="40" y="390" on="0"/>
        <pt x="88" y="511" on="0"/>
        <pt x="172" y="596" on="0"/>
        <pt x="287" y="641" on="0"/>
        <pt x="354" y="641" on="1"/>
        <pt x="381" y="641" on="0"/>
        <pt x="436" y="633" on="0"/>
        <pt x="460" y="625" on="1"/>
      </contour>
      <contour>
        <pt x="185" y="314" on="1"/>
        <pt x="185" y="245" on="0"/>
        <pt x="217" y="157" on="0"/>
        <pt x="243" y="132" on="1"/>
        <pt x="412" y="527" on="1"/>
        <pt x="398" y="532" on="0"/>
        <pt x="366" y="537" on="0"/>
        <pt x="350" y="537" on="1"/>
        <pt x="315" y="537" on="0"/>
        <pt x="255" y="509" on="0"/>
        <pt x="211" y="454" on="0"/>
        <pt x="185" y="370" on="0"/>
      </contour>
      <contour>
        <pt x="354" y="93" on="1"/>
        <pt x="388" y="93" on="0"/>
        <pt x="449" y="120" on="0"/>
        <pt x="493" y="175" on="0"/>
        <pt x="519" y="258" on="0"/>
        <pt x="519" y="314" on="1"/>
        <pt x="519" y="376" on="0"/>
        <pt x="493" y="460" on="0"/>
        <pt x="470" y="486" on="1"/>
        <pt x="304" y="99" on="1"/>
        <pt x="328" y="93" on="0"/>
      </contour>
    </TTGlyph>
    <TTGlyph name="Oslashacute" xMin="40" yMin="-161" xMax="664" yMax="819">
      <contour>
        <pt x="349" y="695" on="1"/>
        <pt x="239" y="695" on="1"/>
        <pt x="319" y="819" on="1"/>
        <pt x="463" y="819" on="1"/>
      </contour>
      <contour>
        <pt x="517" y="754" on="1"/>
        <pt x="580" y="727" on="1"/>
        <pt x="522" y="597" on="1"/>
        <pt x="587" y="558" on="0"/>
        <pt x="664" y="416" on="0"/>
        <pt x="664" y="314" on="1"/>
        <pt x="664" y="238" on="0"/>
        <pt x="616" y="118" on="0"/>
        <pt x="532" y="34" on="0"/>
        <pt x="417" y="-11" on="0"/>
        <pt x="350" y="-11" on="1"/>
        <pt x="326" y="-11" on="0"/>
        <pt x="277" y="-4" on="0"/>
        <pt x="256" y="1" on="1"/>
        <pt x="186" y="-161" on="1"/>
        <pt x="123" y="-133" on="1"/>
        <pt x="193" y="25" on="1"/>
        <pt x="123" y="63" on="0"/>
        <pt x="40" y="208" on="0"/>
        <pt x="40" y="314" on="1"/>
        <pt x="40" y="390" on="0"/>
        <pt x="88" y="511" on="0"/>
        <pt x="172" y="596" on="0"/>
        <pt x="287" y="641" on="0"/>
        <pt x="354" y="641" on="1"/>
        <pt x="381" y="641" on="0"/>
        <pt x="436" y="633" on="0"/>
        <pt x="460" y="625" on="1"/>
      </contour>
      <contour>
        <pt x="185" y="314" on="1"/>
        <pt x="185" y="245" on="0"/>
        <pt x="217" y="157" on="0"/>
        <pt x="243" y="132" on="1"/>
        <pt x="412" y="527" on="1"/>
        <pt x="398" y="532" on="0"/>
        <pt x="366" y="537" on="0"/>
        <pt x="350" y="537" on="1"/>
        <pt x="315" y="537" on="0"/>
        <pt x="255" y="509" on="0"/>
        <pt x="211" y="454" on="0"/>
        <pt x="185" y="370" on="0"/>
      </contour>
      <contour>
        <pt x="354" y="93" on="1"/>
        <pt x="388" y="93" on="0"/>
        <pt x="449" y="120" on="0"/>
        <pt x="493" y="175" on="0"/>
        <pt x="519" y="258" on="0"/>
        <pt x="519" y="314" on="1"/>
        <pt x="519" y="376" on="0"/>
        <pt x="493" y="460" on="0"/>
        <pt x="470" y="486" on="1"/>
        <pt x="304" y="99" on="1"/>
        <pt x="328" y="93" on="0"/>
      </contour>
    </TTGlyph>
    <TTGlyph name="Osmall" xMin="41" yMin="-11" xMax="531" yMax="487">
      <contour>
        <pt x="531" y="242" on="1"/>
        <pt x="531" y="183" on="0"/>
        <pt x="493" y="89" on="0"/>
        <pt x="426" y="24" on="0"/>
        <pt x="336" y="-11" on="0"/>
        <pt x="284" y="-11" on="1"/>
        <pt x="232" y="-11" on="0"/>
        <pt x="143" y="21" on="0"/>
        <pt x="78" y="83" on="0"/>
        <pt x="41" y="174" on="0"/>
        <pt x="41" y="232" on="1"/>
        <pt x="41" y="293" on="0"/>
        <pt x="79" y="388" on="0"/>
        <pt x="146" y="453" on="0"/>
        <pt x="236" y="487" on="0"/>
        <pt x="288" y="487" on="1"/>
        <pt x="340" y="487" on="0"/>
        <pt x="429" y="455" on="0"/>
        <pt x="494" y="394" on="0"/>
        <pt x="531" y="302" on="0"/>
      </contour>
      <contour>
        <pt x="394" y="237" on="1"/>
        <pt x="394" y="278" on="0"/>
        <pt x="376" y="336" on="0"/>
        <pt x="345" y="372" on="0"/>
        <pt x="306" y="389" on="0"/>
        <pt x="285" y="389" on="1"/>
        <pt x="264" y="389" on="0"/>
        <pt x="226" y="374" on="0"/>
        <pt x="196" y="339" on="0"/>
        <pt x="178" y="281" on="0"/>
        <pt x="178" y="237" on="1"/>
        <pt x="178" y="198" on="0"/>
        <pt x="196" y="141" on="0"/>
        <pt x="226" y="105" on="0"/>
        <pt x="266" y="87" on="0"/>
        <pt x="287" y="87" on="1"/>
        <pt x="308" y="87" on="0"/>
        <pt x="346" y="102" on="0"/>
        <pt x="376" y="138" on="0"/>
        <pt x="394" y="195" on="0"/>
      </contour>
    </TTGlyph>
    <TTGlyph name="Otilde" xMin="40" yMin="-11" xMax="664" yMax="816">
      <contour>
        <pt x="354" y="641" on="1"/>
        <pt x="421" y="641" on="0"/>
        <pt x="535" y="597" on="0"/>
        <pt x="617" y="514" on="0"/>
        <pt x="664" y="392" on="0"/>
        <pt x="664" y="314" on="1"/>
        <pt x="664" y="238" on="0"/>
        <pt x="616" y="118" on="0"/>
        <pt x="532" y="34" on="0"/>
        <pt x="417" y="-11" on="0"/>
        <pt x="350" y="-11" on="1"/>
        <pt x="283" y="-11" on="0"/>
        <pt x="169" y="32" on="0"/>
        <pt x="87" y="115" on="0"/>
        <pt x="40" y="236" on="0"/>
        <pt x="40" y="314" on="1"/>
        <pt x="40" y="390" on="0"/>
        <pt x="88" y="511" on="0"/>
        <pt x="172" y="596" on="0"/>
        <pt x="287" y="641" on="0"/>
      </contour>
      <contour>
        <pt x="185" y="314" on="1"/>
        <pt x="185" y="258" on="0"/>
        <pt x="212" y="175" on="0"/>
        <pt x="258" y="120" on="0"/>
        <pt x="319" y="93" on="0"/>
        <pt x="354" y="93" on="1"/>
        <pt x="388" y="93" on="0"/>
        <pt x="449" y="120" on="0"/>
        <pt x="493" y="175" on="0"/>
        <pt x="519" y="258" on="0"/>
        <pt x="519" y="314" on="1"/>
        <pt x="519" y="372" on="0"/>
        <pt x="492" y="456" on="0"/>
        <pt x="446" y="511" on="0"/>
        <pt x="385" y="537" on="0"/>
        <pt x="350" y="537" on="1"/>
        <pt x="315" y="537" on="0"/>
        <pt x="255" y="509" on="0"/>
        <pt x="211" y="454" on="0"/>
        <pt x="185" y="370" on="0"/>
      </contour>
      <contour>
        <pt x="197" y="695" on="1"/>
        <pt x="197" y="745" on="0"/>
        <pt x="243" y="813" on="0"/>
        <pt x="288" y="813" on="1"/>
        <pt x="306" y="813" on="0"/>
        <pt x="336" y="802" on="0"/>
        <pt x="363" y="789" on="0"/>
        <pt x="389" y="778" on="0"/>
        <pt x="403" y="778" on="1"/>
        <pt x="419" y="778" on="0"/>
        <pt x="434" y="799" on="0"/>
        <pt x="435" y="816" on="1"/>
        <pt x="500" y="816" on="1"/>
        <pt x="500" y="765" on="0"/>
        <pt x="454" y="700" on="0"/>
        <pt x="414" y="700" on="1"/>
        <pt x="394" y="700" on="0"/>
        <pt x="360" y="711" on="0"/>
        <pt x="330" y="723" on="0"/>
        <pt x="304" y="734" on="0"/>
        <pt x="294" y="734" on="1"/>
        <pt x="277" y="734" on="0"/>
        <pt x="264" y="712" on="0"/>
        <pt x="262" y="695" on="1"/>
      </contour>
    </TTGlyph>
    <TTGlyph name="P" xMin="69" yMin="0" xMax="531" yMax="630">
      <contour>
        <pt x="69" y="630" on="1"/>
        <pt x="290" y="630" on="1"/>
        <pt x="345" y="630" on="0"/>
        <pt x="434" y="604" on="0"/>
        <pt x="497" y="554" on="0"/>
        <pt x="531" y="483" on="0"/>
        <pt x="531" y="437" on="1"/>
        <pt x="531" y="383" on="0"/>
        <pt x="491" y="305" on="0"/>
        <pt x="422" y="254" on="0"/>
        <pt x="330" y="229" on="0"/>
        <pt x="278" y="229" on="1"/>
        <pt x="206" y="229" on="1"/>
        <pt x="206" y="0" on="1"/>
        <pt x="69" y="0" on="1"/>
      </contour>
      <contour>
        <pt x="206" y="334" on="1"/>
        <pt x="262" y="334" on="1"/>
        <pt x="288" y="334" on="0"/>
        <pt x="335" y="343" on="0"/>
        <pt x="370" y="366" on="0"/>
        <pt x="390" y="403" on="0"/>
        <pt x="390" y="431" on="1"/>
        <pt x="390" y="480" on="0"/>
        <pt x="324" y="526" on="0"/>
        <pt x="273" y="526" on="1"/>
        <pt x="206" y="526" on="1"/>
      </contour>
    </TTGlyph>
    <TTGlyph name="Psmall" xMin="64" yMin="0" xMax="447" yMax="477">
      <contour>
        <pt x="64" y="477" on="1"/>
        <pt x="262" y="477" on="1"/>
        <pt x="299" y="477" on="0"/>
        <pt x="367" y="456" on="0"/>
        <pt x="417" y="417" on="0"/>
        <pt x="447" y="361" on="0"/>
        <pt x="447" y="325" on="1"/>
        <pt x="447" y="272" on="0"/>
        <pt x="407" y="207" on="0"/>
        <pt x="343" y="170" on="0"/>
        <pt x="264" y="157" on="0"/>
        <pt x="225" y="157" on="1"/>
        <pt x="197" y="157" on="1"/>
        <pt x="197" y="0" on="1"/>
        <pt x="64" y="0" on="1"/>
      </contour>
      <contour>
        <pt x="196" y="255" on="1"/>
        <pt x="228" y="255" on="1"/>
        <pt x="243" y="255" on="0"/>
        <pt x="273" y="260" on="0"/>
        <pt x="297" y="275" on="0"/>
        <pt x="312" y="301" on="0"/>
        <pt x="312" y="322" on="1"/>
        <pt x="312" y="340" on="0"/>
        <pt x="297" y="362" on="0"/>
        <pt x="274" y="375" on="0"/>
        <pt x="245" y="379" on="0"/>
        <pt x="231" y="379" on="1"/>
        <pt x="196" y="379" on="1"/>
      </contour>
    </TTGlyph>
    <TTGlyph name="Q" xMin="40" yMin="-215" xMax="685" yMax="641">
      <contour>
        <pt x="353" y="641" on="1"/>
        <pt x="420" y="641" on="0"/>
        <pt x="534" y="597" on="0"/>
        <pt x="617" y="514" on="0"/>
        <pt x="664" y="392" on="0"/>
        <pt x="664" y="314" on="1"/>
        <pt x="664" y="204" on="0"/>
        <pt x="567" y="46" on="0"/>
        <pt x="479" y="-2" on="1"/>
        <pt x="362" y="-67" on="1"/>
        <pt x="384" y="-69" on="0"/>
        <pt x="425" y="-82" on="0"/>
        <pt x="470" y="-97" on="0"/>
        <pt x="519" y="-109" on="0"/>
        <pt x="549" y="-109" on="1"/>
        <pt x="574" y="-109" on="0"/>
        <pt x="622" y="-93" on="0"/>
        <pt x="637" y="-81" on="1"/>
        <pt x="685" y="-173" on="1"/>
        <pt x="668" y="-187" on="0"/>
        <pt x="600" y="-215" on="0"/>
        <pt x="552" y="-215" on="1"/>
        <pt x="510" y="-215" on="0"/>
        <pt x="436" y="-196" on="0"/>
        <pt x="368" y="-173" on="0"/>
        <pt x="304" y="-154" on="0"/>
        <pt x="271" y="-154" on="1"/>
        <pt x="241" y="-154" on="0"/>
        <pt x="193" y="-167" on="0"/>
        <pt x="168" y="-182" on="1"/>
        <pt x="122" y="-96" on="1"/>
        <pt x="284" y="-3" on="1"/>
        <pt x="172" y="17" on="0"/>
        <pt x="40" y="181" on="0"/>
        <pt x="40" y="314" on="1"/>
        <pt x="40" y="390" on="0"/>
        <pt x="87" y="511" on="0"/>
        <pt x="171" y="596" on="0"/>
        <pt x="286" y="641" on="0"/>
      </contour>
      <contour>
        <pt x="185" y="315" on="1"/>
        <pt x="185" y="259" on="0"/>
        <pt x="211" y="175" on="0"/>
        <pt x="255" y="118" on="0"/>
        <pt x="315" y="90" on="0"/>
        <pt x="350" y="90" on="1"/>
        <pt x="386" y="90" on="0"/>
        <pt x="447" y="119" on="0"/>
        <pt x="493" y="176" on="0"/>
        <pt x="519" y="260" on="0"/>
        <pt x="519" y="315" on="1"/>
        <pt x="519" y="373" on="0"/>
        <pt x="492" y="457" on="0"/>
        <pt x="447" y="511" on="0"/>
        <pt x="385" y="537" on="0"/>
        <pt x="351" y="537" on="1"/>
        <pt x="316" y="537" on="0"/>
        <pt x="256" y="510" on="0"/>
        <pt x="211" y="454" on="0"/>
        <pt x="185" y="371" on="0"/>
      </contour>
    </TTGlyph>
    <TTGlyph name="Qsmall" xMin="41" yMin="-147" xMax="579" yMax="487">
      <contour>
        <pt x="531" y="242" on="1"/>
        <pt x="531" y="191" on="0"/>
        <pt x="502" y="108" on="0"/>
        <pt x="452" y="46" on="0"/>
        <pt x="384" y="6" on="0"/>
        <pt x="345" y="-3" on="1"/>
        <pt x="345" y="-8" on="1"/>
        <pt x="361" y="-11" on="0"/>
        <pt x="390" y="-24" on="0"/>
        <pt x="420" y="-37" on="0"/>
        <pt x="454" y="-48" on="0"/>
        <pt x="475" y="-48" on="1"/>
        <pt x="498" y="-48" on="0"/>
        <pt x="529" y="-38" on="0"/>
        <pt x="543" y="-30" on="1"/>
        <pt x="579" y="-123" on="1"/>
        <pt x="567" y="-131" on="0"/>
        <pt x="515" y="-147" on="0"/>
        <pt x="483" y="-147" on="1"/>
        <pt x="448" y="-147" on="0"/>
        <pt x="393" y="-130" on="0"/>
        <pt x="343" y="-109" on="0"/>
        <pt x="295" y="-91" on="0"/>
        <pt x="266" y="-91" on="1"/>
        <pt x="230" y="-91" on="0"/>
        <pt x="175" y="-114" on="0"/>
        <pt x="152" y="-131" on="1"/>
        <pt x="104" y="-41" on="1"/>
        <pt x="123" y="-26" on="0"/>
        <pt x="176" y="-3" on="0"/>
        <pt x="197" y="1" on="1"/>
        <pt x="197" y="3" on="1"/>
        <pt x="163" y="13" on="0"/>
        <pt x="106" y="54" on="0"/>
        <pt x="64" y="113" on="0"/>
        <pt x="41" y="188" on="0"/>
        <pt x="41" y="233" on="1"/>
        <pt x="41" y="294" on="0"/>
        <pt x="79" y="388" on="0"/>
        <pt x="145" y="453" on="0"/>
        <pt x="235" y="487" on="0"/>
        <pt x="287" y="487" on="1"/>
        <pt x="339" y="487" on="0"/>
        <pt x="428" y="455" on="0"/>
        <pt x="494" y="394" on="0"/>
        <pt x="531" y="302" on="0"/>
      </contour>
      <contour>
        <pt x="394" y="237" on="1"/>
        <pt x="394" y="278" on="0"/>
        <pt x="376" y="336" on="0"/>
        <pt x="345" y="372" on="0"/>
        <pt x="305" y="389" on="0"/>
        <pt x="284" y="389" on="1"/>
        <pt x="263" y="389" on="0"/>
        <pt x="225" y="375" on="0"/>
        <pt x="196" y="340" on="0"/>
        <pt x="178" y="282" on="0"/>
        <pt x="178" y="238" on="1"/>
        <pt x="178" y="199" on="0"/>
        <pt x="196" y="142" on="0"/>
        <pt x="226" y="105" on="0"/>
        <pt x="265" y="87" on="0"/>
        <pt x="286" y="87" on="1"/>
        <pt x="307" y="87" on="0"/>
        <pt x="346" y="102" on="0"/>
        <pt x="376" y="137" on="0"/>
        <pt x="394" y="195" on="0"/>
      </contour>
    </TTGlyph>
    <TTGlyph name="R" xMin="69" yMin="0" xMax="556" yMax="630">
      <contour>
        <pt x="69" y="630" on="1"/>
        <pt x="308" y="630" on="1"/>
        <pt x="361" y="630" on="0"/>
        <pt x="442" y="599" on="0"/>
        <pt x="496" y="546" on="0"/>
        <pt x="523" y="475" on="0"/>
        <pt x="523" y="434" on="1"/>
        <pt x="523" y="396" on="0"/>
        <pt x="500" y="337" on="0"/>
        <pt x="465" y="294" on="0"/>
        <pt x="422" y="265" on="0"/>
        <pt x="402" y="256" on="1"/>
        <pt x="556" y="0" on="1"/>
        <pt x="399" y="0" on="1"/>
        <pt x="278" y="232" on="1"/>
        <pt x="205" y="232" on="1"/>
        <pt x="205" y="0" on="1"/>
        <pt x="69" y="0" on="1"/>
      </contour>
      <contour>
        <pt x="205" y="337" on="1"/>
        <pt x="259" y="337" on="1"/>
        <pt x="313" y="337" on="0"/>
        <pt x="382" y="381" on="0"/>
        <pt x="382" y="432" on="1"/>
        <pt x="382" y="477" on="0"/>
        <pt x="327" y="526" on="0"/>
        <pt x="274" y="526" on="1"/>
        <pt x="205" y="526" on="1"/>
      </contour>
    </TTGlyph>
    <TTGlyph name="R.alt" xMin="69" yMin="0" xMax="556" yMax="630">
      <contour>
        <pt x="69" y="630" on="1"/>
        <pt x="308" y="630" on="1"/>
        <pt x="361" y="630" on="0"/>
        <pt x="442" y="599" on="0"/>
        <pt x="496" y="546" on="0"/>
        <pt x="523" y="475" on="0"/>
        <pt x="523" y="434" on="1"/>
        <pt x="523" y="396" on="0"/>
        <pt x="500" y="337" on="0"/>
        <pt x="465" y="294" on="0"/>
        <pt x="422" y="265" on="0"/>
        <pt x="402" y="256" on="1"/>
        <pt x="556" y="0" on="1"/>
        <pt x="399" y="0" on="1"/>
        <pt x="278" y="232" on="1"/>
        <pt x="205" y="232" on="1"/>
        <pt x="205" y="0" on="1"/>
        <pt x="69" y="0" on="1"/>
      </contour>
      <contour>
        <pt x="205" y="337" on="1"/>
        <pt x="259" y="337" on="1"/>
        <pt x="313" y="337" on="0"/>
        <pt x="382" y="381" on="0"/>
        <pt x="382" y="432" on="1"/>
        <pt x="382" y="477" on="0"/>
        <pt x="327" y="526" on="0"/>
        <pt x="274" y="526" on="1"/>
        <pt x="205" y="526" on="1"/>
      </contour>
    </TTGlyph>
    <TTGlyph name="Racute" xMin="69" yMin="0" xMax="556" yMax="819">
      <contour>
        <pt x="69" y="630" on="1"/>
        <pt x="308" y="630" on="1"/>
        <pt x="361" y="630" on="0"/>
        <pt x="442" y="599" on="0"/>
        <pt x="496" y="546" on="0"/>
        <pt x="523" y="475" on="0"/>
        <pt x="523" y="434" on="1"/>
        <pt x="523" y="396" on="0"/>
        <pt x="500" y="337" on="0"/>
        <pt x="465" y="294" on="0"/>
        <pt x="422" y="265" on="0"/>
        <pt x="402" y="256" on="1"/>
        <pt x="556" y="0" on="1"/>
        <pt x="399" y="0" on="1"/>
        <pt x="278" y="232" on="1"/>
        <pt x="205" y="232" on="1"/>
        <pt x="205" y="0" on="1"/>
        <pt x="69" y="0" on="1"/>
      </contour>
      <contour>
        <pt x="205" y="337" on="1"/>
        <pt x="259" y="337" on="1"/>
        <pt x="313" y="337" on="0"/>
        <pt x="382" y="381" on="0"/>
        <pt x="382" y="432" on="1"/>
        <pt x="382" y="477" on="0"/>
        <pt x="327" y="526" on="0"/>
        <pt x="274" y="526" on="1"/>
        <pt x="205" y="526" on="1"/>
      </contour>
      <contour>
        <pt x="292" y="695" on="1"/>
        <pt x="182" y="695" on="1"/>
        <pt x="262" y="819" on="1"/>
        <pt x="406" y="819" on="1"/>
      </contour>
    </TTGlyph>
    <TTGlyph name="Rcaron" xMin="69" yMin="0" xMax="556" yMax="822">
      <contour>
        <pt x="69" y="630" on="1"/>
        <pt x="308" y="630" on="1"/>
        <pt x="361" y="630" on="0"/>
        <pt x="442" y="599" on="0"/>
        <pt x="496" y="546" on="0"/>
        <pt x="523" y="475" on="0"/>
        <pt x="523" y="434" on="1"/>
        <pt x="523" y="396" on="0"/>
        <pt x="500" y="337" on="0"/>
        <pt x="465" y="294" on="0"/>
        <pt x="422" y="265" on="0"/>
        <pt x="402" y="256" on="1"/>
        <pt x="556" y="0" on="1"/>
        <pt x="399" y="0" on="1"/>
        <pt x="278" y="232" on="1"/>
        <pt x="205" y="232" on="1"/>
        <pt x="205" y="0" on="1"/>
        <pt x="69" y="0" on="1"/>
      </contour>
      <contour>
        <pt x="205" y="337" on="1"/>
        <pt x="259" y="337" on="1"/>
        <pt x="313" y="337" on="0"/>
        <pt x="382" y="381" on="0"/>
        <pt x="382" y="432" on="1"/>
        <pt x="382" y="477" on="0"/>
        <pt x="327" y="526" on="0"/>
        <pt x="274" y="526" on="1"/>
        <pt x="205" y="526" on="1"/>
      </contour>
      <contour>
        <pt x="318" y="695" on="1"/>
        <pt x="219" y="695" on="1"/>
        <pt x="102" y="822" on="1"/>
        <pt x="204" y="822" on="1"/>
        <pt x="269" y="752" on="1"/>
        <pt x="334" y="822" on="1"/>
        <pt x="433" y="822" on="1"/>
      </contour>
    </TTGlyph>
    <TTGlyph name="Rcommaaccent" xMin="69" yMin="-334" xMax="556" yMax="630">
      <contour>
        <pt x="69" y="630" on="1"/>
        <pt x="308" y="630" on="1"/>
        <pt x="361" y="630" on="0"/>
        <pt x="442" y="599" on="0"/>
        <pt x="496" y="546" on="0"/>
        <pt x="523" y="475" on="0"/>
        <pt x="523" y="434" on="1"/>
        <pt x="523" y="396" on="0"/>
        <pt x="500" y="337" on="0"/>
        <pt x="465" y="294" on="0"/>
        <pt x="422" y="265" on="0"/>
        <pt x="402" y="256" on="1"/>
        <pt x="556" y="0" on="1"/>
        <pt x="399" y="0" on="1"/>
        <pt x="278" y="232" on="1"/>
        <pt x="205" y="232" on="1"/>
        <pt x="205" y="0" on="1"/>
        <pt x="69" y="0" on="1"/>
      </contour>
      <contour>
        <pt x="205" y="337" on="1"/>
        <pt x="259" y="337" on="1"/>
        <pt x="313" y="337" on="0"/>
        <pt x="382" y="381" on="0"/>
        <pt x="382" y="432" on="1"/>
        <pt x="382" y="477" on="0"/>
        <pt x="327" y="526" on="0"/>
        <pt x="274" y="526" on="1"/>
        <pt x="205" y="526" on="1"/>
      </contour>
      <contour>
        <pt x="277" y="-198" on="1"/>
        <pt x="252" y="-193" on="0"/>
        <pt x="218" y="-158" on="0"/>
        <pt x="218" y="-131" on="1"/>
        <pt x="218" y="-105" on="0"/>
        <pt x="254" y="-64" on="0"/>
        <pt x="286" y="-64" on="1"/>
        <pt x="299" y="-64" on="0"/>
        <pt x="327" y="-75" on="0"/>
        <pt x="350" y="-98" on="0"/>
        <pt x="365" y="-136" on="0"/>
        <pt x="365" y="-163" on="1"/>
        <pt x="365" y="-191" on="0"/>
        <pt x="346" y="-243" on="0"/>
        <pt x="315" y="-288" on="0"/>
        <pt x="275" y="-323" on="0"/>
        <pt x="253" y="-334" on="1"/>
        <pt x="222" y="-293" on="1"/>
        <pt x="248" y="-278" on="0"/>
        <pt x="289" y="-229" on="0"/>
        <pt x="294" y="-201" on="1"/>
      </contour>
    </TTGlyph>
    <TTGlyph name="Ring" xMin="29" yMin="680" xMax="238" yMax="861">
      <contour>
        <pt x="29" y="770" on="1"/>
        <pt x="29" y="815" on="0"/>
        <pt x="88" y="861" on="0"/>
        <pt x="133" y="861" on="1"/>
        <pt x="179" y="861" on="0"/>
        <pt x="238" y="816" on="0"/>
        <pt x="238" y="770" on="1"/>
        <pt x="238" y="724" on="0"/>
        <pt x="176" y="680" on="0"/>
        <pt x="133" y="680" on="1"/>
        <pt x="90" y="680" on="0"/>
        <pt x="29" y="726" on="0"/>
      </contour>
      <contour>
        <pt x="93" y="770" on="1"/>
        <pt x="93" y="749" on="0"/>
        <pt x="114" y="725" on="0"/>
        <pt x="133" y="725" on="1"/>
        <pt x="152" y="725" on="0"/>
        <pt x="174" y="749" on="0"/>
        <pt x="174" y="770" on="1"/>
        <pt x="174" y="792" on="0"/>
        <pt x="151" y="816" on="0"/>
        <pt x="133" y="816" on="1"/>
        <pt x="115" y="816" on="0"/>
        <pt x="93" y="792" on="0"/>
      </contour>
    </TTGlyph>
    <TTGlyph name="Rsmall" xMin="63" yMin="0" xMax="468" yMax="477">
      <contour>
        <pt x="63" y="477" on="1"/>
        <pt x="262" y="477" on="1"/>
        <pt x="301" y="477" on="0"/>
        <pt x="369" y="458" on="0"/>
        <pt x="418" y="419" on="0"/>
        <pt x="447" y="362" on="0"/>
        <pt x="447" y="324" on="1"/>
        <pt x="447" y="270" on="0"/>
        <pt x="395" y="202" on="0"/>
        <pt x="357" y="186" on="1"/>
        <pt x="468" y="0" on="1"/>
        <pt x="325" y="0" on="1"/>
        <pt x="246" y="155" on="1"/>
        <pt x="197" y="155" on="1"/>
        <pt x="197" y="0" on="1"/>
        <pt x="63" y="0" on="1"/>
      </contour>
      <contour>
        <pt x="196" y="252" on="1"/>
        <pt x="232" y="252" on="1"/>
        <pt x="268" y="252" on="0"/>
        <pt x="314" y="283" on="0"/>
        <pt x="314" y="317" on="1"/>
        <pt x="314" y="379" on="0"/>
        <pt x="230" y="379" on="1"/>
        <pt x="196" y="379" on="1"/>
      </contour>
    </TTGlyph>
    <TTGlyph name="S" xMin="41" yMin="-11" xMax="497" yMax="641">
      <contour>
        <pt x="273" y="641" on="1"/>
        <pt x="334" y="641" on="0"/>
        <pt x="428" y="617" on="0"/>
        <pt x="465" y="598" on="1"/>
        <pt x="434" y="496" on="1"/>
        <pt x="393" y="516" on="0"/>
        <pt x="317" y="537" on="0"/>
        <pt x="281" y="537" on="1"/>
        <pt x="233" y="537" on="0"/>
        <pt x="180" y="499" on="0"/>
        <pt x="180" y="467" on="1"/>
        <pt x="180" y="434" on="0"/>
        <pt x="226" y="400" on="0"/>
        <pt x="277" y="384" on="1"/>
        <pt x="337" y="365" on="1"/>
        <pt x="412" y="340" on="0"/>
        <pt x="497" y="248" on="0"/>
        <pt x="497" y="181" on="1"/>
        <pt x="497" y="141" on="0"/>
        <pt x="467" y="71" on="0"/>
        <pt x="407" y="19" on="0"/>
        <pt x="317" y="-11" on="0"/>
        <pt x="257" y="-11" on="1"/>
        <pt x="144" y="-11" on="0"/>
        <pt x="50" y="35" on="1"/>
        <pt x="81" y="137" on="1"/>
        <pt x="124" y="116" on="0"/>
        <pt x="206" y="93" on="0"/>
        <pt x="251" y="93" on="1"/>
        <pt x="304" y="93" on="0"/>
        <pt x="358" y="132" on="0"/>
        <pt x="358" y="167" on="1"/>
        <pt x="358" y="179" on="0"/>
        <pt x="349" y="202" on="0"/>
        <pt x="325" y="223" on="0"/>
        <pt x="284" y="244" on="0"/>
        <pt x="251" y="254" on="1"/>
        <pt x="198" y="272" on="1"/>
        <pt x="163" y="284" on="0"/>
        <pt x="105" y="316" on="0"/>
        <pt x="64" y="358" on="0"/>
        <pt x="41" y="415" on="0"/>
        <pt x="41" y="453" on="1"/>
        <pt x="41" y="494" on="0"/>
        <pt x="71" y="563" on="0"/>
        <pt x="130" y="613" on="0"/>
        <pt x="217" y="641" on="0"/>
      </contour>
    </TTGlyph>
    <TTGlyph name="Sacute" xMin="41" yMin="-11" xMax="497" yMax="819">
      <contour>
        <pt x="273" y="641" on="1"/>
        <pt x="334" y="641" on="0"/>
        <pt x="428" y="617" on="0"/>
        <pt x="465" y="598" on="1"/>
        <pt x="434" y="496" on="1"/>
        <pt x="393" y="516" on="0"/>
        <pt x="317" y="537" on="0"/>
        <pt x="281" y="537" on="1"/>
        <pt x="233" y="537" on="0"/>
        <pt x="180" y="499" on="0"/>
        <pt x="180" y="467" on="1"/>
        <pt x="180" y="434" on="0"/>
        <pt x="226" y="400" on="0"/>
        <pt x="277" y="384" on="1"/>
        <pt x="337" y="365" on="1"/>
        <pt x="412" y="340" on="0"/>
        <pt x="497" y="248" on="0"/>
        <pt x="497" y="181" on="1"/>
        <pt x="497" y="141" on="0"/>
        <pt x="467" y="71" on="0"/>
        <pt x="407" y="19" on="0"/>
        <pt x="317" y="-11" on="0"/>
        <pt x="257" y="-11" on="1"/>
        <pt x="144" y="-11" on="0"/>
        <pt x="50" y="35" on="1"/>
        <pt x="81" y="137" on="1"/>
        <pt x="124" y="116" on="0"/>
        <pt x="206" y="93" on="0"/>
        <pt x="251" y="93" on="1"/>
        <pt x="304" y="93" on="0"/>
        <pt x="358" y="132" on="0"/>
        <pt x="358" y="167" on="1"/>
        <pt x="358" y="179" on="0"/>
        <pt x="349" y="202" on="0"/>
        <pt x="325" y="223" on="0"/>
        <pt x="284" y="244" on="0"/>
        <pt x="251" y="254" on="1"/>
        <pt x="198" y="272" on="1"/>
        <pt x="163" y="284" on="0"/>
        <pt x="105" y="316" on="0"/>
        <pt x="64" y="358" on="0"/>
        <pt x="41" y="415" on="0"/>
        <pt x="41" y="453" on="1"/>
        <pt x="41" y="494" on="0"/>
        <pt x="71" y="563" on="0"/>
        <pt x="130" y="613" on="0"/>
        <pt x="217" y="641" on="0"/>
      </contour>
      <contour>
        <pt x="278" y="695" on="1"/>
        <pt x="169" y="695" on="1"/>
        <pt x="249" y="819" on="1"/>
        <pt x="393" y="819" on="1"/>
      </contour>
    </TTGlyph>
    <TTGlyph name="Scaron" xMin="41" yMin="-11" xMax="497" yMax="822">
      <contour>
        <pt x="273" y="641" on="1"/>
        <pt x="334" y="641" on="0"/>
        <pt x="428" y="617" on="0"/>
        <pt x="465" y="598" on="1"/>
        <pt x="434" y="496" on="1"/>
        <pt x="393" y="516" on="0"/>
        <pt x="317" y="537" on="0"/>
        <pt x="281" y="537" on="1"/>
        <pt x="233" y="537" on="0"/>
        <pt x="180" y="499" on="0"/>
        <pt x="180" y="467" on="1"/>
        <pt x="180" y="434" on="0"/>
        <pt x="226" y="400" on="0"/>
        <pt x="277" y="384" on="1"/>
        <pt x="337" y="365" on="1"/>
        <pt x="412" y="341" on="0"/>
        <pt x="497" y="248" on="0"/>
        <pt x="497" y="181" on="1"/>
        <pt x="497" y="141" on="0"/>
        <pt x="467" y="71" on="0"/>
        <pt x="407" y="19" on="0"/>
        <pt x="317" y="-11" on="0"/>
        <pt x="257" y="-11" on="1"/>
        <pt x="144" y="-11" on="0"/>
        <pt x="50" y="35" on="1"/>
        <pt x="81" y="137" on="1"/>
        <pt x="124" y="116" on="0"/>
        <pt x="206" y="93" on="0"/>
        <pt x="251" y="93" on="1"/>
        <pt x="304" y="93" on="0"/>
        <pt x="358" y="132" on="0"/>
        <pt x="358" y="167" on="1"/>
        <pt x="358" y="179" on="0"/>
        <pt x="349" y="201" on="0"/>
        <pt x="325" y="222" on="0"/>
        <pt x="284" y="243" on="0"/>
        <pt x="251" y="254" on="1"/>
        <pt x="198" y="272" on="1"/>
        <pt x="163" y="284" on="0"/>
        <pt x="105" y="315" on="0"/>
        <pt x="64" y="358" on="0"/>
        <pt x="41" y="415" on="0"/>
        <pt x="41" y="453" on="1"/>
        <pt x="41" y="494" on="0"/>
        <pt x="71" y="563" on="0"/>
        <pt x="130" y="613" on="0"/>
        <pt x="217" y="641" on="0"/>
      </contour>
      <contour>
        <pt x="106" y="822" on="1"/>
        <pt x="209" y="822" on="1"/>
        <pt x="273" y="752" on="1"/>
        <pt x="338" y="822" on="1"/>
        <pt x="437" y="822" on="1"/>
        <pt x="322" y="695" on="1"/>
        <pt x="223" y="695" on="1"/>
      </contour>
    </TTGlyph>
    <TTGlyph name="Scedilla" xMin="41" yMin="-215" xMax="497" yMax="641">
      <contour>
        <pt x="273" y="641" on="1"/>
        <pt x="334" y="641" on="0"/>
        <pt x="428" y="617" on="0"/>
        <pt x="465" y="598" on="1"/>
        <pt x="434" y="496" on="1"/>
        <pt x="393" y="516" on="0"/>
        <pt x="317" y="537" on="0"/>
        <pt x="281" y="537" on="1"/>
        <pt x="233" y="537" on="0"/>
        <pt x="180" y="499" on="0"/>
        <pt x="180" y="467" on="1"/>
        <pt x="180" y="434" on="0"/>
        <pt x="226" y="400" on="0"/>
        <pt x="277" y="384" on="1"/>
        <pt x="337" y="365" on="1"/>
        <pt x="412" y="340" on="0"/>
        <pt x="497" y="248" on="0"/>
        <pt x="497" y="181" on="1"/>
        <pt x="497" y="144" on="0"/>
        <pt x="471" y="78" on="0"/>
        <pt x="420" y="28" on="0"/>
        <pt x="342" y="-5" on="0"/>
        <pt x="291" y="-9" on="1"/>
        <pt x="278" y="-47" on="1"/>
        <pt x="316" y="-50" on="0"/>
        <pt x="359" y="-94" on="0"/>
        <pt x="359" y="-123" on="1"/>
        <pt x="359" y="-169" on="0"/>
        <pt x="291" y="-215" on="0"/>
        <pt x="240" y="-215" on="1"/>
        <pt x="215" y="-215" on="0"/>
        <pt x="172" y="-206" on="0"/>
        <pt x="159" y="-201" on="1"/>
        <pt x="175" y="-146" on="1"/>
        <pt x="188" y="-151" on="0"/>
        <pt x="211" y="-155" on="0"/>
        <pt x="226" y="-155" on="1"/>
        <pt x="248" y="-155" on="0"/>
        <pt x="273" y="-137" on="0"/>
        <pt x="273" y="-118" on="1"/>
        <pt x="273" y="-102" on="0"/>
        <pt x="241" y="-78" on="0"/>
        <pt x="194" y="-78" on="1"/>
        <pt x="220" y="-9" on="1"/>
        <pt x="174" y="-5" on="0"/>
        <pt x="88" y="16" on="0"/>
        <pt x="50" y="35" on="1"/>
        <pt x="81" y="137" on="1"/>
        <pt x="124" y="116" on="0"/>
        <pt x="206" y="93" on="0"/>
        <pt x="251" y="93" on="1"/>
        <pt x="304" y="93" on="0"/>
        <pt x="358" y="132" on="0"/>
        <pt x="358" y="167" on="1"/>
        <pt x="358" y="179" on="0"/>
        <pt x="349" y="202" on="0"/>
        <pt x="325" y="223" on="0"/>
        <pt x="284" y="244" on="0"/>
        <pt x="251" y="254" on="1"/>
        <pt x="198" y="272" on="1"/>
        <pt x="163" y="284" on="0"/>
        <pt x="105" y="316" on="0"/>
        <pt x="64" y="358" on="0"/>
        <pt x="41" y="415" on="0"/>
        <pt x="41" y="453" on="1"/>
        <pt x="41" y="494" on="0"/>
        <pt x="71" y="563" on="0"/>
        <pt x="130" y="613" on="0"/>
        <pt x="217" y="641" on="0"/>
      </contour>
    </TTGlyph>
    <TTGlyph name="Scircumflex" xMin="41" yMin="-11" xMax="497" yMax="821">
      <contour>
        <pt x="273" y="641" on="1"/>
        <pt x="334" y="641" on="0"/>
        <pt x="428" y="617" on="0"/>
        <pt x="465" y="598" on="1"/>
        <pt x="434" y="496" on="1"/>
        <pt x="393" y="516" on="0"/>
        <pt x="317" y="537" on="0"/>
        <pt x="281" y="537" on="1"/>
        <pt x="233" y="537" on="0"/>
        <pt x="180" y="499" on="0"/>
        <pt x="180" y="467" on="1"/>
        <pt x="180" y="434" on="0"/>
        <pt x="226" y="400" on="0"/>
        <pt x="277" y="384" on="1"/>
        <pt x="337" y="365" on="1"/>
        <pt x="412" y="340" on="0"/>
        <pt x="497" y="248" on="0"/>
        <pt x="497" y="181" on="1"/>
        <pt x="497" y="141" on="0"/>
        <pt x="467" y="71" on="0"/>
        <pt x="407" y="19" on="0"/>
        <pt x="317" y="-11" on="0"/>
        <pt x="257" y="-11" on="1"/>
        <pt x="144" y="-11" on="0"/>
        <pt x="50" y="35" on="1"/>
        <pt x="81" y="137" on="1"/>
        <pt x="124" y="116" on="0"/>
        <pt x="206" y="93" on="0"/>
        <pt x="251" y="93" on="1"/>
        <pt x="304" y="93" on="0"/>
        <pt x="358" y="132" on="0"/>
        <pt x="358" y="167" on="1"/>
        <pt x="358" y="179" on="0"/>
        <pt x="349" y="202" on="0"/>
        <pt x="325" y="223" on="0"/>
        <pt x="284" y="244" on="0"/>
        <pt x="251" y="254" on="1"/>
        <pt x="198" y="272" on="1"/>
        <pt x="163" y="284" on="0"/>
        <pt x="105" y="316" on="0"/>
        <pt x="64" y="358" on="0"/>
        <pt x="41" y="415" on="0"/>
        <pt x="41" y="453" on="1"/>
        <pt x="41" y="494" on="0"/>
        <pt x="71" y="563" on="0"/>
        <pt x="130" y="613" on="0"/>
        <pt x="217" y="641" on="0"/>
      </contour>
      <contour>
        <pt x="215" y="821" on="1"/>
        <pt x="314" y="821" on="1"/>
        <pt x="431" y="695" on="1"/>
        <pt x="329" y="695" on="1"/>
        <pt x="264" y="764" on="1"/>
        <pt x="199" y="695" on="1"/>
        <pt x="100" y="695" on="1"/>
      </contour>
    </TTGlyph>
    <TTGlyph name="Scommaaccent" xMin="41" yMin="-334" xMax="497" yMax="641">
      <contour>
        <pt x="273" y="641" on="1"/>
        <pt x="334" y="641" on="0"/>
        <pt x="428" y="617" on="0"/>
        <pt x="465" y="598" on="1"/>
        <pt x="434" y="496" on="1"/>
        <pt x="393" y="516" on="0"/>
        <pt x="317" y="537" on="0"/>
        <pt x="281" y="537" on="1"/>
        <pt x="233" y="537" on="0"/>
        <pt x="180" y="499" on="0"/>
        <pt x="180" y="467" on="1"/>
        <pt x="180" y="434" on="0"/>
        <pt x="226" y="400" on="0"/>
        <pt x="277" y="384" on="1"/>
        <pt x="337" y="365" on="1"/>
        <pt x="412" y="340" on="0"/>
        <pt x="497" y="248" on="0"/>
        <pt x="497" y="181" on="1"/>
        <pt x="497" y="141" on="0"/>
        <pt x="467" y="71" on="0"/>
        <pt x="407" y="19" on="0"/>
        <pt x="317" y="-11" on="0"/>
        <pt x="257" y="-11" on="1"/>
        <pt x="144" y="-11" on="0"/>
        <pt x="50" y="35" on="1"/>
        <pt x="81" y="137" on="1"/>
        <pt x="124" y="116" on="0"/>
        <pt x="206" y="93" on="0"/>
        <pt x="251" y="93" on="1"/>
        <pt x="304" y="93" on="0"/>
        <pt x="358" y="132" on="0"/>
        <pt x="358" y="167" on="1"/>
        <pt x="358" y="179" on="0"/>
        <pt x="349" y="202" on="0"/>
        <pt x="325" y="223" on="0"/>
        <pt x="284" y="244" on="0"/>
        <pt x="251" y="254" on="1"/>
        <pt x="198" y="272" on="1"/>
        <pt x="163" y="284" on="0"/>
        <pt x="105" y="316" on="0"/>
        <pt x="64" y="358" on="0"/>
        <pt x="41" y="415" on="0"/>
        <pt x="41" y="453" on="1"/>
        <pt x="41" y="494" on="0"/>
        <pt x="71" y="563" on="0"/>
        <pt x="130" y="613" on="0"/>
        <pt x="217" y="641" on="0"/>
      </contour>
      <contour>
        <pt x="243" y="-198" on="1"/>
        <pt x="218" y="-193" on="0"/>
        <pt x="184" y="-158" on="0"/>
        <pt x="184" y="-131" on="1"/>
        <pt x="184" y="-105" on="0"/>
        <pt x="220" y="-64" on="0"/>
        <pt x="252" y="-64" on="1"/>
        <pt x="265" y="-64" on="0"/>
        <pt x="293" y="-75" on="0"/>
        <pt x="316" y="-98" on="0"/>
        <pt x="331" y="-136" on="0"/>
        <pt x="331" y="-163" on="1"/>
        <pt x="331" y="-191" on="0"/>
        <pt x="312" y="-243" on="0"/>
        <pt x="280" y="-288" on="0"/>
        <pt x="240" y="-323" on="0"/>
        <pt x="218" y="-334" on="1"/>
        <pt x="187" y="-293" on="1"/>
        <pt x="213" y="-278" on="0"/>
        <pt x="255" y="-229" on="0"/>
        <pt x="260" y="-201" on="1"/>
      </contour>
    </TTGlyph>
    <TTGlyph name="Ssmall" xMin="37" yMin="-11" xMax="402" yMax="487">
      <contour>
        <pt x="350" y="363" on="1"/>
        <pt x="291" y="391" on="0"/>
        <pt x="235" y="391" on="1"/>
        <pt x="203" y="391" on="0"/>
        <pt x="168" y="369" on="0"/>
        <pt x="168" y="350" on="1"/>
        <pt x="168" y="340" on="0"/>
        <pt x="175" y="325" on="0"/>
        <pt x="193" y="312" on="0"/>
        <pt x="223" y="300" on="0"/>
        <pt x="247" y="293" on="1"/>
        <pt x="277" y="284" on="1"/>
        <pt x="339" y="266" on="0"/>
        <pt x="402" y="198" on="0"/>
        <pt x="402" y="144" on="1"/>
        <pt x="402" y="73" on="0"/>
        <pt x="293" y="-11" on="0"/>
        <pt x="201" y="-11" on="1"/>
        <pt x="151" y="-11" on="0"/>
        <pt x="71" y="6" on="0"/>
        <pt x="38" y="23" on="1"/>
        <pt x="67" y="121" on="1"/>
        <pt x="96" y="106" on="0"/>
        <pt x="160" y="87" on="0"/>
        <pt x="194" y="87" on="1"/>
        <pt x="233" y="87" on="0"/>
        <pt x="270" y="112" on="0"/>
        <pt x="270" y="132" on="1"/>
        <pt x="270" y="153" on="0"/>
        <pt x="235" y="176" on="0"/>
        <pt x="185" y="190" on="1"/>
        <pt x="154" y="199" on="1"/>
        <pt x="94" y="219" on="0"/>
        <pt x="37" y="284" on="0"/>
        <pt x="37" y="340" on="1"/>
        <pt x="37" y="405" on="0"/>
        <pt x="136" y="487" on="0"/>
        <pt x="224" y="487" on="1"/>
        <pt x="311" y="487" on="0"/>
        <pt x="378" y="456" on="1"/>
      </contour>
    </TTGlyph>
    <TTGlyph name="T" xMin="10" yMin="0" xMax="499" yMax="630">
      <contour>
        <pt x="499" y="630" on="1"/>
        <pt x="499" y="522" on="1"/>
        <pt x="321" y="522" on="1"/>
        <pt x="321" y="0" on="1"/>
        <pt x="184" y="0" on="1"/>
        <pt x="184" y="522" on="1"/>
        <pt x="10" y="522" on="1"/>
        <pt x="10" y="630" on="1"/>
      </contour>
    </TTGlyph>
    <TTGlyph name="Tbar" xMin="10" yMin="0" xMax="499" yMax="630">
      <contour>
        <pt x="499" y="630" on="1"/>
        <pt x="499" y="522" on="1"/>
        <pt x="321" y="522" on="1"/>
        <pt x="321" y="360" on="1"/>
        <pt x="417" y="360" on="1"/>
        <pt x="417" y="268" on="1"/>
        <pt x="321" y="268" on="1"/>
        <pt x="321" y="0" on="1"/>
        <pt x="184" y="0" on="1"/>
        <pt x="184" y="268" on="1"/>
        <pt x="88" y="268" on="1"/>
        <pt x="88" y="360" on="1"/>
        <pt x="184" y="360" on="1"/>
        <pt x="184" y="522" on="1"/>
        <pt x="10" y="522" on="1"/>
        <pt x="10" y="630" on="1"/>
      </contour>
    </TTGlyph>
</ttFont>
